<?xml version="1.0" encoding="utf-8" standalone="no"?>
<!DOCTYPE svg PUBLIC "-//W3C//DTD SVG 1.1//EN"
  "http://www.w3.org/Graphics/SVG/1.1/DTD/svg11.dtd">
<svg xmlns:xlink="http://www.w3.org/1999/xlink" width="417.250192pt" height="327.12pt" viewBox="0 0 417.250192 327.12" xmlns="http://www.w3.org/2000/svg" version="1.1">
 <metadata>
  <rdf:RDF xmlns:dc="http://purl.org/dc/elements/1.1/" xmlns:cc="http://creativecommons.org/ns#" xmlns:rdf="http://www.w3.org/1999/02/22-rdf-syntax-ns#">
   <cc:Work>
    <dc:type rdf:resource="http://purl.org/dc/dcmitype/StillImage"/>
    <dc:date>2024-09-03T12:28:29.762451</dc:date>
    <dc:format>image/svg+xml</dc:format>
    <dc:creator>
     <cc:Agent>
      <dc:title>Matplotlib v3.8.1, https://matplotlib.org/</dc:title>
     </cc:Agent>
    </dc:creator>
   </cc:Work>
  </rdf:RDF>
 </metadata>
 <defs>
  <style type="text/css">*{stroke-linejoin: round; stroke-linecap: butt}</style>
 </defs>
 <g id="figure_1">
  <g id="patch_1">
   <path d="M 0 327.12 
L 417.250192 327.12 
L 417.250192 0 
L 0 0 
L 0 327.12 
z
" style="fill: none"/>
  </g>
  <g id="axes_1">
   <g id="patch_2">
    <path d="M 30.103125 216.4 
L 207.264116 216.4 
L 207.264116 7.2 
L 30.103125 7.2 
L 30.103125 216.4 
z
" style="fill: none"/>
   </g>
   <g id="axes_2">
    <g id="patch_3">
     <path d="M 30.103125 7.2 
L 207.264116 7.2 
L 207.264116 7.2 
L 30.103125 7.2 
L 30.103125 7.2 
z
" style="fill: none"/>
    </g>
    <g id="matplotlib.axis_1">
     <g id="xtick_1">
      <g id="line2d_1">
       <defs>
        <path id="m27211f273b" d="M 0 0 
L 0 -3.5 
" style="stroke: #000000; stroke-width: 0.8"/>
       </defs>
       <g>
        <use xlink:href="#m27211f273b" x="52.145293" y="7.2" style="stroke: #000000; stroke-width: 0.8"/>
       </g>
      </g>
      <g id="text_1">
       <!-- 15% -->
       <g transform="translate(41.032011 -1.879688) scale(0.1 -0.1)">
        <defs>
         <path id="DejaVuSerif-31" d="M 909 0 
L 909 331 
L 1722 331 
L 1722 4213 
L 781 3603 
L 781 4013 
L 1919 4750 
L 2350 4750 
L 2350 331 
L 3163 331 
L 3163 0 
L 909 0 
z
" transform="scale(0.015625)"/>
         <path id="DejaVuSerif-35" d="M 3219 4666 
L 3219 4153 
L 1081 4153 
L 1081 2816 
Q 1244 2928 1461 2984 
Q 1678 3041 1947 3041 
Q 2703 3041 3140 2622 
Q 3578 2203 3578 1478 
Q 3578 738 3136 323 
Q 2694 -91 1894 -91 
Q 1572 -91 1234 -12 
Q 897 66 544 225 
L 544 1131 
L 897 1131 
Q 925 688 1179 453 
Q 1434 219 1894 219 
Q 2388 219 2653 544 
Q 2919 869 2919 1478 
Q 2919 2084 2655 2407 
Q 2391 2731 1894 2731 
Q 1613 2731 1398 2631 
Q 1184 2531 1019 2322 
L 750 2322 
L 750 4666 
L 3219 4666 
z
" transform="scale(0.015625)"/>
         <path id="DejaVuSerif-25" d="M 1434 4459 
Q 1159 4459 1004 4200 
Q 850 3941 850 3475 
Q 850 3016 1008 2753 
Q 1166 2491 1434 2491 
Q 1700 2491 1854 2752 
Q 2009 3013 2009 3475 
Q 2009 3938 1854 4198 
Q 1700 4459 1434 4459 
z
M 4653 2169 
Q 4381 2169 4226 1906 
Q 4072 1644 4072 1178 
Q 4072 719 4228 458 
Q 4384 197 4653 197 
Q 4922 197 5075 458 
Q 5228 719 5228 1178 
Q 5228 1641 5073 1905 
Q 4919 2169 4653 2169 
z
M 4653 2450 
Q 5147 2450 5437 2106 
Q 5728 1763 5728 1178 
Q 5728 594 5436 251 
Q 5144 -91 4653 -91 
Q 4153 -91 3862 251 
Q 3572 594 3572 1178 
Q 3572 1766 3864 2108 
Q 4156 2450 4653 2450 
z
M 4263 4750 
L 4738 4750 
L 1819 -91 
L 1344 -91 
L 4263 4750 
z
M 1428 4750 
Q 1922 4750 2215 4408 
Q 2509 4066 2509 3481 
Q 2509 2891 2217 2550 
Q 1925 2209 1428 2209 
Q 931 2209 642 2551 
Q 353 2894 353 3481 
Q 353 4063 643 4406 
Q 934 4750 1428 4750 
z
" transform="scale(0.015625)"/>
        </defs>
        <use xlink:href="#DejaVuSerif-31"/>
        <use xlink:href="#DejaVuSerif-35" x="63.623047"/>
        <use xlink:href="#DejaVuSerif-25" x="127.246094"/>
       </g>
      </g>
     </g>
     <g id="xtick_2">
      <g id="line2d_2">
       <g>
        <use xlink:href="#m27211f273b" x="90.159953" y="7.2" style="stroke: #000000; stroke-width: 0.8"/>
       </g>
      </g>
      <g id="text_2">
       <!-- 37% -->
       <g transform="translate(79.046672 -1.879688) scale(0.1 -0.1)">
        <defs>
         <path id="DejaVuSerif-33" d="M 622 4469 
Q 988 4606 1323 4678 
Q 1659 4750 1953 4750 
Q 2638 4750 3022 4454 
Q 3406 4159 3406 3634 
Q 3406 3213 3140 2930 
Q 2875 2647 2388 2547 
Q 2963 2466 3280 2130 
Q 3597 1794 3597 1259 
Q 3597 606 3158 257 
Q 2719 -91 1894 -91 
Q 1528 -91 1179 -12 
Q 831 66 488 225 
L 488 1131 
L 838 1131 
Q 869 681 1141 450 
Q 1413 219 1906 219 
Q 2384 219 2661 495 
Q 2938 772 2938 1253 
Q 2938 1803 2653 2086 
Q 2369 2369 1819 2369 
L 1522 2369 
L 1522 2688 
L 1678 2688 
Q 2225 2688 2498 2914 
Q 2772 3141 2772 3597 
Q 2772 4006 2547 4223 
Q 2322 4441 1900 4441 
Q 1478 4441 1245 4241 
Q 1013 4041 972 3647 
L 622 3647 
L 622 4469 
z
" transform="scale(0.015625)"/>
         <path id="DejaVuSerif-37" d="M 3609 4347 
L 1784 0 
L 1319 0 
L 3059 4153 
L 903 4153 
L 903 3578 
L 538 3578 
L 538 4666 
L 3609 4666 
L 3609 4347 
z
" transform="scale(0.015625)"/>
        </defs>
        <use xlink:href="#DejaVuSerif-33"/>
        <use xlink:href="#DejaVuSerif-37" x="63.623047"/>
        <use xlink:href="#DejaVuSerif-25" x="127.246094"/>
       </g>
      </g>
     </g>
     <g id="xtick_3">
      <g id="line2d_3">
       <g>
        <use xlink:href="#m27211f273b" x="128.174614" y="7.2" style="stroke: #000000; stroke-width: 0.8"/>
       </g>
      </g>
      <g id="text_3">
       <!-- 59% -->
       <g transform="translate(117.061333 -1.879688) scale(0.1 -0.1)">
        <defs>
         <path id="DejaVuSerif-39" d="M 2994 2091 
Q 2784 1856 2512 1740 
Q 2241 1625 1900 1625 
Q 1206 1625 804 2044 
Q 403 2463 403 3188 
Q 403 3897 839 4323 
Q 1275 4750 2003 4750 
Q 2794 4750 3217 4161 
Q 3641 3572 3641 2478 
Q 3641 1253 3137 581 
Q 2634 -91 1722 -91 
Q 1475 -91 1203 -44 
Q 931 3 647 97 
L 647 872 
L 997 872 
Q 1038 556 1241 387 
Q 1444 219 1784 219 
Q 2391 219 2687 676 
Q 2984 1134 2994 2091 
z
M 1978 4441 
Q 1534 4441 1298 4117 
Q 1063 3794 1063 3188 
Q 1063 2581 1298 2256 
Q 1534 1931 1978 1931 
Q 2422 1931 2658 2245 
Q 2894 2559 2894 3150 
Q 2894 3772 2656 4106 
Q 2419 4441 1978 4441 
z
" transform="scale(0.015625)"/>
        </defs>
        <use xlink:href="#DejaVuSerif-35"/>
        <use xlink:href="#DejaVuSerif-39" x="63.623047"/>
        <use xlink:href="#DejaVuSerif-25" x="127.246094"/>
       </g>
      </g>
     </g>
     <g id="xtick_4">
      <g id="line2d_4">
       <g>
        <use xlink:href="#m27211f273b" x="178.860829" y="7.2" style="stroke: #000000; stroke-width: 0.8"/>
       </g>
      </g>
      <g id="text_4">
       <!-- 88% -->
       <g transform="translate(167.747548 -1.879688) scale(0.1 -0.1)">
        <defs>
         <path id="DejaVuSerif-38" d="M 2981 1275 
Q 2981 1775 2732 2051 
Q 2484 2328 2034 2328 
Q 1584 2328 1336 2051 
Q 1088 1775 1088 1275 
Q 1088 772 1336 495 
Q 1584 219 2034 219 
Q 2484 219 2732 495 
Q 2981 772 2981 1275 
z
M 2853 3541 
Q 2853 3966 2637 4203 
Q 2422 4441 2034 4441 
Q 1650 4441 1433 4203 
Q 1216 3966 1216 3541 
Q 1216 3113 1433 2875 
Q 1650 2638 2034 2638 
Q 2422 2638 2637 2875 
Q 2853 3113 2853 3541 
z
M 2516 2484 
Q 3047 2413 3344 2092 
Q 3641 1772 3641 1275 
Q 3641 619 3225 264 
Q 2809 -91 2034 -91 
Q 1263 -91 845 264 
Q 428 619 428 1275 
Q 428 1772 725 2092 
Q 1022 2413 1556 2484 
Q 1084 2569 832 2842 
Q 581 3116 581 3541 
Q 581 4103 968 4426 
Q 1356 4750 2034 4750 
Q 2713 4750 3100 4426 
Q 3488 4103 3488 3541 
Q 3488 3116 3236 2842 
Q 2984 2569 2516 2484 
z
" transform="scale(0.015625)"/>
        </defs>
        <use xlink:href="#DejaVuSerif-38"/>
        <use xlink:href="#DejaVuSerif-38" x="63.623047"/>
        <use xlink:href="#DejaVuSerif-25" x="127.246094"/>
       </g>
      </g>
     </g>
    </g>
    <g id="matplotlib.axis_2"/>
    <g id="patch_4">
     <path d="M 30.103125 7.2 
L 207.264116 7.2 
" style="fill: none; stroke: #000000; stroke-width: 0.8; stroke-linejoin: miter; stroke-linecap: square"/>
    </g>
   </g>
   <g id="PolyCollection_1">
    <path d="M 38.155897 155.376914 
L 38.155897 123.653319 
L 49.509609 114.213252 
L 60.863321 90.15638 
L 72.217034 95.055016 
L 83.570746 82.995553 
L 94.924458 70.779315 
L 106.27817 70.877063 
L 117.631882 56.248398 
L 128.985594 65.377956 
L 140.339306 46.434365 
L 151.693018 42.779081 
L 163.04673 53.863808 
L 174.400442 55.582516 
L 185.754154 53.737489 
L 197.107866 47.321284 
L 199.211344 51.106854 
L 199.211344 59.207965 
L 199.211344 59.207965 
L 197.107866 69.881988 
L 185.754154 69.066583 
L 174.400442 60.59919 
L 163.04673 55.985903 
L 151.693018 65.090736 
L 140.339306 62.873077 
L 128.985594 69.854208 
L 117.631882 71.926132 
L 106.27817 72.358103 
L 94.924458 80.61269 
L 83.570746 88.516898 
L 72.217034 103.371375 
L 60.863321 112.754864 
L 49.509609 127.350097 
L 38.155897 155.376914 
z
" clip-path="url(#pae1a84faa8)" style="fill: #636efa; fill-opacity: 0.2"/>
   </g>
   <g id="PolyCollection_2">
    <path d="M 38.155897 169.881842 
L 38.155897 145.925278 
L 49.509609 111.624778 
L 60.863321 108.629897 
L 72.217034 99.825595 
L 83.570746 99.326693 
L 94.924458 97.414552 
L 106.27817 98.49868 
L 117.631882 95.622202 
L 128.985594 93.797181 
L 140.339306 90.099826 
L 151.693018 90.282508 
L 163.04673 91.18402 
L 174.400442 89.892272 
L 185.754154 90.538818 
L 197.107866 86.933517 
L 199.211344 88.218184 
L 199.211344 91.84802 
L 199.211344 91.84802 
L 197.107866 91.217013 
L 185.754154 93.443244 
L 174.400442 93.367654 
L 163.04673 95.769805 
L 151.693018 95.609996 
L 140.339306 95.364038 
L 128.985594 100.636501 
L 117.631882 101.296567 
L 106.27817 101.998145 
L 94.924458 102.505708 
L 83.570746 109.246677 
L 72.217034 115.558785 
L 60.863321 122.947784 
L 49.509609 128.947892 
L 38.155897 169.881842 
z
" clip-path="url(#pae1a84faa8)" style="fill: #ef553b; fill-opacity: 0.2"/>
   </g>
   <g id="PolyCollection_3">
    <path d="M 38.155897 129.619282 
L 38.155897 96.179184 
L 49.509609 94.083361 
L 60.863321 74.889544 
L 72.217034 64.493229 
L 83.570746 67.881673 
L 94.924458 58.455133 
L 106.27817 41.545561 
L 117.631882 52.96319 
L 128.985594 36.761027 
L 140.339306 43.032085 
L 151.693018 50.775706 
L 163.04673 30.357833 
L 174.400442 22.863425 
L 185.754154 16.709091 
L 197.107866 27.680966 
L 199.211344 23.703597 
L 199.211344 38.453461 
L 199.211344 38.453461 
L 197.107866 36.917377 
L 185.754154 40.618227 
L 174.400442 38.713016 
L 163.04673 38.212899 
L 151.693018 53.875193 
L 140.339306 57.037561 
L 128.985594 58.993202 
L 117.631882 61.333802 
L 106.27817 64.90526 
L 94.924458 71.852643 
L 83.570746 79.981069 
L 72.217034 84.192421 
L 60.863321 76.896033 
L 49.509609 99.831353 
L 38.155897 129.619282 
z
" clip-path="url(#pae1a84faa8)" style="fill: #00cc96; fill-opacity: 0.2"/>
   </g>
   <g id="PolyCollection_4">
    <path d="M 38.155897 146.958862 
L 38.155897 122.941219 
L 49.509609 95.399719 
L 60.863321 84.753588 
L 72.217034 79.731252 
L 83.570746 76.784297 
L 94.924458 70.253421 
L 106.27817 60.770584 
L 117.631882 64.743252 
L 128.985594 62.70381 
L 140.339306 68.593505 
L 151.693018 54.739836 
L 163.04673 56.839342 
L 174.400442 59.48035 
L 185.754154 57.071946 
L 197.107866 52.154905 
L 199.211344 57.889873 
L 199.211344 66.932523 
L 199.211344 66.932523 
L 197.107866 65.122652 
L 185.754154 60.758213 
L 174.400442 66.447281 
L 163.04673 66.235211 
L 151.693018 67.215257 
L 140.339306 74.252056 
L 128.985594 71.04804 
L 117.631882 66.857161 
L 106.27817 72.755904 
L 94.924458 81.545318 
L 83.570746 94.459982 
L 72.217034 85.577024 
L 60.863321 102.900053 
L 49.509609 111.833811 
L 38.155897 146.958862 
z
" clip-path="url(#pae1a84faa8)" style="fill: #ab63fa; fill-opacity: 0.2"/>
   </g>
   <g id="PolyCollection_5">
    <path d="M 38.155897 167.791873 
L 38.155897 117.773781 
L 49.509609 110.792287 
L 60.863321 86.919335 
L 72.217034 88.73789 
L 83.570746 90.912701 
L 94.924458 81.8435 
L 106.27817 72.479987 
L 117.631882 74.746348 
L 128.985594 72.016483 
L 140.339306 59.383891 
L 151.693018 51.134132 
L 163.04673 56.487637 
L 174.400442 48.52796 
L 185.754154 50.353156 
L 197.107866 49.507794 
L 199.211344 61.226525 
L 199.211344 65.517169 
L 199.211344 65.517169 
L 197.107866 54.079487 
L 185.754154 77.901593 
L 174.400442 70.13253 
L 163.04673 67.649156 
L 151.693018 65.24034 
L 140.339306 70.770613 
L 128.985594 77.461957 
L 117.631882 82.534498 
L 106.27817 88.490052 
L 94.924458 85.436181 
L 83.570746 94.122553 
L 72.217034 100.582087 
L 60.863321 112.757302 
L 49.509609 130.922107 
L 38.155897 167.791873 
z
" clip-path="url(#pae1a84faa8)" style="fill: #ffa15a; fill-opacity: 0.2"/>
   </g>
   <g id="PolyCollection_6">
    <path d="M 38.155897 175.583545 
L 38.155897 148.38633 
L 49.509609 125.760864 
L 60.863321 101.240904 
L 72.217034 89.920533 
L 83.570746 93.957191 
L 94.924458 85.61178 
L 106.27817 75.072703 
L 117.631882 60.407811 
L 128.985594 67.591107 
L 140.339306 65.705512 
L 151.693018 62.154246 
L 163.04673 64.992646 
L 174.400442 67.034401 
L 185.754154 58.774255 
L 197.107866 69.294639 
L 199.211344 54.75372 
L 199.211344 73.356006 
L 199.211344 73.356006 
L 197.107866 72.76281 
L 185.754154 62.491287 
L 174.400442 68.790092 
L 163.04673 78.060009 
L 151.693018 73.855676 
L 140.339306 81.125278 
L 128.985594 83.736455 
L 117.631882 89.079531 
L 106.27817 86.124692 
L 94.924458 95.023172 
L 83.570746 123.626864 
L 72.217034 105.007142 
L 60.863321 107.288946 
L 49.509609 138.719172 
L 38.155897 175.583545 
z
" clip-path="url(#pae1a84faa8)" style="fill: #19d3f3; fill-opacity: 0.2"/>
   </g>
   <g id="matplotlib.axis_3">
    <g id="xtick_5">
     <g id="line2d_5">
      <defs>
       <path id="md739749cf6" d="M 0 0 
L 0 3.5 
" style="stroke: #000000; stroke-width: 0.8"/>
      </defs>
      <g>
       <use xlink:href="#md739749cf6" x="52.145293" y="216.4" style="stroke: #000000; stroke-width: 0.8"/>
      </g>
     </g>
     <g id="text_5">
      <!-- 2000 -->
      <g transform="translate(39.420293 230.998437) scale(0.1 -0.1)">
       <defs>
        <path id="DejaVuSerif-32" d="M 819 3553 
L 469 3553 
L 469 4384 
Q 803 4563 1142 4656 
Q 1481 4750 1806 4750 
Q 2534 4750 2956 4397 
Q 3378 4044 3378 3438 
Q 3378 2753 2422 1800 
Q 2347 1728 2309 1691 
L 1131 513 
L 3078 513 
L 3078 1088 
L 3444 1088 
L 3444 0 
L 434 0 
L 434 341 
L 1850 1753 
Q 2319 2222 2519 2614 
Q 2719 3006 2719 3438 
Q 2719 3909 2473 4175 
Q 2228 4441 1797 4441 
Q 1350 4441 1106 4219 
Q 863 3997 819 3553 
z
" transform="scale(0.015625)"/>
        <path id="DejaVuSerif-30" d="M 2034 219 
Q 2513 219 2750 744 
Q 2988 1269 2988 2328 
Q 2988 3391 2750 3916 
Q 2513 4441 2034 4441 
Q 1556 4441 1318 3916 
Q 1081 3391 1081 2328 
Q 1081 1269 1318 744 
Q 1556 219 2034 219 
z
M 2034 -91 
Q 1275 -91 848 546 
Q 422 1184 422 2328 
Q 422 3475 848 4112 
Q 1275 4750 2034 4750 
Q 2797 4750 3222 4112 
Q 3647 3475 3647 2328 
Q 3647 1184 3222 546 
Q 2797 -91 2034 -91 
z
" transform="scale(0.015625)"/>
       </defs>
       <use xlink:href="#DejaVuSerif-32"/>
       <use xlink:href="#DejaVuSerif-30" x="63.623047"/>
       <use xlink:href="#DejaVuSerif-30" x="127.246094"/>
       <use xlink:href="#DejaVuSerif-30" x="190.869141"/>
      </g>
     </g>
    </g>
    <g id="xtick_6">
     <g id="line2d_6">
      <g>
       <use xlink:href="#md739749cf6" x="90.159953" y="216.4" style="stroke: #000000; stroke-width: 0.8"/>
      </g>
     </g>
     <g id="text_6">
      <!-- 5000 -->
      <g transform="translate(77.434953 230.998437) scale(0.1 -0.1)">
       <use xlink:href="#DejaVuSerif-35"/>
       <use xlink:href="#DejaVuSerif-30" x="63.623047"/>
       <use xlink:href="#DejaVuSerif-30" x="127.246094"/>
       <use xlink:href="#DejaVuSerif-30" x="190.869141"/>
      </g>
     </g>
    </g>
    <g id="xtick_7">
     <g id="line2d_7">
      <g>
       <use xlink:href="#md739749cf6" x="128.174614" y="216.4" style="stroke: #000000; stroke-width: 0.8"/>
      </g>
     </g>
     <g id="text_7">
      <!-- 8000 -->
      <g transform="translate(115.449614 230.998437) scale(0.1 -0.1)">
       <use xlink:href="#DejaVuSerif-38"/>
       <use xlink:href="#DejaVuSerif-30" x="63.623047"/>
       <use xlink:href="#DejaVuSerif-30" x="127.246094"/>
       <use xlink:href="#DejaVuSerif-30" x="190.869141"/>
      </g>
     </g>
    </g>
    <g id="xtick_8">
     <g id="line2d_8">
      <g>
       <use xlink:href="#md739749cf6" x="178.860829" y="216.4" style="stroke: #000000; stroke-width: 0.8"/>
      </g>
     </g>
     <g id="text_8">
      <!-- 12000 -->
      <g transform="translate(162.954579 230.998437) scale(0.1 -0.1)">
       <use xlink:href="#DejaVuSerif-31"/>
       <use xlink:href="#DejaVuSerif-32" x="63.623047"/>
       <use xlink:href="#DejaVuSerif-30" x="127.246094"/>
       <use xlink:href="#DejaVuSerif-30" x="190.869141"/>
       <use xlink:href="#DejaVuSerif-30" x="254.492188"/>
      </g>
     </g>
    </g>
   </g>
   <g id="matplotlib.axis_4">
    <g id="ytick_1">
     <g id="line2d_9">
      <defs>
       <path id="me0aaa219f0" d="M 0 0 
L -3.5 0 
" style="stroke: #000000; stroke-width: 0.8"/>
      </defs>
      <g>
       <use xlink:href="#me0aaa219f0" x="30.103125" y="187.090178" style="stroke: #000000; stroke-width: 0.8"/>
      </g>
     </g>
     <g id="text_9">
      <!-- 0.1 -->
      <g transform="translate(7.2 190.889396) scale(0.1 -0.1)">
       <defs>
        <path id="DejaVuSerif-2e" d="M 603 325 
Q 603 500 722 622 
Q 841 744 1019 744 
Q 1191 744 1312 622 
Q 1434 500 1434 325 
Q 1434 153 1312 31 
Q 1191 -91 1019 -91 
Q 841 -91 722 29 
Q 603 150 603 325 
z
" transform="scale(0.015625)"/>
       </defs>
       <use xlink:href="#DejaVuSerif-30"/>
       <use xlink:href="#DejaVuSerif-2e" x="63.623047"/>
       <use xlink:href="#DejaVuSerif-31" x="95.410156"/>
      </g>
     </g>
    </g>
    <g id="ytick_2">
     <g id="line2d_10">
      <g>
       <use xlink:href="#me0aaa219f0" x="30.103125" y="154.792267" style="stroke: #000000; stroke-width: 0.8"/>
      </g>
     </g>
     <g id="text_10">
      <!-- 0.2 -->
      <g transform="translate(7.2 158.591485) scale(0.1 -0.1)">
       <use xlink:href="#DejaVuSerif-30"/>
       <use xlink:href="#DejaVuSerif-2e" x="63.623047"/>
       <use xlink:href="#DejaVuSerif-32" x="95.410156"/>
      </g>
     </g>
    </g>
    <g id="ytick_3">
     <g id="line2d_11">
      <g>
       <use xlink:href="#me0aaa219f0" x="30.103125" y="122.494356" style="stroke: #000000; stroke-width: 0.8"/>
      </g>
     </g>
     <g id="text_11">
      <!-- 0.3 -->
      <g transform="translate(7.2 126.293574) scale(0.1 -0.1)">
       <use xlink:href="#DejaVuSerif-30"/>
       <use xlink:href="#DejaVuSerif-2e" x="63.623047"/>
       <use xlink:href="#DejaVuSerif-33" x="95.410156"/>
      </g>
     </g>
    </g>
    <g id="ytick_4">
     <g id="line2d_12">
      <g>
       <use xlink:href="#me0aaa219f0" x="30.103125" y="90.196445" style="stroke: #000000; stroke-width: 0.8"/>
      </g>
     </g>
     <g id="text_12">
      <!-- 0.4 -->
      <g transform="translate(7.2 93.995663) scale(0.1 -0.1)">
       <defs>
        <path id="DejaVuSerif-34" d="M 2234 1581 
L 2234 4063 
L 641 1581 
L 2234 1581 
z
M 3609 0 
L 1484 0 
L 1484 331 
L 2234 331 
L 2234 1247 
L 197 1247 
L 197 1588 
L 2241 4750 
L 2859 4750 
L 2859 1581 
L 3750 1581 
L 3750 1247 
L 2859 1247 
L 2859 331 
L 3609 331 
L 3609 0 
z
" transform="scale(0.015625)"/>
       </defs>
       <use xlink:href="#DejaVuSerif-30"/>
       <use xlink:href="#DejaVuSerif-2e" x="63.623047"/>
       <use xlink:href="#DejaVuSerif-34" x="95.410156"/>
      </g>
     </g>
    </g>
    <g id="ytick_5">
     <g id="line2d_13">
      <g>
       <use xlink:href="#me0aaa219f0" x="30.103125" y="57.898534" style="stroke: #000000; stroke-width: 0.8"/>
      </g>
     </g>
     <g id="text_13">
      <!-- 0.5 -->
      <g transform="translate(7.2 61.697752) scale(0.1 -0.1)">
       <use xlink:href="#DejaVuSerif-30"/>
       <use xlink:href="#DejaVuSerif-2e" x="63.623047"/>
       <use xlink:href="#DejaVuSerif-35" x="95.410156"/>
      </g>
     </g>
    </g>
    <g id="ytick_6">
     <g id="line2d_14">
      <g>
       <use xlink:href="#me0aaa219f0" x="30.103125" y="25.600623" style="stroke: #000000; stroke-width: 0.8"/>
      </g>
     </g>
     <g id="text_14">
      <!-- 0.6 -->
      <g transform="translate(7.2 29.399841) scale(0.1 -0.1)">
       <defs>
        <path id="DejaVuSerif-36" d="M 2094 219 
Q 2534 219 2771 542 
Q 3009 866 3009 1472 
Q 3009 2078 2771 2401 
Q 2534 2725 2094 2725 
Q 1647 2725 1412 2412 
Q 1178 2100 1178 1509 
Q 1178 888 1415 553 
Q 1653 219 2094 219 
z
M 1075 2569 
Q 1288 2803 1556 2918 
Q 1825 3034 2163 3034 
Q 2859 3034 3264 2615 
Q 3669 2197 3669 1472 
Q 3669 763 3233 336 
Q 2797 -91 2069 -91 
Q 1278 -91 853 498 
Q 428 1088 428 2181 
Q 428 3406 931 4078 
Q 1434 4750 2350 4750 
Q 2597 4750 2869 4703 
Q 3141 4656 3425 4563 
L 3425 3794 
L 3072 3794 
Q 3034 4109 2831 4275 
Q 2628 4441 2284 4441 
Q 1678 4441 1381 3981 
Q 1084 3522 1075 2569 
z
" transform="scale(0.015625)"/>
       </defs>
       <use xlink:href="#DejaVuSerif-30"/>
       <use xlink:href="#DejaVuSerif-2e" x="63.623047"/>
       <use xlink:href="#DejaVuSerif-36" x="95.410156"/>
      </g>
     </g>
    </g>
   </g>
   <g id="line2d_15">
    <path d="M 38.155897 139.429403 
L 49.509609 114.69245 
L 60.863321 102.011893 
L 72.217034 94.990282 
L 83.570746 83.455135 
L 94.924458 71.106458 
L 106.27817 64.897759 
L 117.631882 63.45816 
L 128.985594 62.01502 
L 140.339306 55.359324 
L 151.693018 52.178762 
L 163.04673 53.775192 
L 174.400442 57.422355 
L 185.754154 59.323825 
L 197.107866 57.84603 
L 199.211344 56.398257 
" clip-path="url(#pae1a84faa8)" style="fill: none; stroke: #636efa; stroke-width: 1.5; stroke-linecap: square"/>
   </g>
   <g id="line2d_16">
    <path d="M 38.155897 153.666655 
L 49.509609 120.063853 
L 60.863321 112.359445 
L 72.217034 106.314434 
L 83.570746 101.765052 
L 94.924458 98.502867 
L 106.27817 97.648745 
L 117.631882 96.045128 
L 128.985594 94.31828 
L 140.339306 90.733402 
L 151.693018 91.630991 
L 163.04673 91.988425 
L 174.400442 90.610527 
L 185.754154 91.646568 
L 197.107866 88.369631 
L 199.211344 89.426158 
" clip-path="url(#pae1a84faa8)" style="fill: none; stroke: #ef553b; stroke-width: 1.5; stroke-linecap: square"/>
   </g>
   <g id="line2d_17">
    <path d="M 38.155897 119.491771 
L 49.509609 97.288085 
L 60.863321 79.03067 
L 72.217034 75.365238 
L 83.570746 65.921681 
L 94.924458 63.760533 
L 106.27817 53.589127 
L 117.631882 53.935702 
L 128.985594 46.531814 
L 140.339306 46.098747 
L 151.693018 47.425929 
L 163.04673 36.655102 
L 174.400442 30.757459 
L 185.754154 26.668198 
L 197.107866 35.35184 
L 199.211344 30.635732 
" clip-path="url(#pae1a84faa8)" style="fill: none; stroke: #00cc96; stroke-width: 1.5; stroke-linecap: square"/>
   </g>
   <g id="line2d_18">
    <path d="M 38.155897 128.752021 
L 49.509609 95.783673 
L 60.863321 91.296856 
L 72.217034 79.434099 
L 83.570746 82.231803 
L 94.924458 75.587557 
L 106.27817 70.158143 
L 117.631882 65.143406 
L 128.985594 64.220865 
L 140.339306 65.752013 
L 151.693018 59.961065 
L 163.04673 59.769775 
L 174.400442 58.800756 
L 185.754154 57.342023 
L 197.107866 57.349783 
L 199.211344 61.187655 
" clip-path="url(#pae1a84faa8)" style="fill: none; stroke: #ab63fa; stroke-width: 1.5; stroke-linecap: square"/>
   </g>
   <g id="line2d_19">
    <path d="M 38.155897 140.098692 
L 49.509609 118.51614 
L 60.863321 97.059714 
L 72.217034 91.583891 
L 83.570746 88.761915 
L 94.924458 76.73694 
L 106.27817 76.646938 
L 117.631882 73.982371 
L 128.985594 68.79488 
L 140.339306 62.788662 
L 151.693018 59.750003 
L 163.04673 61.503206 
L 174.400442 60.924952 
L 185.754154 60.96102 
L 197.107866 55.553469 
L 199.211344 61.15898 
" clip-path="url(#pae1a84faa8)" style="fill: none; stroke: #ffa15a; stroke-width: 1.5; stroke-linecap: square"/>
   </g>
   <g id="line2d_20">
    <path d="M 38.155897 166.453185 
L 49.509609 131.291264 
L 60.863321 103.928756 
L 72.217034 97.592889 
L 83.570746 102.485515 
L 94.924458 86.508782 
L 106.27817 76.097537 
L 117.631882 73.550229 
L 128.985594 75.49561 
L 140.339306 71.447243 
L 151.693018 66.634539 
L 163.04673 70.040613 
L 174.400442 64.824795 
L 185.754154 59.567473 
L 197.107866 64.735508 
L 199.211344 61.563663 
" clip-path="url(#pae1a84faa8)" style="fill: none; stroke: #19d3f3; stroke-width: 1.5; stroke-linecap: square"/>
   </g>
   <g id="patch_5">
    <path d="M 30.103125 216.4 
L 30.103125 7.2 
" style="fill: none; stroke: #000000; stroke-width: 0.8; stroke-linejoin: miter; stroke-linecap: square"/>
   </g>
   <g id="patch_6">
    <path d="M 207.264116 216.4 
L 207.264116 7.2 
" style="fill: none; stroke: #000000; stroke-width: 0.8; stroke-linejoin: miter; stroke-linecap: square"/>
   </g>
   <g id="patch_7">
    <path d="M 30.103125 216.4 
L 207.264116 216.4 
" style="fill: none; stroke: #000000; stroke-width: 0.8; stroke-linejoin: miter; stroke-linecap: square"/>
   </g>
   <g id="patch_8">
    <path d="M 30.103125 7.2 
L 207.264116 7.2 
" style="fill: none; stroke: #000000; stroke-width: 0.8; stroke-linejoin: miter; stroke-linecap: square"/>
   </g>
  </g>
  <g id="axes_3">
   <g id="patch_9">
    <path d="M 231.525612 216.4 
L 408.686603 216.4 
L 408.686603 7.2 
L 231.525612 7.2 
L 231.525612 216.4 
z
" style="fill: none"/>
   </g>
   <g id="axes_4">
    <g id="patch_10">
     <path d="M 231.525612 7.2 
L 408.686603 7.2 
L 408.686603 7.2 
L 231.525612 7.2 
L 231.525612 7.2 
z
" style="fill: none"/>
    </g>
    <g id="matplotlib.axis_5">
     <g id="xtick_9">
      <g id="line2d_21">
       <g>
        <use xlink:href="#m27211f273b" x="235.533594" y="7.2" style="stroke: #000000; stroke-width: 0.8"/>
       </g>
      </g>
      <g id="text_15">
       <!-- 0% -->
       <g transform="translate(227.601563 -1.879688) scale(0.1 -0.1)">
        <use xlink:href="#DejaVuSerif-30"/>
        <use xlink:href="#DejaVuSerif-25" x="63.623047"/>
       </g>
      </g>
     </g>
     <g id="xtick_10">
      <g id="line2d_22">
       <g>
        <use xlink:href="#m27211f273b" x="275.981494" y="7.2" style="stroke: #000000; stroke-width: 0.8"/>
       </g>
      </g>
      <g id="text_16">
       <!-- 7% -->
       <g transform="translate(268.049462 -1.879688) scale(0.1 -0.1)">
        <use xlink:href="#DejaVuSerif-37"/>
        <use xlink:href="#DejaVuSerif-25" x="63.623047"/>
       </g>
      </g>
     </g>
     <g id="xtick_11">
      <g id="line2d_23">
       <g>
        <use xlink:href="#m27211f273b" x="316.429393" y="7.2" style="stroke: #000000; stroke-width: 0.8"/>
       </g>
      </g>
      <g id="text_17">
       <!-- 15% -->
       <g transform="translate(305.316112 -1.879688) scale(0.1 -0.1)">
        <use xlink:href="#DejaVuSerif-31"/>
        <use xlink:href="#DejaVuSerif-35" x="63.623047"/>
        <use xlink:href="#DejaVuSerif-25" x="127.246094"/>
       </g>
      </g>
     </g>
     <g id="xtick_12">
      <g id="line2d_24">
       <g>
        <use xlink:href="#m27211f273b" x="356.877293" y="7.2" style="stroke: #000000; stroke-width: 0.8"/>
       </g>
      </g>
      <g id="text_18">
       <!-- 22% -->
       <g transform="translate(345.764012 -1.879688) scale(0.1 -0.1)">
        <use xlink:href="#DejaVuSerif-32"/>
        <use xlink:href="#DejaVuSerif-32" x="63.623047"/>
        <use xlink:href="#DejaVuSerif-25" x="127.246094"/>
       </g>
      </g>
     </g>
     <g id="xtick_13">
      <g id="line2d_25">
       <g>
        <use xlink:href="#m27211f273b" x="397.325192" y="7.2" style="stroke: #000000; stroke-width: 0.8"/>
       </g>
      </g>
      <g id="text_19">
       <!-- 29% -->
       <g transform="translate(386.211911 -1.879688) scale(0.1 -0.1)">
        <use xlink:href="#DejaVuSerif-32"/>
        <use xlink:href="#DejaVuSerif-39" x="63.623047"/>
        <use xlink:href="#DejaVuSerif-25" x="127.246094"/>
       </g>
      </g>
     </g>
    </g>
    <g id="matplotlib.axis_6"/>
    <g id="patch_11">
     <path d="M 231.525612 7.2 
L 408.686603 7.2 
" style="fill: none; stroke: #000000; stroke-width: 0.8; stroke-linejoin: miter; stroke-linecap: square"/>
    </g>
   </g>
   <g id="PolyCollection_7">
    <path d="M 239.578384 200.638434 
L 239.578384 194.387973 
L 243.623174 189.775165 
L 247.667964 174.139188 
L 251.712754 170.937933 
L 255.757544 151.824819 
L 259.802334 125.066086 
L 263.847124 123.238804 
L 267.891914 124.947412 
L 271.936704 122.271236 
L 275.981494 127.368231 
L 280.026283 135.928553 
L 284.071073 136.387365 
L 288.115863 117.344478 
L 292.160653 116.593218 
L 296.205443 117.053395 
L 300.250233 106.571929 
L 304.295023 118.674464 
L 308.339813 124.873698 
L 312.384603 107.020583 
L 316.429393 117.502681 
L 320.474183 111.948556 
L 324.518973 104.670326 
L 328.563763 89.130979 
L 332.608553 102.859975 
L 336.653343 102.153774 
L 340.698133 103.306491 
L 344.742923 108.307093 
L 348.787713 100.23674 
L 352.832503 86.322265 
L 356.877293 100.420087 
L 360.922083 101.109101 
L 364.966873 95.522946 
L 369.011663 89.582387 
L 373.056453 89.54651 
L 377.101243 77.952696 
L 381.146033 83.402437 
L 385.190823 85.834044 
L 389.235613 86.694437 
L 393.280402 86.74088 
L 397.325192 82.615335 
L 400.633831 86.635517 
L 400.633831 99.6863 
L 400.633831 99.6863 
L 397.325192 102.062814 
L 393.280402 107.032958 
L 389.235613 100.241759 
L 385.190823 104.045513 
L 381.146033 97.538633 
L 377.101243 99.796664 
L 373.056453 101.157337 
L 369.011663 107.555756 
L 364.966873 112.201309 
L 360.922083 110.275026 
L 356.877293 115.05265 
L 352.832503 109.470709 
L 348.787713 110.254269 
L 344.742923 121.057666 
L 340.698133 110.942788 
L 336.653343 117.230374 
L 332.608553 125.532598 
L 328.563763 120.742475 
L 324.518973 122.581953 
L 320.474183 120.447829 
L 316.429393 126.99383 
L 312.384603 121.765474 
L 308.339813 130.464379 
L 304.295023 128.246231 
L 300.250233 133.098457 
L 296.205443 140.19122 
L 292.160653 134.552852 
L 288.115863 127.268402 
L 284.071073 142.523389 
L 280.026283 146.843466 
L 275.981494 149.482812 
L 271.936704 156.965868 
L 267.891914 157.665393 
L 263.847124 172.927839 
L 259.802334 154.50664 
L 255.757544 167.053485 
L 251.712754 181.338184 
L 247.667964 181.953401 
L 243.623174 195.913158 
L 239.578384 200.638434 
z
" clip-path="url(#p1c847166f5)" style="fill: #636efa; fill-opacity: 0.2"/>
   </g>
   <g id="PolyCollection_8">
    <path d="M 239.578384 205.811669 
L 239.578384 193.856331 
L 243.623174 185.927086 
L 247.667964 176.337839 
L 251.712754 173.893819 
L 255.757544 167.986701 
L 259.802334 152.105284 
L 263.847124 154.707359 
L 267.891914 147.382673 
L 271.936704 145.183233 
L 275.981494 143.804313 
L 280.026283 145.751817 
L 284.071073 130.169156 
L 288.115863 121.161967 
L 292.160653 123.588459 
L 296.205443 110.599274 
L 300.250233 106.183911 
L 304.295023 108.672235 
L 308.339813 110.75407 
L 312.384603 113.438584 
L 316.429393 112.53355 
L 320.474183 110.678578 
L 324.518973 105.400118 
L 328.563763 105.546179 
L 332.608553 105.654815 
L 336.653343 105.994225 
L 340.698133 108.247861 
L 344.742923 108.562288 
L 348.787713 106.937372 
L 352.832503 107.371022 
L 356.877293 104.081229 
L 360.922083 102.862299 
L 364.966873 102.385867 
L 369.011663 100.968164 
L 373.056453 98.080169 
L 377.101243 98.523126 
L 381.146033 100.189683 
L 385.190823 101.649354 
L 389.235613 103.505443 
L 393.280402 102.741823 
L 397.325192 103.451725 
L 400.633831 101.883026 
L 400.633831 107.105601 
L 400.633831 107.105601 
L 397.325192 105.123612 
L 393.280402 105.046116 
L 389.235613 104.946442 
L 385.190823 106.507732 
L 381.146033 116.325985 
L 377.101243 115.285369 
L 373.056453 113.172186 
L 369.011663 120.126632 
L 364.966873 118.607681 
L 360.922083 119.917331 
L 356.877293 118.699947 
L 352.832503 120.105504 
L 348.787713 119.916409 
L 344.742923 122.966356 
L 340.698133 123.237848 
L 336.653343 124.30596 
L 332.608553 125.884036 
L 328.563763 128.605195 
L 324.518973 128.343647 
L 320.474183 127.755939 
L 316.429393 131.172158 
L 312.384603 125.6713 
L 308.339813 129.794943 
L 304.295023 128.476343 
L 300.250233 134.464833 
L 296.205443 132.47525 
L 292.160653 138.984587 
L 288.115863 141.74737 
L 284.071073 147.819476 
L 280.026283 150.430657 
L 275.981494 156.53011 
L 271.936704 160.487283 
L 267.891914 175.710366 
L 263.847124 182.187243 
L 259.802334 184.973113 
L 255.757544 183.936213 
L 251.712754 190.760088 
L 247.667964 195.95922 
L 243.623174 195.245124 
L 239.578384 205.811669 
z
" clip-path="url(#p1c847166f5)" style="fill: #ef553b; fill-opacity: 0.2"/>
   </g>
   <g id="PolyCollection_9">
    <path d="M 239.578384 199.943621 
L 239.578384 190.613403 
L 243.623174 164.294994 
L 247.667964 162.152753 
L 251.712754 154.015034 
L 255.757544 121.811059 
L 259.802334 108.134122 
L 263.847124 97.063192 
L 267.891914 98.719288 
L 271.936704 108.205941 
L 275.981494 101.978741 
L 280.026283 112.502232 
L 284.071073 100.421157 
L 288.115863 100.995281 
L 292.160653 97.23567 
L 296.205443 97.272765 
L 300.250233 89.773641 
L 304.295023 98.192275 
L 308.339813 89.14373 
L 312.384603 85.029094 
L 316.429393 80.664652 
L 320.474183 83.351635 
L 324.518973 85.500279 
L 328.563763 76.943737 
L 332.608553 78.738802 
L 336.653343 73.701207 
L 340.698133 81.751913 
L 344.742923 72.146124 
L 348.787713 79.128899 
L 352.832503 82.205178 
L 356.877293 78.367054 
L 360.922083 86.453382 
L 364.966873 72.080465 
L 369.011663 82.117981 
L 373.056453 79.06344 
L 377.101243 77.032644 
L 381.146033 77.22457 
L 385.190823 55.632233 
L 389.235613 69.510636 
L 393.280402 70.508544 
L 397.325192 72.332878 
L 400.601472 65.452994 
L 400.601472 87.323621 
L 400.601472 87.323621 
L 397.325192 79.619365 
L 393.280402 77.877896 
L 389.235613 78.224833 
L 385.190823 78.764419 
L 381.146033 83.271795 
L 377.101243 85.429844 
L 373.056453 83.351778 
L 369.011663 84.956437 
L 364.966873 90.804399 
L 360.922083 87.665383 
L 356.877293 85.65298 
L 352.832503 86.975536 
L 348.787713 84.177463 
L 344.742923 95.362791 
L 340.698133 85.752545 
L 336.653343 93.24596 
L 332.608553 90.44411 
L 328.563763 107.733662 
L 324.518973 92.664823 
L 320.474183 101.372994 
L 316.429393 103.734435 
L 312.384603 104.247123 
L 308.339813 105.282642 
L 304.295023 105.58428 
L 300.250233 110.178464 
L 296.205443 112.418574 
L 292.160653 108.861237 
L 288.115863 125.877205 
L 284.071073 118.943214 
L 280.026283 130.445127 
L 275.981494 125.058884 
L 271.936704 139.058625 
L 267.891914 146.064117 
L 263.847124 161.21606 
L 259.802334 155.901623 
L 255.757544 135.016375 
L 251.712754 167.797295 
L 247.667964 167.574176 
L 243.623174 182.650657 
L 239.578384 199.943621 
z
" clip-path="url(#p1c847166f5)" style="fill: #00cc96; fill-opacity: 0.2"/>
   </g>
   <g id="PolyCollection_10">
    <path d="M 239.578384 204.502895 
L 239.578384 174.466167 
L 243.623174 190.292052 
L 247.667964 185.359799 
L 251.712754 165.467201 
L 255.757544 165.327122 
L 259.802334 146.185456 
L 263.847124 138.685368 
L 267.891914 136.262766 
L 271.936704 123.245915 
L 275.981494 126.301476 
L 280.026283 117.196836 
L 284.071073 118.199998 
L 288.115863 110.777096 
L 292.160653 110.068697 
L 296.205443 91.970973 
L 300.250233 97.958138 
L 304.295023 90.693621 
L 308.339813 117.018552 
L 312.384603 94.753649 
L 316.429393 87.333571 
L 320.474183 83.613637 
L 324.518973 88.490574 
L 328.563763 94.267281 
L 332.608553 89.255577 
L 336.653343 85.630215 
L 340.698133 78.762444 
L 344.742923 85.401806 
L 348.787713 87.193701 
L 352.832503 90.009145 
L 356.877293 80.011877 
L 360.922083 78.697536 
L 364.966873 85.384903 
L 369.011663 84.357015 
L 373.056453 80.241713 
L 377.101243 77.954203 
L 381.146033 76.229259 
L 385.190823 86.568983 
L 389.235613 69.056529 
L 393.280402 73.138038 
L 397.325192 69.257788 
L 400.601472 63.18597 
L 400.601472 90.552917 
L 400.601472 90.552917 
L 397.325192 90.224886 
L 393.280402 92.23977 
L 389.235613 98.321987 
L 385.190823 101.249225 
L 381.146033 83.337522 
L 377.101243 90.855005 
L 373.056453 89.632496 
L 369.011663 92.37833 
L 364.966873 94.761107 
L 360.922083 85.187083 
L 356.877293 99.880071 
L 352.832503 98.286825 
L 348.787713 106.09093 
L 344.742923 105.247012 
L 340.698133 92.382121 
L 336.653343 96.84964 
L 332.608553 93.104426 
L 328.563763 117.673891 
L 324.518973 100.626339 
L 320.474183 112.34195 
L 316.429393 112.687278 
L 312.384603 113.828605 
L 308.339813 129.715896 
L 304.295023 113.629748 
L 300.250233 105.775291 
L 296.205443 109.574486 
L 292.160653 118.550782 
L 288.115863 128.679531 
L 284.071073 130.807192 
L 280.026283 136.277211 
L 275.981494 135.608647 
L 271.936704 131.121878 
L 267.891914 164.04535 
L 263.847124 163.590527 
L 259.802334 176.450789 
L 255.757544 171.763428 
L 251.712754 190.976577 
L 247.667964 200.625828 
L 243.623174 203.714816 
L 239.578384 204.502895 
z
" clip-path="url(#p1c847166f5)" style="fill: #ab63fa; fill-opacity: 0.2"/>
   </g>
   <g id="PolyCollection_11">
    <path d="M 239.578384 206.890909 
L 239.578384 196.214927 
L 243.623174 186.204401 
L 247.667964 165.35826 
L 251.712754 153.457629 
L 255.757544 136.841786 
L 259.802334 140.189622 
L 263.847124 138.367786 
L 267.891914 136.844373 
L 271.936704 119.441534 
L 275.981494 118.811439 
L 280.026283 101.266187 
L 284.071073 124.735415 
L 288.115863 108.902476 
L 292.160653 103.127198 
L 296.205443 99.216768 
L 300.250233 111.821888 
L 304.295023 104.578615 
L 308.339813 117.666938 
L 312.384603 100.561296 
L 316.429393 93.814597 
L 320.474183 102.950627 
L 324.518973 92.442099 
L 328.563763 99.336754 
L 332.608553 91.748259 
L 336.653343 95.032161 
L 340.698133 93.037332 
L 344.742923 91.601244 
L 348.787713 87.222974 
L 352.832503 94.576206 
L 356.877293 84.277027 
L 360.922083 92.755856 
L 364.966873 95.835983 
L 369.011663 95.977265 
L 373.056453 89.313183 
L 377.101243 89.893468 
L 381.146033 89.027902 
L 385.190823 79.098659 
L 389.235613 82.648683 
L 393.280402 86.679596 
L 397.325192 75.682528 
L 400.601472 82.741104 
L 400.601472 92.228966 
L 400.601472 92.228966 
L 397.325192 92.591273 
L 393.280402 91.216628 
L 389.235613 96.315954 
L 385.190823 96.455871 
L 381.146033 101.842715 
L 377.101243 93.096394 
L 373.056453 103.332799 
L 369.011663 102.942761 
L 364.966873 104.976587 
L 360.922083 101.890102 
L 356.877293 94.502262 
L 352.832503 112.334404 
L 348.787713 104.021386 
L 344.742923 106.846191 
L 340.698133 102.275391 
L 336.653343 114.701018 
L 332.608553 100.93965 
L 328.563763 108.572767 
L 324.518973 112.639101 
L 320.474183 119.304444 
L 316.429393 123.227451 
L 312.384603 117.685394 
L 308.339813 121.4704 
L 304.295023 133.321226 
L 300.250233 116.040053 
L 296.205443 134.341793 
L 292.160653 133.950076 
L 288.115863 134.557146 
L 284.071073 144.10535 
L 280.026283 140.047674 
L 275.981494 159.812586 
L 271.936704 161.126945 
L 267.891914 162.616966 
L 263.847124 167.979344 
L 259.802334 169.918336 
L 255.757544 173.778605 
L 251.712754 178.032858 
L 247.667964 192.439576 
L 243.623174 203.043791 
L 239.578384 206.890909 
z
" clip-path="url(#p1c847166f5)" style="fill: #ffa15a; fill-opacity: 0.2"/>
   </g>
   <g id="PolyCollection_12">
    <path d="M 239.578384 206.599234 
L 239.578384 201.138788 
L 243.623174 193.941531 
L 247.667964 196.22063 
L 251.712754 195.103603 
L 255.757544 187.938763 
L 259.802334 172.467375 
L 263.847124 163.834629 
L 267.891914 157.973137 
L 271.936704 156.645109 
L 275.981494 133.595624 
L 280.026283 143.450587 
L 284.071073 153.611115 
L 288.115863 132.96759 
L 292.160653 129.389442 
L 296.205443 127.036377 
L 300.250233 125.803996 
L 304.295023 128.551309 
L 308.339813 126.341637 
L 312.384603 125.193813 
L 316.429393 112.450376 
L 320.474183 122.092507 
L 324.518973 105.677385 
L 328.563763 114.944648 
L 332.608553 107.871285 
L 336.653343 107.537397 
L 340.698133 103.89506 
L 344.742923 110.757304 
L 348.787713 92.960604 
L 352.832503 88.976867 
L 356.877293 102.070883 
L 360.922083 99.956504 
L 364.966873 98.168213 
L 369.011663 91.090066 
L 373.056453 91.747368 
L 377.101243 85.474652 
L 381.146033 97.580211 
L 385.190823 94.075218 
L 389.235613 92.386653 
L 393.280402 89.401135 
L 397.325192 88.902478 
L 400.601472 100.808535 
L 400.601472 105.876328 
L 400.601472 105.876328 
L 397.325192 100.984441 
L 393.280402 109.611799 
L 389.235613 112.578065 
L 385.190823 112.125479 
L 381.146033 115.72698 
L 377.101243 116.46357 
L 373.056453 115.193442 
L 369.011663 117.184778 
L 364.966873 112.224595 
L 360.922083 115.592376 
L 356.877293 122.192109 
L 352.832503 113.427843 
L 348.787713 105.464327 
L 344.742923 117.12007 
L 340.698133 118.251818 
L 336.653343 126.026076 
L 332.608553 137.128477 
L 328.563763 133.05339 
L 324.518973 132.915462 
L 320.474183 130.772998 
L 316.429393 139.831492 
L 312.384603 136.463304 
L 308.339813 135.354562 
L 304.295023 137.635891 
L 300.250233 151.820539 
L 296.205443 138.212149 
L 292.160653 147.399554 
L 288.115863 166.112865 
L 284.071073 159.795408 
L 280.026283 158.351427 
L 275.981494 172.429043 
L 271.936704 189.020628 
L 267.891914 184.213809 
L 263.847124 189.451011 
L 259.802334 194.569674 
L 255.757544 192.897762 
L 251.712754 199.497973 
L 247.667964 199.543648 
L 243.623174 199.251778 
L 239.578384 206.599234 
z
" clip-path="url(#p1c847166f5)" style="fill: #19d3f3; fill-opacity: 0.2"/>
   </g>
   <g id="matplotlib.axis_7">
    <g id="xtick_14">
     <g id="line2d_26">
      <g>
       <use xlink:href="#md739749cf6" x="235.533594" y="216.4" style="stroke: #000000; stroke-width: 0.8"/>
      </g>
     </g>
     <g id="text_20">
      <!-- 0 -->
      <g transform="translate(232.352344 230.998437) scale(0.1 -0.1)">
       <use xlink:href="#DejaVuSerif-30"/>
      </g>
     </g>
    </g>
    <g id="xtick_15">
     <g id="line2d_27">
      <g>
       <use xlink:href="#md739749cf6" x="275.981494" y="216.4" style="stroke: #000000; stroke-width: 0.8"/>
      </g>
     </g>
     <g id="text_21">
      <!-- 1000 -->
      <g transform="translate(263.256494 230.998437) scale(0.1 -0.1)">
       <use xlink:href="#DejaVuSerif-31"/>
       <use xlink:href="#DejaVuSerif-30" x="63.623047"/>
       <use xlink:href="#DejaVuSerif-30" x="127.246094"/>
       <use xlink:href="#DejaVuSerif-30" x="190.869141"/>
      </g>
     </g>
    </g>
    <g id="xtick_16">
     <g id="line2d_28">
      <g>
       <use xlink:href="#md739749cf6" x="316.429393" y="216.4" style="stroke: #000000; stroke-width: 0.8"/>
      </g>
     </g>
     <g id="text_22">
      <!-- 2000 -->
      <g transform="translate(303.704393 230.998437) scale(0.1 -0.1)">
       <use xlink:href="#DejaVuSerif-32"/>
       <use xlink:href="#DejaVuSerif-30" x="63.623047"/>
       <use xlink:href="#DejaVuSerif-30" x="127.246094"/>
       <use xlink:href="#DejaVuSerif-30" x="190.869141"/>
      </g>
     </g>
    </g>
    <g id="xtick_17">
     <g id="line2d_29">
      <g>
       <use xlink:href="#md739749cf6" x="356.877293" y="216.4" style="stroke: #000000; stroke-width: 0.8"/>
      </g>
     </g>
     <g id="text_23">
      <!-- 3000 -->
      <g transform="translate(344.152293 230.998437) scale(0.1 -0.1)">
       <use xlink:href="#DejaVuSerif-33"/>
       <use xlink:href="#DejaVuSerif-30" x="63.623047"/>
       <use xlink:href="#DejaVuSerif-30" x="127.246094"/>
       <use xlink:href="#DejaVuSerif-30" x="190.869141"/>
      </g>
     </g>
    </g>
    <g id="xtick_18">
     <g id="line2d_30">
      <g>
       <use xlink:href="#md739749cf6" x="397.325192" y="216.4" style="stroke: #000000; stroke-width: 0.8"/>
      </g>
     </g>
     <g id="text_24">
      <!-- 4000 -->
      <g transform="translate(384.600192 230.998437) scale(0.1 -0.1)">
       <use xlink:href="#DejaVuSerif-34"/>
       <use xlink:href="#DejaVuSerif-30" x="63.623047"/>
       <use xlink:href="#DejaVuSerif-30" x="127.246094"/>
       <use xlink:href="#DejaVuSerif-30" x="190.869141"/>
      </g>
     </g>
    </g>
   </g>
   <g id="matplotlib.axis_8">
    <g id="ytick_7">
     <g id="line2d_31">
      <g>
       <use xlink:href="#me0aaa219f0" x="231.525612" y="187.090178" style="stroke: #000000; stroke-width: 0.8"/>
      </g>
     </g>
    </g>
    <g id="ytick_8">
     <g id="line2d_32">
      <g>
       <use xlink:href="#me0aaa219f0" x="231.525612" y="154.792267" style="stroke: #000000; stroke-width: 0.8"/>
      </g>
     </g>
    </g>
    <g id="ytick_9">
     <g id="line2d_33">
      <g>
       <use xlink:href="#me0aaa219f0" x="231.525612" y="122.494356" style="stroke: #000000; stroke-width: 0.8"/>
      </g>
     </g>
    </g>
    <g id="ytick_10">
     <g id="line2d_34">
      <g>
       <use xlink:href="#me0aaa219f0" x="231.525612" y="90.196445" style="stroke: #000000; stroke-width: 0.8"/>
      </g>
     </g>
    </g>
    <g id="ytick_11">
     <g id="line2d_35">
      <g>
       <use xlink:href="#me0aaa219f0" x="231.525612" y="57.898534" style="stroke: #000000; stroke-width: 0.8"/>
      </g>
     </g>
    </g>
    <g id="ytick_12">
     <g id="line2d_36">
      <g>
       <use xlink:href="#me0aaa219f0" x="231.525612" y="25.600623" style="stroke: #000000; stroke-width: 0.8"/>
      </g>
     </g>
    </g>
   </g>
   <g id="line2d_37">
    <path d="M 239.578384 169.865176 
L 243.623174 186.692162 
L 247.667964 177.860113 
L 251.712754 171.37755 
L 255.757544 160.233828 
L 259.802334 143.395925 
L 263.847124 143.914941 
L 267.891914 135.280681 
L 271.936704 136.969494 
L 275.981494 136.11001 
L 280.026283 134.701252 
L 284.071073 136.214141 
L 288.115863 118.165065 
L 292.160653 122.58475 
L 296.205443 124.419702 
L 300.250233 118.300407 
L 304.295023 115.89265 
L 308.339813 119.896829 
L 312.384603 108.765182 
L 316.429393 115.524035 
L 320.474183 112.633667 
L 324.518973 110.439848 
L 328.563763 106.434841 
L 332.608553 112.454051 
L 336.653343 106.274196 
L 340.698133 102.528384 
L 344.742923 110.373717 
L 348.787713 99.081091 
L 352.832503 98.366465 
L 356.877293 105.479406 
L 360.922083 100.747735 
L 364.966873 99.543047 
L 369.011663 97.452595 
L 373.056453 89.66711 
L 377.101243 89.818359 
L 381.146033 91.59494 
L 385.190823 94.853635 
L 389.235613 93.401243 
L 393.280402 92.623313 
L 397.325192 90.855865 
L 400.633831 88.721489 
" clip-path="url(#p1c847166f5)" style="fill: none; stroke: #636efa; stroke-width: 1.5; stroke-linecap: square"/>
   </g>
   <g id="line2d_38">
    <path d="M 239.578384 200.484522 
L 243.623174 186.029846 
L 247.667964 184.761664 
L 251.712754 182.534974 
L 255.757544 176.467058 
L 259.802334 170.057397 
L 263.847124 162.740302 
L 267.891914 157.276438 
L 271.936704 151.302964 
L 275.981494 153.283575 
L 280.026283 148.06965 
L 284.071073 137.699055 
L 288.115863 132.296926 
L 292.160653 130.283223 
L 296.205443 122.092458 
L 300.250233 120.178457 
L 304.295023 118.960647 
L 308.339813 120.547448 
L 312.384603 117.628504 
L 316.429393 118.661451 
L 320.474183 116.602874 
L 324.518973 115.432061 
L 328.563763 115.103382 
L 332.608553 114.661799 
L 336.653343 113.866763 
L 340.698133 113.541386 
L 344.742923 112.108281 
L 348.787713 110.509211 
L 352.832503 109.590991 
L 356.877293 110.487208 
L 360.922083 108.325623 
L 364.966873 106.950932 
L 369.011663 107.262114 
L 373.056453 104.627119 
L 377.101243 105.809261 
L 381.146033 105.159823 
L 385.190823 102.922469 
L 389.235613 102.970832 
L 393.280402 102.005353 
L 397.325192 102.033556 
L 400.633831 101.21737 
" clip-path="url(#p1c847166f5)" style="fill: none; stroke: #ef553b; stroke-width: 1.5; stroke-linecap: square"/>
   </g>
   <g id="line2d_39">
    <path d="M 239.578384 191.498301 
L 243.623174 171.479141 
L 247.667964 161.818238 
L 251.712754 156.370467 
L 255.757544 137.380356 
L 259.802334 137.321943 
L 263.847124 130.899452 
L 267.891914 121.343053 
L 271.936704 121.510478 
L 275.981494 114.305366 
L 280.026283 120.077468 
L 284.071073 108.779953 
L 288.115863 108.971357 
L 292.160653 103.006218 
L 296.205443 103.26001 
L 300.250233 100.400735 
L 304.295023 101.403999 
L 308.339813 96.738457 
L 312.384603 95.574133 
L 316.429393 91.841044 
L 320.474183 92.632675 
L 324.518973 88.688523 
L 328.563763 92.625224 
L 332.608553 87.935273 
L 336.653343 86.292523 
L 340.698133 85.356171 
L 344.742923 84.167852 
L 348.787713 80.312896 
L 352.832503 79.943956 
L 356.877293 81.799779 
L 360.922083 81.70335 
L 364.966873 76.922081 
L 369.011663 79.911454 
L 373.056453 75.660729 
L 377.101243 81.067865 
L 381.146033 75.678793 
L 385.190823 69.059665 
L 389.235613 74.12244 
L 393.280402 74.37059 
L 397.325192 70.424462 
L 400.601472 75.174576 
" clip-path="url(#p1c847166f5)" style="fill: none; stroke: #00cc96; stroke-width: 1.5; stroke-linecap: square"/>
   </g>
   <g id="line2d_40">
    <path d="M 239.578384 168.392048 
L 243.623174 195.730963 
L 247.667964 190.1238 
L 251.712754 178.12992 
L 255.757544 164.812526 
L 259.802334 154.327565 
L 263.847124 144.705668 
L 267.891914 149.156528 
L 271.936704 124.474182 
L 275.981494 125.141306 
L 280.026283 123.175371 
L 284.071073 113.554104 
L 288.115863 114.68233 
L 292.160653 110.580226 
L 296.205443 99.978552 
L 300.250233 99.118029 
L 304.295023 99.433814 
L 308.339813 117.905729 
L 312.384603 99.898178 
L 316.429393 95.985016 
L 320.474183 98.788119 
L 324.518973 94.667266 
L 328.563763 101.013839 
L 332.608553 93.063355 
L 336.653343 91.538903 
L 340.698133 90.125442 
L 344.742923 93.297672 
L 348.787713 92.015046 
L 352.832503 91.371647 
L 356.877293 87.901918 
L 360.922083 79.478556 
L 364.966873 85.317835 
L 369.011663 84.978349 
L 373.056453 80.606991 
L 377.101243 82.464762 
L 381.146033 78.204828 
L 385.190823 86.914041 
L 389.235613 80.527606 
L 393.280402 78.216808 
L 397.325192 78.355093 
L 400.601472 75.806565 
" clip-path="url(#p1c847166f5)" style="fill: none; stroke: #ab63fa; stroke-width: 1.5; stroke-linecap: square"/>
   </g>
   <g id="line2d_41">
    <path d="M 239.578384 197.096662 
L 243.623174 195.396651 
L 247.667964 177.555276 
L 251.712754 167.154411 
L 255.757544 157.192946 
L 259.802334 152.528995 
L 263.847124 150.510508 
L 267.891914 148.887362 
L 271.936704 142.802377 
L 275.981494 133.548563 
L 280.026283 118.470059 
L 284.071073 126.506509 
L 288.115863 120.903142 
L 292.160653 117.791276 
L 296.205443 117.00604 
L 300.250233 109.926417 
L 304.295023 115.998776 
L 308.339813 116.946329 
L 312.384603 107.979717 
L 316.429393 106.497537 
L 320.474183 108.145865 
L 324.518973 105.206038 
L 328.563763 104.972969 
L 332.608553 97.515186 
L 336.653343 104.849144 
L 340.698133 97.666594 
L 344.742923 96.610911 
L 348.787713 99.350388 
L 352.832503 98.401505 
L 356.877293 88.848042 
L 360.922083 97.014458 
L 364.966873 95.723342 
L 369.011663 93.98884 
L 373.056453 92.878732 
L 377.101243 88.135123 
L 381.146033 90.688659 
L 385.190823 86.559713 
L 389.235613 89.485615 
L 393.280402 84.370012 
L 397.325192 84.069352 
L 400.601472 84.409082 
" clip-path="url(#p1c847166f5)" style="fill: none; stroke: #ffa15a; stroke-width: 1.5; stroke-linecap: square"/>
   </g>
   <g id="line2d_42">
    <path d="M 239.578384 203.119795 
L 243.623174 196.175736 
L 247.667964 197.033778 
L 251.712754 196.335146 
L 255.757544 189.980999 
L 259.802334 182.54016 
L 263.847124 169.86407 
L 267.891914 170.806806 
L 271.936704 174.85248 
L 275.981494 155.452781 
L 280.026283 156.533996 
L 284.071073 158.203285 
L 288.115863 150.861443 
L 292.160653 138.441268 
L 296.205443 130.382275 
L 300.250233 137.027195 
L 304.295023 133.92831 
L 308.339813 130.968713 
L 312.384603 131.306865 
L 316.429393 126.269965 
L 320.474183 126.551177 
L 324.518973 120.625184 
L 328.563763 118.019834 
L 332.608553 117.663881 
L 336.653343 112.035006 
L 340.698133 108.35804 
L 344.742923 113.44684 
L 348.787713 105.112693 
L 352.832503 97.656602 
L 356.877293 110.221095 
L 360.922083 107.956627 
L 364.966873 104.419936 
L 369.011663 104.818702 
L 373.056453 101.502263 
L 377.101243 103.340781 
L 381.146033 102.281852 
L 385.190823 106.82695 
L 389.235613 100.799688 
L 393.280402 102.382507 
L 397.325192 94.614643 
L 400.601472 98.760105 
" clip-path="url(#p1c847166f5)" style="fill: none; stroke: #19d3f3; stroke-width: 1.5; stroke-linecap: square"/>
   </g>
   <g id="patch_12">
    <path d="M 231.525612 216.4 
L 231.525612 7.2 
" style="fill: none; stroke: #000000; stroke-width: 0.8; stroke-linejoin: miter; stroke-linecap: square"/>
   </g>
   <g id="patch_13">
    <path d="M 408.686603 216.4 
L 408.686603 7.2 
" style="fill: none; stroke: #000000; stroke-width: 0.8; stroke-linejoin: miter; stroke-linecap: square"/>
   </g>
   <g id="patch_14">
    <path d="M 231.525612 216.4 
L 408.686603 216.4 
" style="fill: none; stroke: #000000; stroke-width: 0.8; stroke-linejoin: miter; stroke-linecap: square"/>
   </g>
   <g id="patch_15">
    <path d="M 231.525612 7.2 
L 408.686603 7.2 
" style="fill: none; stroke: #000000; stroke-width: 0.8; stroke-linejoin: miter; stroke-linecap: square"/>
   </g>
  </g>
  <g id="text_25">
   <!-- N samples -->
   <g transform="translate(180.660313 261.944375) scale(0.12 -0.12)">
    <defs>
     <path id="DejaVuSerif-4e" d="M 313 0 
L 313 331 
L 941 331 
L 941 4331 
L 313 4331 
L 313 4666 
L 1509 4666 
L 4306 984 
L 4306 4331 
L 3681 4331 
L 3681 4666 
L 5319 4666 
L 5319 4331 
L 4691 4331 
L 4691 -91 
L 4313 -91 
L 1325 3841 
L 1325 331 
L 1953 331 
L 1953 0 
L 313 0 
z
" transform="scale(0.015625)"/>
     <path id="DejaVuSerif-20" transform="scale(0.015625)"/>
     <path id="DejaVuSerif-73" d="M 359 184 
L 359 959 
L 691 959 
Q 703 588 923 403 
Q 1144 219 1575 219 
Q 1963 219 2166 364 
Q 2369 509 2369 788 
Q 2369 1006 2220 1140 
Q 2072 1275 1594 1428 
L 1178 1569 
Q 750 1706 558 1912 
Q 366 2119 366 2438 
Q 366 2894 700 3153 
Q 1034 3413 1625 3413 
Q 1888 3413 2178 3344 
Q 2469 3275 2778 3144 
L 2778 2419 
L 2447 2419 
Q 2434 2741 2221 2922 
Q 2009 3103 1644 3103 
Q 1281 3103 1095 2975 
Q 909 2847 909 2591 
Q 909 2381 1050 2254 
Q 1191 2128 1613 1997 
L 2069 1856 
Q 2541 1709 2748 1489 
Q 2956 1269 2956 922 
Q 2956 450 2595 179 
Q 2234 -91 1600 -91 
Q 1278 -91 972 -22 
Q 666 47 359 184 
z
" transform="scale(0.015625)"/>
     <path id="DejaVuSerif-61" d="M 2547 1044 
L 2547 1747 
L 1806 1747 
Q 1378 1747 1168 1562 
Q 959 1378 959 997 
Q 959 650 1171 447 
Q 1384 244 1747 244 
Q 2106 244 2326 466 
Q 2547 688 2547 1044 
z
M 3122 2075 
L 3122 331 
L 3634 331 
L 3634 0 
L 2547 0 
L 2547 359 
Q 2356 128 2106 18 
Q 1856 -91 1522 -91 
Q 969 -91 644 203 
Q 319 497 319 997 
Q 319 1513 691 1797 
Q 1063 2081 1741 2081 
L 2547 2081 
L 2547 2309 
Q 2547 2688 2317 2895 
Q 2088 3103 1672 3103 
Q 1328 3103 1125 2947 
Q 922 2791 872 2484 
L 575 2484 
L 575 3156 
Q 875 3284 1158 3348 
Q 1441 3413 1709 3413 
Q 2400 3413 2761 3070 
Q 3122 2728 3122 2075 
z
" transform="scale(0.015625)"/>
     <path id="DejaVuSerif-6d" d="M 3316 2675 
Q 3481 3041 3739 3227 
Q 3997 3413 4341 3413 
Q 4863 3413 5119 3089 
Q 5375 2766 5375 2113 
L 5375 331 
L 5894 331 
L 5894 0 
L 4300 0 
L 4300 331 
L 4800 331 
L 4800 2047 
Q 4800 2556 4650 2772 
Q 4500 2988 4153 2988 
Q 3769 2988 3567 2697 
Q 3366 2406 3366 1850 
L 3366 331 
L 3866 331 
L 3866 0 
L 2291 0 
L 2291 331 
L 2791 331 
L 2791 2069 
Q 2791 2566 2641 2777 
Q 2491 2988 2144 2988 
Q 1759 2988 1557 2697 
Q 1356 2406 1356 1850 
L 1356 331 
L 1856 331 
L 1856 0 
L 263 0 
L 263 331 
L 781 331 
L 781 2994 
L 231 2994 
L 231 3322 
L 1356 3322 
L 1356 2731 
Q 1516 3063 1762 3238 
Q 2009 3413 2322 3413 
Q 2709 3413 2968 3220 
Q 3228 3028 3316 2675 
z
" transform="scale(0.015625)"/>
     <path id="DejaVuSerif-70" d="M 1313 1825 
L 1313 1497 
Q 1313 897 1542 583 
Q 1772 269 2209 269 
Q 2650 269 2876 622 
Q 3103 975 3103 1663 
Q 3103 2353 2876 2703 
Q 2650 3053 2209 3053 
Q 1772 3053 1542 2737 
Q 1313 2422 1313 1825 
z
M 738 2988 
L 184 2988 
L 184 3322 
L 1313 3322 
L 1313 2803 
Q 1481 3116 1742 3264 
Q 2003 3413 2388 3413 
Q 3000 3413 3387 2928 
Q 3775 2444 3775 1663 
Q 3775 881 3387 395 
Q 3000 -91 2388 -91 
Q 2003 -91 1742 57 
Q 1481 206 1313 519 
L 1313 -997 
L 1856 -997 
L 1856 -1331 
L 184 -1331 
L 184 -997 
L 738 -997 
L 738 2988 
z
" transform="scale(0.015625)"/>
     <path id="DejaVuSerif-6c" d="M 1313 331 
L 1856 331 
L 1856 0 
L 184 0 
L 184 331 
L 738 331 
L 738 4531 
L 184 4531 
L 184 4863 
L 1313 4863 
L 1313 331 
z
" transform="scale(0.015625)"/>
     <path id="DejaVuSerif-65" d="M 3469 1600 
L 991 1600 
L 991 1575 
Q 991 903 1244 561 
Q 1497 219 1991 219 
Q 2369 219 2611 417 
Q 2853 616 2950 1006 
L 3413 1006 
Q 3275 459 2904 184 
Q 2534 -91 1931 -91 
Q 1203 -91 761 389 
Q 319 869 319 1663 
Q 319 2450 753 2931 
Q 1188 3413 1894 3413 
Q 2647 3413 3050 2948 
Q 3453 2484 3469 1600 
z
M 2791 1931 
Q 2772 2513 2545 2808 
Q 2319 3103 1894 3103 
Q 1497 3103 1269 2806 
Q 1041 2509 991 1931 
L 2791 1931 
z
" transform="scale(0.015625)"/>
    </defs>
    <use xlink:href="#DejaVuSerif-4e"/>
    <use xlink:href="#DejaVuSerif-20" x="87.5"/>
    <use xlink:href="#DejaVuSerif-73" x="119.287109"/>
    <use xlink:href="#DejaVuSerif-61" x="170.605469"/>
    <use xlink:href="#DejaVuSerif-6d" x="230.224609"/>
    <use xlink:href="#DejaVuSerif-70" x="325.048828"/>
    <use xlink:href="#DejaVuSerif-6c" x="389.0625"/>
    <use xlink:href="#DejaVuSerif-65" x="421.044922"/>
    <use xlink:href="#DejaVuSerif-73" x="480.224609"/>
   </g>
  </g>
  <g id="legend_1">
   <g id="patch_16">
    <path d="M 51.55 319.92 
L 373.55625 319.92 
Q 375.55625 319.92 375.55625 317.92 
L 375.55625 274.743437 
Q 375.55625 272.743437 373.55625 272.743437 
L 51.55 272.743437 
Q 49.55 272.743437 49.55 274.743437 
L 49.55 317.92 
Q 49.55 319.92 51.55 319.92 
z
" style="fill: #ffffff; opacity: 0.8; stroke: #cccccc; stroke-linejoin: miter"/>
   </g>
   <g id="text_26">
    <!-- Models -->
    <g transform="translate(194.098437 284.341875) scale(0.1 -0.1)">
     <defs>
      <path id="DejaVuSerif-4d" d="M 353 0 
L 353 331 
L 947 331 
L 947 4331 
L 319 4331 
L 319 4666 
L 1678 4666 
L 3316 1344 
L 4953 4666 
L 6228 4666 
L 6228 4331 
L 5606 4331 
L 5606 331 
L 6203 331 
L 6203 0 
L 4378 0 
L 4378 331 
L 4972 331 
L 4972 3938 
L 3372 684 
L 2931 684 
L 1331 3938 
L 1331 331 
L 1925 331 
L 1925 0 
L 353 0 
z
" transform="scale(0.015625)"/>
      <path id="DejaVuSerif-6f" d="M 1925 219 
Q 2388 219 2623 584 
Q 2859 950 2859 1663 
Q 2859 2375 2623 2739 
Q 2388 3103 1925 3103 
Q 1463 3103 1227 2739 
Q 991 2375 991 1663 
Q 991 950 1228 584 
Q 1466 219 1925 219 
z
M 1925 -91 
Q 1200 -91 759 389 
Q 319 869 319 1663 
Q 319 2456 758 2934 
Q 1197 3413 1925 3413 
Q 2653 3413 3092 2934 
Q 3531 2456 3531 1663 
Q 3531 869 3092 389 
Q 2653 -91 1925 -91 
z
" transform="scale(0.015625)"/>
      <path id="DejaVuSerif-64" d="M 3359 331 
L 3909 331 
L 3909 0 
L 2784 0 
L 2784 519 
Q 2616 206 2355 57 
Q 2094 -91 1709 -91 
Q 1097 -91 708 395 
Q 319 881 319 1663 
Q 319 2444 706 2928 
Q 1094 3413 1709 3413 
Q 2094 3413 2355 3264 
Q 2616 3116 2784 2803 
L 2784 4531 
L 2241 4531 
L 2241 4863 
L 3359 4863 
L 3359 331 
z
M 2784 1497 
L 2784 1825 
Q 2784 2422 2554 2737 
Q 2325 3053 1888 3053 
Q 1444 3053 1217 2703 
Q 991 2353 991 1663 
Q 991 975 1217 622 
Q 1444 269 1888 269 
Q 2325 269 2554 583 
Q 2784 897 2784 1497 
z
" transform="scale(0.015625)"/>
     </defs>
     <use xlink:href="#DejaVuSerif-4d"/>
     <use xlink:href="#DejaVuSerif-6f" x="102.392578"/>
     <use xlink:href="#DejaVuSerif-64" x="162.597656"/>
     <use xlink:href="#DejaVuSerif-65" x="226.611328"/>
     <use xlink:href="#DejaVuSerif-6c" x="285.791016"/>
     <use xlink:href="#DejaVuSerif-73" x="317.773438"/>
    </g>
   </g>
   <g id="line2d_43">
    <path d="M 53.55 295.52 
L 63.55 295.52 
L 73.55 295.52 
" style="fill: none; stroke: #636efa; stroke-width: 1.5; stroke-linecap: square"/>
   </g>
   <g id="text_27">
    <!-- XGBoost -->
    <g transform="translate(81.55 299.02) scale(0.1 -0.1)">
     <defs>
      <path id="DejaVuSerif-58" d="M 2119 1997 
L 978 331 
L 1581 331 
L 1581 0 
L 38 0 
L 38 331 
L 575 331 
L 1919 2291 
L 556 4331 
L 56 4331 
L 56 4666 
L 1906 4666 
L 1906 4331 
L 1356 4331 
L 2356 2828 
L 3384 4331 
L 2784 4331 
L 2784 4666 
L 4313 4666 
L 4313 4331 
L 3788 4331 
L 2553 2534 
L 4025 331 
L 4525 331 
L 4525 0 
L 2675 0 
L 2675 331 
L 3231 331 
L 2119 1997 
z
" transform="scale(0.015625)"/>
      <path id="DejaVuSerif-47" d="M 4097 3272 
Q 3988 3856 3641 4136 
Q 3294 4416 2675 4416 
Q 1869 4416 1472 3897 
Q 1075 3378 1075 2328 
Q 1075 1300 1484 772 
Q 1894 244 2688 244 
Q 3041 244 3362 331 
Q 3684 419 3975 594 
L 3975 1797 
L 3097 1797 
L 3097 2131 
L 4609 2131 
L 4609 391 
Q 4194 150 3714 29 
Q 3234 -91 2688 -91 
Q 1631 -91 995 570 
Q 359 1231 359 2328 
Q 359 3434 996 4092 
Q 1634 4750 2713 4750 
Q 3113 4750 3539 4658 
Q 3966 4566 4447 4378 
L 4447 3272 
L 4097 3272 
z
" transform="scale(0.015625)"/>
      <path id="DejaVuSerif-42" d="M 1581 331 
L 2516 331 
Q 3078 331 3337 575 
Q 3597 819 3597 1350 
Q 3597 1878 3339 2120 
Q 3081 2363 2516 2363 
L 1581 2363 
L 1581 331 
z
M 1581 2694 
L 2375 2694 
Q 2888 2694 3123 2891 
Q 3359 3088 3359 3513 
Q 3359 3941 3123 4136 
Q 2888 4331 2375 4331 
L 1581 4331 
L 1581 2694 
z
M 353 0 
L 353 331 
L 947 331 
L 947 4331 
L 353 4331 
L 353 4666 
L 2656 4666 
Q 3363 4666 3720 4377 
Q 4078 4088 4078 3513 
Q 4078 3097 3829 2850 
Q 3581 2603 3103 2547 
Q 3697 2472 4005 2167 
Q 4313 1863 4313 1350 
Q 4313 656 3875 328 
Q 3438 0 2509 0 
L 353 0 
z
" transform="scale(0.015625)"/>
      <path id="DejaVuSerif-74" d="M 691 2988 
L 184 2988 
L 184 3322 
L 691 3322 
L 691 4353 
L 1269 4353 
L 1269 3322 
L 2350 3322 
L 2350 2988 
L 1269 2988 
L 1269 878 
Q 1269 456 1350 337 
Q 1431 219 1650 219 
Q 1875 219 1978 351 
Q 2081 484 2088 781 
L 2522 781 
Q 2497 328 2275 118 
Q 2053 -91 1600 -91 
Q 1103 -91 897 129 
Q 691 350 691 878 
L 691 2988 
z
" transform="scale(0.015625)"/>
     </defs>
     <use xlink:href="#DejaVuSerif-58"/>
     <use xlink:href="#DejaVuSerif-47" x="71.191406"/>
     <use xlink:href="#DejaVuSerif-42" x="151.074219"/>
     <use xlink:href="#DejaVuSerif-6f" x="224.560547"/>
     <use xlink:href="#DejaVuSerif-6f" x="284.765625"/>
     <use xlink:href="#DejaVuSerif-73" x="344.970703"/>
     <use xlink:href="#DejaVuSerif-74" x="396.289062"/>
    </g>
   </g>
   <g id="line2d_44">
    <path d="M 53.55 310.198125 
L 63.55 310.198125 
L 73.55 310.198125 
" style="fill: none; stroke: #ef553b; stroke-width: 1.5; stroke-linecap: square"/>
   </g>
   <g id="text_28">
    <!-- LR -->
    <g transform="translate(81.55 313.698125) scale(0.1 -0.1)">
     <defs>
      <path id="DejaVuSerif-4c" d="M 353 0 
L 353 331 
L 947 331 
L 947 4331 
L 353 4331 
L 353 4666 
L 2175 4666 
L 2175 4331 
L 1581 4331 
L 1581 384 
L 3713 384 
L 3713 1166 
L 4097 1166 
L 4097 0 
L 353 0 
z
" transform="scale(0.015625)"/>
      <path id="DejaVuSerif-52" d="M 3066 2316 
Q 3284 2256 3442 2114 
Q 3600 1972 3725 1716 
L 4403 331 
L 4972 331 
L 4972 0 
L 3872 0 
L 3144 1484 
Q 2934 1916 2759 2042 
Q 2584 2169 2278 2169 
L 1581 2169 
L 1581 331 
L 2241 331 
L 2241 0 
L 353 0 
L 353 331 
L 947 331 
L 947 4331 
L 353 4331 
L 353 4666 
L 2719 4666 
Q 3400 4666 3770 4341 
Q 4141 4016 4141 3419 
Q 4141 2938 3870 2661 
Q 3600 2384 3066 2316 
z
M 1581 2503 
L 2503 2503 
Q 2975 2503 3200 2726 
Q 3425 2950 3425 3419 
Q 3425 3888 3200 4109 
Q 2975 4331 2503 4331 
L 1581 4331 
L 1581 2503 
z
" transform="scale(0.015625)"/>
     </defs>
     <use xlink:href="#DejaVuSerif-4c"/>
     <use xlink:href="#DejaVuSerif-52" x="66.40625"/>
    </g>
   </g>
   <g id="line2d_45">
    <path d="M 145.196875 295.52 
L 155.196875 295.52 
L 165.196875 295.52 
" style="fill: none; stroke: #00cc96; stroke-width: 1.5; stroke-linecap: square"/>
   </g>
   <g id="text_29">
    <!-- MLP -->
    <g transform="translate(173.196875 299.02) scale(0.1 -0.1)">
     <defs>
      <path id="DejaVuSerif-50" d="M 1581 2375 
L 2406 2375 
Q 2872 2375 3115 2626 
Q 3359 2878 3359 3353 
Q 3359 3831 3115 4081 
Q 2872 4331 2406 4331 
L 1581 4331 
L 1581 2375 
z
M 353 0 
L 353 331 
L 947 331 
L 947 4331 
L 353 4331 
L 353 4666 
L 2559 4666 
Q 3259 4666 3668 4311 
Q 4078 3956 4078 3353 
Q 4078 2753 3668 2397 
Q 3259 2041 2559 2041 
L 1581 2041 
L 1581 331 
L 2303 331 
L 2303 0 
L 353 0 
z
" transform="scale(0.015625)"/>
     </defs>
     <use xlink:href="#DejaVuSerif-4d"/>
     <use xlink:href="#DejaVuSerif-4c" x="102.392578"/>
     <use xlink:href="#DejaVuSerif-50" x="168.798828"/>
    </g>
   </g>
   <g id="line2d_46">
    <path d="M 145.196875 310.198125 
L 155.196875 310.198125 
L 165.196875 310.198125 
" style="fill: none; stroke: #ab63fa; stroke-width: 1.5; stroke-linecap: square"/>
   </g>
   <g id="text_30">
    <!-- DeepDDS GCN -->
    <g transform="translate(173.196875 313.698125) scale(0.1 -0.1)">
     <defs>
      <path id="DejaVuSerif-44" d="M 1581 331 
L 2163 331 
Q 3072 331 3558 850 
Q 4044 1369 4044 2338 
Q 4044 3306 3559 3818 
Q 3075 4331 2163 4331 
L 1581 4331 
L 1581 331 
z
M 353 0 
L 353 331 
L 947 331 
L 947 4331 
L 353 4331 
L 353 4666 
L 2209 4666 
Q 3416 4666 4089 4050 
Q 4763 3434 4763 2338 
Q 4763 1238 4088 619 
Q 3413 0 2209 0 
L 353 0 
z
" transform="scale(0.015625)"/>
      <path id="DejaVuSerif-53" d="M 594 225 
L 594 1288 
L 953 1284 
Q 969 753 1261 498 
Q 1553 244 2150 244 
Q 2706 244 2998 464 
Q 3291 684 3291 1106 
Q 3291 1444 3114 1625 
Q 2938 1806 2369 1978 
L 1753 2163 
Q 1084 2366 811 2669 
Q 538 2972 538 3500 
Q 538 4094 959 4422 
Q 1381 4750 2144 4750 
Q 2469 4750 2856 4679 
Q 3244 4609 3681 4475 
L 3681 3481 
L 3328 3481 
Q 3275 3975 2998 4195 
Q 2722 4416 2156 4416 
Q 1663 4416 1405 4214 
Q 1147 4013 1147 3628 
Q 1147 3294 1340 3103 
Q 1534 2913 2163 2725 
L 2741 2553 
Q 3375 2363 3645 2067 
Q 3916 1772 3916 1275 
Q 3916 597 3481 253 
Q 3047 -91 2188 -91 
Q 1803 -91 1404 -12 
Q 1006 66 594 225 
z
" transform="scale(0.015625)"/>
      <path id="DejaVuSerif-43" d="M 4513 1234 
Q 4306 581 3820 245 
Q 3334 -91 2591 -91 
Q 2134 -91 1743 65 
Q 1353 222 1050 525 
Q 700 875 529 1320 
Q 359 1766 359 2328 
Q 359 3416 987 4083 
Q 1616 4750 2644 4750 
Q 3025 4750 3456 4650 
Q 3888 4550 4384 4347 
L 4384 3272 
L 4031 3272 
Q 3916 3859 3567 4137 
Q 3219 4416 2591 4416 
Q 1844 4416 1459 3886 
Q 1075 3356 1075 2328 
Q 1075 1303 1459 773 
Q 1844 244 2591 244 
Q 3113 244 3450 492 
Q 3788 741 3938 1234 
L 4513 1234 
z
" transform="scale(0.015625)"/>
     </defs>
     <use xlink:href="#DejaVuSerif-44"/>
     <use xlink:href="#DejaVuSerif-65" x="80.175781"/>
     <use xlink:href="#DejaVuSerif-65" x="139.355469"/>
     <use xlink:href="#DejaVuSerif-70" x="198.535156"/>
     <use xlink:href="#DejaVuSerif-44" x="262.548828"/>
     <use xlink:href="#DejaVuSerif-44" x="342.724609"/>
     <use xlink:href="#DejaVuSerif-53" x="422.900391"/>
     <use xlink:href="#DejaVuSerif-20" x="491.40625"/>
     <use xlink:href="#DejaVuSerif-47" x="523.193359"/>
     <use xlink:href="#DejaVuSerif-43" x="603.076172"/>
     <use xlink:href="#DejaVuSerif-4e" x="679.589844"/>
    </g>
   </g>
   <g id="line2d_47">
    <path d="M 269.90625 295.52 
L 279.90625 295.52 
L 289.90625 295.52 
" style="fill: none; stroke: #ffa15a; stroke-width: 1.5; stroke-linecap: square"/>
   </g>
   <g id="text_31">
    <!-- DeepDDS GAT -->
    <g transform="translate(297.90625 299.02) scale(0.1 -0.1)">
     <defs>
      <path id="DejaVuSerif-41" d="M 1281 1691 
L 2994 1691 
L 2138 3909 
L 1281 1691 
z
M -38 0 
L -38 331 
L 372 331 
L 2034 4666 
L 2559 4666 
L 4225 331 
L 4684 331 
L 4684 0 
L 2988 0 
L 2988 331 
L 3506 331 
L 3116 1356 
L 1153 1356 
L 763 331 
L 1275 331 
L 1275 0 
L -38 0 
z
" transform="scale(0.015625)"/>
      <path id="DejaVuSerif-54" d="M 1222 0 
L 1222 331 
L 1819 331 
L 1819 4294 
L 447 4294 
L 447 3566 
L 63 3566 
L 63 4666 
L 4206 4666 
L 4206 3566 
L 3822 3566 
L 3822 4294 
L 2450 4294 
L 2450 331 
L 3047 331 
L 3047 0 
L 1222 0 
z
" transform="scale(0.015625)"/>
     </defs>
     <use xlink:href="#DejaVuSerif-44"/>
     <use xlink:href="#DejaVuSerif-65" x="80.175781"/>
     <use xlink:href="#DejaVuSerif-65" x="139.355469"/>
     <use xlink:href="#DejaVuSerif-70" x="198.535156"/>
     <use xlink:href="#DejaVuSerif-44" x="262.548828"/>
     <use xlink:href="#DejaVuSerif-44" x="342.724609"/>
     <use xlink:href="#DejaVuSerif-53" x="422.900391"/>
     <use xlink:href="#DejaVuSerif-20" x="491.40625"/>
     <use xlink:href="#DejaVuSerif-47" x="523.193359"/>
     <use xlink:href="#DejaVuSerif-41" x="603.076172"/>
     <use xlink:href="#DejaVuSerif-54" x="669.792969"/>
    </g>
   </g>
   <g id="line2d_48">
    <path d="M 269.90625 310.198125 
L 279.90625 310.198125 
L 289.90625 310.198125 
" style="fill: none; stroke: #19d3f3; stroke-width: 1.5; stroke-linecap: square"/>
   </g>
   <g id="text_32">
    <!-- DTSyn -->
    <g transform="translate(297.90625 313.698125) scale(0.1 -0.1)">
     <defs>
      <path id="DejaVuSerif-79" d="M 1381 -609 
L 1600 -56 
L 359 2988 
L -19 2988 
L -19 3322 
L 1509 3322 
L 1509 2988 
L 978 2988 
L 1913 703 
L 2847 2988 
L 2350 2988 
L 2350 3322 
L 3597 3322 
L 3597 2988 
L 3225 2988 
L 1703 -750 
Q 1547 -1138 1356 -1280 
Q 1166 -1422 819 -1422 
Q 672 -1422 517 -1397 
Q 363 -1372 206 -1325 
L 206 -691 
L 500 -691 
Q 519 -903 608 -995 
Q 697 -1088 884 -1088 
Q 1056 -1088 1161 -992 
Q 1266 -897 1381 -609 
z
" transform="scale(0.015625)"/>
      <path id="DejaVuSerif-6e" d="M 263 0 
L 263 331 
L 781 331 
L 781 2988 
L 231 2988 
L 231 3322 
L 1356 3322 
L 1356 2731 
Q 1516 3069 1770 3241 
Q 2025 3413 2363 3413 
Q 2913 3413 3172 3097 
Q 3431 2781 3431 2113 
L 3431 331 
L 3944 331 
L 3944 0 
L 2356 0 
L 2356 331 
L 2853 331 
L 2853 1931 
Q 2853 2541 2703 2767 
Q 2553 2994 2175 2994 
Q 1775 2994 1565 2701 
Q 1356 2409 1356 1850 
L 1356 331 
L 1856 331 
L 1856 0 
L 263 0 
z
" transform="scale(0.015625)"/>
     </defs>
     <use xlink:href="#DejaVuSerif-44"/>
     <use xlink:href="#DejaVuSerif-54" x="80.175781"/>
     <use xlink:href="#DejaVuSerif-53" x="146.875"/>
     <use xlink:href="#DejaVuSerif-79" x="215.380859"/>
     <use xlink:href="#DejaVuSerif-6e" x="271.875"/>
    </g>
   </g>
  </g>
 </g>
 <defs>
  <clipPath id="pae1a84faa8">
   <rect x="30.103125" y="7.2" width="177.160991" height="209.2"/>
  </clipPath>
  <clipPath id="p1c847166f5">
   <rect x="231.525612" y="7.2" width="177.160991" height="209.2"/>
  </clipPath>
 </defs>
</svg>
