<?xml version="1.0" encoding="utf-8" standalone="no"?>
<!DOCTYPE svg PUBLIC "-//W3C//DTD SVG 1.1//EN"
  "http://www.w3.org/Graphics/SVG/1.1/DTD/svg11.dtd">
<svg xmlns:xlink="http://www.w3.org/1999/xlink" width="198.159404pt" height="183.35625pt" viewBox="0 0 198.159404 183.35625" xmlns="http://www.w3.org/2000/svg" version="1.1">
 <metadata>
  <rdf:RDF xmlns:dc="http://purl.org/dc/elements/1.1/" xmlns:cc="http://creativecommons.org/ns#" xmlns:rdf="http://www.w3.org/1999/02/22-rdf-syntax-ns#">
   <cc:Work>
    <dc:type rdf:resource="http://purl.org/dc/dcmitype/StillImage"/>
    <dc:date>2024-09-05T11:58:00.527074</dc:date>
    <dc:format>image/svg+xml</dc:format>
    <dc:creator>
     <cc:Agent>
      <dc:title>Matplotlib v3.8.1, https://matplotlib.org/</dc:title>
     </cc:Agent>
    </dc:creator>
   </cc:Work>
  </rdf:RDF>
 </metadata>
 <defs>
  <style type="text/css">*{stroke-linejoin: round; stroke-linecap: butt}</style>
 </defs>
 <g id="figure_1">
  <g id="patch_1">
   <path d="M 0 183.35625 
L 198.159404 183.35625 
L 198.159404 0 
L 0 0 
L 0 183.35625 
z
" style="fill: none"/>
  </g>
  <g id="axes_1">
   <g id="patch_2">
    <path d="M 43.78125 145.8 
L 183.28125 145.8 
L 183.28125 7.2 
L 43.78125 7.2 
L 43.78125 145.8 
z
" style="fill: none"/>
   </g>
   <g id="PolyCollection_1">
    <path d="M 50.122159 20.317548 
L 50.122159 57.944849 
L 51.416222 41.720476 
L 52.710285 39.600486 
L 54.004348 38.171119 
L 55.298411 40.74338 
L 56.592474 43.448977 
L 57.886538 49.49134 
L 59.180601 52.870184 
L 60.474664 53.826436 
L 61.768727 57.738349 
L 63.06279 58.869469 
L 64.356853 59.733607 
L 65.650916 60.068233 
L 66.944979 59.734089 
L 68.239042 59.598669 
L 69.533105 58.70176 
L 70.827168 58.91414 
L 72.121231 62.110096 
L 73.415295 61.378092 
L 74.709358 61.479969 
L 76.003421 61.878721 
L 77.297484 62.497239 
L 78.591547 63.10243 
L 79.88561 63.627014 
L 81.179673 64.003212 
L 82.473736 63.754358 
L 83.767799 64.657291 
L 85.061862 65.172848 
L 86.355925 65.762614 
L 87.649988 66.841563 
L 88.944051 67.081175 
L 90.238115 67.813591 
L 91.532178 68.25522 
L 92.826241 68.171462 
L 94.120304 68.474565 
L 95.414367 69.716241 
L 96.70843 70.528083 
L 98.002493 70.890875 
L 99.296556 71.337455 
L 100.590619 71.935038 
L 101.884682 72.52538 
L 103.178745 72.991779 
L 104.472808 74.089078 
L 105.766872 74.849974 
L 107.060935 75.371094 
L 108.354998 76.403837 
L 109.649061 77.17136 
L 110.943124 77.389264 
L 112.237187 77.851737 
L 113.53125 78.120141 
L 114.825313 78.786359 
L 116.119376 79.618883 
L 117.413439 79.854479 
L 118.707502 80.508125 
L 120.001565 81.121968 
L 121.295628 81.682084 
L 122.589692 81.559381 
L 123.883755 82.111466 
L 125.177818 82.668924 
L 126.471881 83.151356 
L 127.765944 83.679122 
L 129.060007 84.223992 
L 130.35407 84.689771 
L 131.648133 85.026193 
L 132.942196 85.25356 
L 134.236259 85.651339 
L 135.530322 85.998481 
L 136.824385 86.266139 
L 138.118449 86.821352 
L 139.412512 87.29444 
L 140.706575 87.850504 
L 142.000638 88.163784 
L 143.294701 88.524294 
L 144.588764 89.055042 
L 145.882827 89.618293 
L 147.17689 89.952864 
L 148.470953 90.47036 
L 149.765016 90.729908 
L 151.059079 91.000381 
L 152.353142 91.445638 
L 153.647205 91.495373 
L 154.941269 91.790801 
L 156.235332 91.988081 
L 157.529395 92.241478 
L 158.823458 92.537096 
L 160.117521 92.61475 
L 161.411584 92.991822 
L 162.705647 93.044224 
L 163.99971 93.428929 
L 165.293773 93.626344 
L 166.587836 93.749242 
L 167.881899 93.951154 
L 169.175962 93.918342 
L 170.470026 94.172121 
L 171.764089 94.407615 
L 173.058152 94.797202 
L 174.352215 94.974621 
L 175.646278 95.227246 
L 176.940341 95.337804 
L 176.940341 89.212246 
L 176.940341 89.212246 
L 175.646278 88.76152 
L 174.352215 88.362106 
L 173.058152 88.033917 
L 171.764089 87.745552 
L 170.470026 87.452088 
L 169.175962 87.413296 
L 167.881899 86.914583 
L 166.587836 86.640354 
L 165.293773 86.361871 
L 163.99971 86.062585 
L 162.705647 85.677461 
L 161.411584 85.295469 
L 160.117521 84.960116 
L 158.823458 84.670024 
L 157.529395 84.131959 
L 156.235332 83.901735 
L 154.941269 83.509933 
L 153.647205 83.106911 
L 152.353142 82.632751 
L 151.059079 82.443626 
L 149.765016 82.063451 
L 148.470953 81.854947 
L 147.17689 81.487831 
L 145.882827 81.323834 
L 144.588764 80.648495 
L 143.294701 80.222362 
L 142.000638 79.706087 
L 140.706575 79.226061 
L 139.412512 78.85643 
L 138.118449 78.822246 
L 136.824385 78.290515 
L 135.530322 77.897327 
L 134.236259 77.447225 
L 132.942196 76.786902 
L 131.648133 76.88318 
L 130.35407 76.230948 
L 129.060007 75.552301 
L 127.765944 75.292958 
L 126.471881 75.245725 
L 125.177818 74.873306 
L 123.883755 74.281585 
L 122.589692 73.778919 
L 121.295628 73.11241 
L 120.001565 72.829651 
L 118.707502 72.853869 
L 117.413439 72.31597 
L 116.119376 72.052714 
L 114.825313 71.76442 
L 113.53125 70.957763 
L 112.237187 69.849921 
L 110.943124 69.198832 
L 109.649061 68.909459 
L 108.354998 67.978858 
L 107.060935 67.579366 
L 105.766872 67.301388 
L 104.472808 66.868781 
L 103.178745 65.801381 
L 101.884682 65.308815 
L 100.590619 64.508212 
L 99.296556 64.037398 
L 98.002493 63.157227 
L 96.70843 62.329138 
L 95.414367 62.737343 
L 94.120304 61.796742 
L 92.826241 60.692802 
L 91.532178 60.280461 
L 90.238115 59.65291 
L 88.944051 58.999404 
L 87.649988 57.504678 
L 86.355925 56.994529 
L 85.061862 55.607381 
L 83.767799 55.421927 
L 82.473736 55.274517 
L 81.179673 55.120193 
L 79.88561 54.318693 
L 78.591547 53.56317 
L 77.297484 52.771881 
L 76.003421 51.495176 
L 74.709358 50.577247 
L 73.415295 49.223845 
L 72.121231 47.728268 
L 70.827168 47.360006 
L 69.533105 47.402959 
L 68.239042 45.801992 
L 66.944979 47.056402 
L 65.650916 45.962634 
L 64.356853 43.490873 
L 63.06279 42.43485 
L 61.768727 39.72565 
L 60.474664 38.090434 
L 59.180601 37.873254 
L 57.886538 35.354464 
L 56.592474 33.533313 
L 55.298411 32.910633 
L 54.004348 26.650158 
L 52.710285 18.180203 
L 51.416222 13.5 
L 50.122159 20.317548 
z
" clip-path="url(#p2b14031568)" style="fill: #ff6f61; fill-opacity: 0.3"/>
   </g>
   <g id="PolyCollection_2">
    <path d="M 50.122159 53.972006 
L 50.122159 139.5 
L 51.416222 131.691847 
L 52.710285 118.844801 
L 54.004348 112.609005 
L 55.298411 107.303164 
L 56.592474 98.309933 
L 57.886538 99.520603 
L 59.180601 99.425759 
L 60.474664 97.791188 
L 61.768727 96.561328 
L 63.06279 97.19387 
L 64.356853 95.720441 
L 65.650916 95.813504 
L 66.944979 94.84122 
L 68.239042 94.406185 
L 69.533105 93.933444 
L 70.827168 92.383226 
L 72.121231 92.192187 
L 73.415295 91.529633 
L 74.709358 91.611983 
L 76.003421 89.623449 
L 77.297484 89.848661 
L 78.591547 90.650627 
L 79.88561 89.528543 
L 81.179673 89.292134 
L 82.473736 88.432844 
L 83.767799 87.47695 
L 85.061862 86.495375 
L 86.355925 86.089484 
L 87.649988 86.288155 
L 88.944051 86.31513 
L 90.238115 85.610293 
L 91.532178 85.858376 
L 92.826241 85.854719 
L 94.120304 85.777566 
L 95.414367 86.104181 
L 96.70843 86.208562 
L 98.002493 86.612551 
L 99.296556 86.625653 
L 100.590619 86.796238 
L 101.884682 86.693008 
L 103.178745 86.249608 
L 104.472808 86.921917 
L 105.766872 87.024476 
L 107.060935 86.712303 
L 108.354998 87.14405 
L 109.649061 87.136246 
L 110.943124 87.233026 
L 112.237187 87.600724 
L 113.53125 87.827527 
L 114.825313 87.81909 
L 116.119376 88.473519 
L 117.413439 88.909033 
L 118.707502 88.987654 
L 120.001565 88.923085 
L 121.295628 88.721169 
L 122.589692 89.235295 
L 123.883755 89.168271 
L 125.177818 89.231447 
L 126.471881 89.731842 
L 127.765944 89.907873 
L 129.060007 90.484181 
L 130.35407 90.943064 
L 131.648133 91.184658 
L 132.942196 91.017354 
L 134.236259 91.573087 
L 135.530322 91.84135 
L 136.824385 92.074389 
L 138.118449 92.495086 
L 139.412512 92.955342 
L 140.706575 93.301931 
L 142.000638 93.524664 
L 143.294701 93.791928 
L 144.588764 94.013217 
L 145.882827 94.348489 
L 147.17689 94.602067 
L 148.470953 94.922279 
L 149.765016 95.093388 
L 151.059079 95.265623 
L 152.353142 95.6035 
L 153.647205 95.921921 
L 154.941269 96.187819 
L 156.235332 96.300124 
L 157.529395 96.565214 
L 158.823458 96.716019 
L 160.117521 96.893322 
L 161.411584 97.234994 
L 162.705647 97.532793 
L 163.99971 97.89012 
L 165.293773 98.138255 
L 166.587836 98.175891 
L 167.881899 98.200623 
L 169.175962 98.392413 
L 170.470026 98.58712 
L 171.764089 98.652339 
L 173.058152 98.863802 
L 174.352215 99.198184 
L 175.646278 99.294248 
L 176.940341 99.533315 
L 176.940341 91.921553 
L 176.940341 91.921553 
L 175.646278 91.669794 
L 174.352215 91.502457 
L 173.058152 91.087911 
L 171.764089 90.858074 
L 170.470026 90.799439 
L 169.175962 90.702454 
L 167.881899 90.512726 
L 166.587836 90.400762 
L 165.293773 90.384005 
L 163.99971 90.231328 
L 162.705647 89.916893 
L 161.411584 89.968903 
L 160.117521 89.612521 
L 158.823458 89.075347 
L 157.529395 88.768971 
L 156.235332 88.28825 
L 154.941269 87.917552 
L 153.647205 87.5937 
L 152.353142 87.11561 
L 151.059079 86.831257 
L 149.765016 86.562247 
L 148.470953 86.081155 
L 147.17689 85.630941 
L 145.882827 85.400772 
L 144.588764 85.239225 
L 143.294701 85.160511 
L 142.000638 84.799412 
L 140.706575 84.48426 
L 139.412512 84.167872 
L 138.118449 84.057248 
L 136.824385 83.777324 
L 135.530322 83.288828 
L 134.236259 82.930064 
L 132.942196 82.484986 
L 131.648133 82.005657 
L 130.35407 81.559574 
L 129.060007 81.308598 
L 127.765944 81.151772 
L 126.471881 80.698242 
L 125.177818 80.417555 
L 123.883755 80.202415 
L 122.589692 79.847308 
L 121.295628 79.514447 
L 120.001565 78.993335 
L 118.707502 78.597749 
L 117.413439 77.75319 
L 116.119376 77.525427 
L 114.825313 77.038765 
L 113.53125 76.765271 
L 112.237187 76.872945 
L 110.943124 76.796524 
L 109.649061 75.940034 
L 108.354998 76.106305 
L 107.060935 75.695779 
L 105.766872 75.026728 
L 104.472808 74.934429 
L 103.178745 74.305367 
L 101.884682 73.995776 
L 100.590619 73.456997 
L 99.296556 72.972759 
L 98.002493 72.498695 
L 96.70843 72.181599 
L 95.414367 71.738187 
L 94.120304 71.046812 
L 92.826241 70.795392 
L 91.532178 70.374161 
L 90.238115 69.21849 
L 88.944051 68.753673 
L 87.649988 68.524627 
L 86.355925 68.44962 
L 85.061862 68.024811 
L 83.767799 67.022917 
L 82.473736 67.817596 
L 81.179673 67.927248 
L 79.88561 67.140394 
L 78.591547 66.755762 
L 77.297484 67.314863 
L 76.003421 67.274078 
L 74.709358 66.529076 
L 73.415295 66.368879 
L 72.121231 67.143638 
L 70.827168 67.203601 
L 69.533105 66.4158 
L 68.239042 66.295088 
L 66.944979 65.165138 
L 65.650916 64.572666 
L 64.356853 62.548629 
L 63.06279 63.460853 
L 61.768727 64.651987 
L 60.474664 62.398043 
L 59.180601 63.323685 
L 57.886538 63.22884 
L 56.592474 63.159404 
L 55.298411 66.199177 
L 54.004348 61.661399 
L 52.710285 61.826138 
L 51.416222 65.620479 
L 50.122159 53.972006 
z
" clip-path="url(#p2b14031568)" style="fill: #417505; fill-opacity: 0.3"/>
   </g>
   <g id="matplotlib.axis_1">
    <g id="xtick_1">
     <g id="line2d_1">
      <defs>
       <path id="me063fc637a" d="M 0 0 
L 0 3.5 
" style="stroke: #000000; stroke-width: 0.8"/>
      </defs>
      <g>
       <use xlink:href="#me063fc637a" x="48.828096" y="145.8" style="stroke: #000000; stroke-width: 0.8"/>
      </g>
     </g>
     <g id="text_1">
      <!-- 0 -->
      <g transform="translate(45.646846 160.398438) scale(0.1 -0.1)">
       <defs>
        <path id="DejaVuSerif-30" d="M 2034 219 
Q 2513 219 2750 744 
Q 2988 1269 2988 2328 
Q 2988 3391 2750 3916 
Q 2513 4441 2034 4441 
Q 1556 4441 1318 3916 
Q 1081 3391 1081 2328 
Q 1081 1269 1318 744 
Q 1556 219 2034 219 
z
M 2034 -91 
Q 1275 -91 848 546 
Q 422 1184 422 2328 
Q 422 3475 848 4112 
Q 1275 4750 2034 4750 
Q 2797 4750 3222 4112 
Q 3647 3475 3647 2328 
Q 3647 1184 3222 546 
Q 2797 -91 2034 -91 
z
" transform="scale(0.015625)"/>
       </defs>
       <use xlink:href="#DejaVuSerif-30"/>
      </g>
     </g>
    </g>
    <g id="xtick_2">
     <g id="line2d_2">
      <g>
       <use xlink:href="#me063fc637a" x="113.53125" y="145.8" style="stroke: #000000; stroke-width: 0.8"/>
      </g>
     </g>
     <g id="text_2">
      <!-- 500 -->
      <g transform="translate(103.9875 160.398438) scale(0.1 -0.1)">
       <defs>
        <path id="DejaVuSerif-35" d="M 3219 4666 
L 3219 4153 
L 1081 4153 
L 1081 2816 
Q 1244 2928 1461 2984 
Q 1678 3041 1947 3041 
Q 2703 3041 3140 2622 
Q 3578 2203 3578 1478 
Q 3578 738 3136 323 
Q 2694 -91 1894 -91 
Q 1572 -91 1234 -12 
Q 897 66 544 225 
L 544 1131 
L 897 1131 
Q 925 688 1179 453 
Q 1434 219 1894 219 
Q 2388 219 2653 544 
Q 2919 869 2919 1478 
Q 2919 2084 2655 2407 
Q 2391 2731 1894 2731 
Q 1613 2731 1398 2631 
Q 1184 2531 1019 2322 
L 750 2322 
L 750 4666 
L 3219 4666 
z
" transform="scale(0.015625)"/>
       </defs>
       <use xlink:href="#DejaVuSerif-35"/>
       <use xlink:href="#DejaVuSerif-30" x="63.623047"/>
       <use xlink:href="#DejaVuSerif-30" x="127.246094"/>
      </g>
     </g>
    </g>
    <g id="xtick_3">
     <g id="line2d_3">
      <g>
       <use xlink:href="#me063fc637a" x="178.234404" y="145.8" style="stroke: #000000; stroke-width: 0.8"/>
      </g>
     </g>
     <g id="text_3">
      <!-- 1000 -->
      <g transform="translate(165.509404 160.398438) scale(0.1 -0.1)">
       <defs>
        <path id="DejaVuSerif-31" d="M 909 0 
L 909 331 
L 1722 331 
L 1722 4213 
L 781 3603 
L 781 4013 
L 1919 4750 
L 2350 4750 
L 2350 331 
L 3163 331 
L 3163 0 
L 909 0 
z
" transform="scale(0.015625)"/>
       </defs>
       <use xlink:href="#DejaVuSerif-31"/>
       <use xlink:href="#DejaVuSerif-30" x="63.623047"/>
       <use xlink:href="#DejaVuSerif-30" x="127.246094"/>
       <use xlink:href="#DejaVuSerif-30" x="190.869141"/>
      </g>
     </g>
    </g>
    <g id="text_4">
     <!-- batch size $k$ -->
     <g transform="translate(83.48125 174.076563) scale(0.1 -0.1)">
      <defs>
       <path id="DejaVuSerif-62" d="M 738 331 
L 738 4531 
L 184 4531 
L 184 4863 
L 1313 4863 
L 1313 2803 
Q 1481 3116 1742 3264 
Q 2003 3413 2388 3413 
Q 3000 3413 3387 2928 
Q 3775 2444 3775 1663 
Q 3775 881 3387 395 
Q 3000 -91 2388 -91 
Q 2003 -91 1742 57 
Q 1481 206 1313 519 
L 1313 0 
L 184 0 
L 184 331 
L 738 331 
z
M 1313 1497 
Q 1313 897 1542 583 
Q 1772 269 2209 269 
Q 2650 269 2876 622 
Q 3103 975 3103 1663 
Q 3103 2353 2876 2703 
Q 2650 3053 2209 3053 
Q 1772 3053 1542 2737 
Q 1313 2422 1313 1825 
L 1313 1497 
z
" transform="scale(0.015625)"/>
       <path id="DejaVuSerif-61" d="M 2547 1044 
L 2547 1747 
L 1806 1747 
Q 1378 1747 1168 1562 
Q 959 1378 959 997 
Q 959 650 1171 447 
Q 1384 244 1747 244 
Q 2106 244 2326 466 
Q 2547 688 2547 1044 
z
M 3122 2075 
L 3122 331 
L 3634 331 
L 3634 0 
L 2547 0 
L 2547 359 
Q 2356 128 2106 18 
Q 1856 -91 1522 -91 
Q 969 -91 644 203 
Q 319 497 319 997 
Q 319 1513 691 1797 
Q 1063 2081 1741 2081 
L 2547 2081 
L 2547 2309 
Q 2547 2688 2317 2895 
Q 2088 3103 1672 3103 
Q 1328 3103 1125 2947 
Q 922 2791 872 2484 
L 575 2484 
L 575 3156 
Q 875 3284 1158 3348 
Q 1441 3413 1709 3413 
Q 2400 3413 2761 3070 
Q 3122 2728 3122 2075 
z
" transform="scale(0.015625)"/>
       <path id="DejaVuSerif-74" d="M 691 2988 
L 184 2988 
L 184 3322 
L 691 3322 
L 691 4353 
L 1269 4353 
L 1269 3322 
L 2350 3322 
L 2350 2988 
L 1269 2988 
L 1269 878 
Q 1269 456 1350 337 
Q 1431 219 1650 219 
Q 1875 219 1978 351 
Q 2081 484 2088 781 
L 2522 781 
Q 2497 328 2275 118 
Q 2053 -91 1600 -91 
Q 1103 -91 897 129 
Q 691 350 691 878 
L 691 2988 
z
" transform="scale(0.015625)"/>
       <path id="DejaVuSerif-63" d="M 3291 997 
Q 3169 466 2822 187 
Q 2475 -91 1925 -91 
Q 1200 -91 759 389 
Q 319 869 319 1663 
Q 319 2459 759 2936 
Q 1200 3413 1925 3413 
Q 2241 3413 2553 3339 
Q 2866 3266 3181 3116 
L 3181 2266 
L 2847 2266 
Q 2781 2703 2561 2903 
Q 2341 3103 1931 3103 
Q 1466 3103 1228 2742 
Q 991 2381 991 1663 
Q 991 944 1227 581 
Q 1463 219 1931 219 
Q 2303 219 2525 412 
Q 2747 606 2828 997 
L 3291 997 
z
" transform="scale(0.015625)"/>
       <path id="DejaVuSerif-68" d="M 263 0 
L 263 331 
L 781 331 
L 781 4531 
L 231 4531 
L 231 4863 
L 1356 4863 
L 1356 2731 
Q 1516 3069 1770 3241 
Q 2025 3413 2363 3413 
Q 2913 3413 3172 3097 
Q 3431 2781 3431 2113 
L 3431 331 
L 3944 331 
L 3944 0 
L 2356 0 
L 2356 331 
L 2853 331 
L 2853 1931 
Q 2853 2541 2704 2764 
Q 2556 2988 2175 2988 
Q 1775 2988 1565 2697 
Q 1356 2406 1356 1850 
L 1356 331 
L 1856 331 
L 1856 0 
L 263 0 
z
" transform="scale(0.015625)"/>
       <path id="DejaVuSerif-20" transform="scale(0.015625)"/>
       <path id="DejaVuSerif-73" d="M 359 184 
L 359 959 
L 691 959 
Q 703 588 923 403 
Q 1144 219 1575 219 
Q 1963 219 2166 364 
Q 2369 509 2369 788 
Q 2369 1006 2220 1140 
Q 2072 1275 1594 1428 
L 1178 1569 
Q 750 1706 558 1912 
Q 366 2119 366 2438 
Q 366 2894 700 3153 
Q 1034 3413 1625 3413 
Q 1888 3413 2178 3344 
Q 2469 3275 2778 3144 
L 2778 2419 
L 2447 2419 
Q 2434 2741 2221 2922 
Q 2009 3103 1644 3103 
Q 1281 3103 1095 2975 
Q 909 2847 909 2591 
Q 909 2381 1050 2254 
Q 1191 2128 1613 1997 
L 2069 1856 
Q 2541 1709 2748 1489 
Q 2956 1269 2956 922 
Q 2956 450 2595 179 
Q 2234 -91 1600 -91 
Q 1278 -91 972 -22 
Q 666 47 359 184 
z
" transform="scale(0.015625)"/>
       <path id="DejaVuSerif-69" d="M 622 4353 
Q 622 4497 726 4603 
Q 831 4709 978 4709 
Q 1122 4709 1226 4603 
Q 1331 4497 1331 4353 
Q 1331 4206 1228 4103 
Q 1125 4000 978 4000 
Q 831 4000 726 4103 
Q 622 4206 622 4353 
z
M 1356 331 
L 1900 331 
L 1900 0 
L 231 0 
L 231 331 
L 781 331 
L 781 2988 
L 231 2988 
L 231 3322 
L 1356 3322 
L 1356 331 
z
" transform="scale(0.015625)"/>
       <path id="DejaVuSerif-7a" d="M 256 0 
L 256 269 
L 2338 2988 
L 691 2988 
L 691 2413 
L 359 2413 
L 359 3322 
L 3078 3322 
L 3078 3053 
L 997 331 
L 2803 331 
L 2803 934 
L 3138 934 
L 3138 0 
L 256 0 
z
" transform="scale(0.015625)"/>
       <path id="DejaVuSerif-65" d="M 3469 1600 
L 991 1600 
L 991 1575 
Q 991 903 1244 561 
Q 1497 219 1991 219 
Q 2369 219 2611 417 
Q 2853 616 2950 1006 
L 3413 1006 
Q 3275 459 2904 184 
Q 2534 -91 1931 -91 
Q 1203 -91 761 389 
Q 319 869 319 1663 
Q 319 2450 753 2931 
Q 1188 3413 1894 3413 
Q 2647 3413 3050 2948 
Q 3453 2484 3469 1600 
z
M 2791 1931 
Q 2772 2513 2545 2808 
Q 2319 3103 1894 3103 
Q 1497 3103 1269 2806 
Q 1041 2509 991 1931 
L 2791 1931 
z
" transform="scale(0.015625)"/>
       <path id="DejaVuSans-Oblique-6b" d="M 1172 4863 
L 1747 4863 
L 1197 2028 
L 3169 3500 
L 3916 3500 
L 1716 1825 
L 3322 0 
L 2625 0 
L 1131 1709 
L 800 0 
L 225 0 
L 1172 4863 
z
" transform="scale(0.015625)"/>
      </defs>
      <use xlink:href="#DejaVuSerif-62" transform="translate(0 0.015625)"/>
      <use xlink:href="#DejaVuSerif-61" transform="translate(64.013672 0.015625)"/>
      <use xlink:href="#DejaVuSerif-74" transform="translate(123.632812 0.015625)"/>
      <use xlink:href="#DejaVuSerif-63" transform="translate(163.818359 0.015625)"/>
      <use xlink:href="#DejaVuSerif-68" transform="translate(219.824219 0.015625)"/>
      <use xlink:href="#DejaVuSerif-20" transform="translate(284.228516 0.015625)"/>
      <use xlink:href="#DejaVuSerif-73" transform="translate(316.015625 0.015625)"/>
      <use xlink:href="#DejaVuSerif-69" transform="translate(367.333984 0.015625)"/>
      <use xlink:href="#DejaVuSerif-7a" transform="translate(399.316406 0.015625)"/>
      <use xlink:href="#DejaVuSerif-65" transform="translate(452.001953 0.015625)"/>
      <use xlink:href="#DejaVuSerif-20" transform="translate(511.181641 0.015625)"/>
      <use xlink:href="#DejaVuSans-Oblique-6b" transform="translate(542.96875 0.015625)"/>
     </g>
    </g>
   </g>
   <g id="matplotlib.axis_2">
    <g id="ytick_1">
     <g id="line2d_4">
      <defs>
       <path id="maaffd4b9b2" d="M 0 0 
L -3.5 0 
" style="stroke: #000000; stroke-width: 0.8"/>
      </defs>
      <g>
       <use xlink:href="#maaffd4b9b2" x="43.78125" y="131.298886" style="stroke: #000000; stroke-width: 0.8"/>
      </g>
     </g>
     <g id="text_5">
      <!-- 0.0 -->
      <g transform="translate(20.878125 135.098104) scale(0.1 -0.1)">
       <defs>
        <path id="DejaVuSerif-2e" d="M 603 325 
Q 603 500 722 622 
Q 841 744 1019 744 
Q 1191 744 1312 622 
Q 1434 500 1434 325 
Q 1434 153 1312 31 
Q 1191 -91 1019 -91 
Q 841 -91 722 29 
Q 603 150 603 325 
z
" transform="scale(0.015625)"/>
       </defs>
       <use xlink:href="#DejaVuSerif-30"/>
       <use xlink:href="#DejaVuSerif-2e" x="63.623047"/>
       <use xlink:href="#DejaVuSerif-30" x="95.410156"/>
      </g>
     </g>
    </g>
    <g id="ytick_2">
     <g id="line2d_5">
      <g>
       <use xlink:href="#maaffd4b9b2" x="43.78125" y="92.895683" style="stroke: #000000; stroke-width: 0.8"/>
      </g>
     </g>
     <g id="text_6">
      <!-- 0.2 -->
      <g transform="translate(20.878125 96.694902) scale(0.1 -0.1)">
       <defs>
        <path id="DejaVuSerif-32" d="M 819 3553 
L 469 3553 
L 469 4384 
Q 803 4563 1142 4656 
Q 1481 4750 1806 4750 
Q 2534 4750 2956 4397 
Q 3378 4044 3378 3438 
Q 3378 2753 2422 1800 
Q 2347 1728 2309 1691 
L 1131 513 
L 3078 513 
L 3078 1088 
L 3444 1088 
L 3444 0 
L 434 0 
L 434 341 
L 1850 1753 
Q 2319 2222 2519 2614 
Q 2719 3006 2719 3438 
Q 2719 3909 2473 4175 
Q 2228 4441 1797 4441 
Q 1350 4441 1106 4219 
Q 863 3997 819 3553 
z
" transform="scale(0.015625)"/>
       </defs>
       <use xlink:href="#DejaVuSerif-30"/>
       <use xlink:href="#DejaVuSerif-2e" x="63.623047"/>
       <use xlink:href="#DejaVuSerif-32" x="95.410156"/>
      </g>
     </g>
    </g>
    <g id="ytick_3">
     <g id="line2d_6">
      <g>
       <use xlink:href="#maaffd4b9b2" x="43.78125" y="54.49248" style="stroke: #000000; stroke-width: 0.8"/>
      </g>
     </g>
     <g id="text_7">
      <!-- 0.4 -->
      <g transform="translate(20.878125 58.291699) scale(0.1 -0.1)">
       <defs>
        <path id="DejaVuSerif-34" d="M 2234 1581 
L 2234 4063 
L 641 1581 
L 2234 1581 
z
M 3609 0 
L 1484 0 
L 1484 331 
L 2234 331 
L 2234 1247 
L 197 1247 
L 197 1588 
L 2241 4750 
L 2859 4750 
L 2859 1581 
L 3750 1581 
L 3750 1247 
L 2859 1247 
L 2859 331 
L 3609 331 
L 3609 0 
z
" transform="scale(0.015625)"/>
       </defs>
       <use xlink:href="#DejaVuSerif-30"/>
       <use xlink:href="#DejaVuSerif-2e" x="63.623047"/>
       <use xlink:href="#DejaVuSerif-34" x="95.410156"/>
      </g>
     </g>
    </g>
    <g id="ytick_4">
     <g id="line2d_7">
      <g>
       <use xlink:href="#maaffd4b9b2" x="43.78125" y="16.089277" style="stroke: #000000; stroke-width: 0.8"/>
      </g>
     </g>
     <g id="text_8">
      <!-- 0.6 -->
      <g transform="translate(20.878125 19.888496) scale(0.1 -0.1)">
       <defs>
        <path id="DejaVuSerif-36" d="M 2094 219 
Q 2534 219 2771 542 
Q 3009 866 3009 1472 
Q 3009 2078 2771 2401 
Q 2534 2725 2094 2725 
Q 1647 2725 1412 2412 
Q 1178 2100 1178 1509 
Q 1178 888 1415 553 
Q 1653 219 2094 219 
z
M 1075 2569 
Q 1288 2803 1556 2918 
Q 1825 3034 2163 3034 
Q 2859 3034 3264 2615 
Q 3669 2197 3669 1472 
Q 3669 763 3233 336 
Q 2797 -91 2069 -91 
Q 1278 -91 853 498 
Q 428 1088 428 2181 
Q 428 3406 931 4078 
Q 1434 4750 2350 4750 
Q 2597 4750 2869 4703 
Q 3141 4656 3425 4563 
L 3425 3794 
L 3072 3794 
Q 3034 4109 2831 4275 
Q 2628 4441 2284 4441 
Q 1678 4441 1381 3981 
Q 1084 3522 1075 2569 
z
" transform="scale(0.015625)"/>
       </defs>
       <use xlink:href="#DejaVuSerif-30"/>
       <use xlink:href="#DejaVuSerif-2e" x="63.623047"/>
       <use xlink:href="#DejaVuSerif-36" x="95.410156"/>
      </g>
     </g>
    </g>
    <g id="text_9">
     <!-- Ratio of positive samples -->
     <g transform="translate(14.798438 139.9875) rotate(-90) scale(0.1 -0.1)">
      <defs>
       <path id="DejaVuSerif-52" d="M 3066 2316 
Q 3284 2256 3442 2114 
Q 3600 1972 3725 1716 
L 4403 331 
L 4972 331 
L 4972 0 
L 3872 0 
L 3144 1484 
Q 2934 1916 2759 2042 
Q 2584 2169 2278 2169 
L 1581 2169 
L 1581 331 
L 2241 331 
L 2241 0 
L 353 0 
L 353 331 
L 947 331 
L 947 4331 
L 353 4331 
L 353 4666 
L 2719 4666 
Q 3400 4666 3770 4341 
Q 4141 4016 4141 3419 
Q 4141 2938 3870 2661 
Q 3600 2384 3066 2316 
z
M 1581 2503 
L 2503 2503 
Q 2975 2503 3200 2726 
Q 3425 2950 3425 3419 
Q 3425 3888 3200 4109 
Q 2975 4331 2503 4331 
L 1581 4331 
L 1581 2503 
z
" transform="scale(0.015625)"/>
       <path id="DejaVuSerif-6f" d="M 1925 219 
Q 2388 219 2623 584 
Q 2859 950 2859 1663 
Q 2859 2375 2623 2739 
Q 2388 3103 1925 3103 
Q 1463 3103 1227 2739 
Q 991 2375 991 1663 
Q 991 950 1228 584 
Q 1466 219 1925 219 
z
M 1925 -91 
Q 1200 -91 759 389 
Q 319 869 319 1663 
Q 319 2456 758 2934 
Q 1197 3413 1925 3413 
Q 2653 3413 3092 2934 
Q 3531 2456 3531 1663 
Q 3531 869 3092 389 
Q 2653 -91 1925 -91 
z
" transform="scale(0.015625)"/>
       <path id="DejaVuSerif-66" d="M 2753 4078 
L 2450 4078 
Q 2447 4313 2317 4434 
Q 2188 4556 1941 4556 
Q 1619 4556 1487 4379 
Q 1356 4203 1356 3750 
L 1356 3322 
L 2284 3322 
L 2284 2988 
L 1356 2988 
L 1356 331 
L 2094 331 
L 2094 0 
L 231 0 
L 231 331 
L 781 331 
L 781 2988 
L 231 2988 
L 231 3322 
L 781 3322 
L 781 3738 
Q 781 4294 1070 4578 
Q 1359 4863 1919 4863 
Q 2128 4863 2337 4825 
Q 2547 4788 2753 4709 
L 2753 4078 
z
" transform="scale(0.015625)"/>
       <path id="DejaVuSerif-70" d="M 1313 1825 
L 1313 1497 
Q 1313 897 1542 583 
Q 1772 269 2209 269 
Q 2650 269 2876 622 
Q 3103 975 3103 1663 
Q 3103 2353 2876 2703 
Q 2650 3053 2209 3053 
Q 1772 3053 1542 2737 
Q 1313 2422 1313 1825 
z
M 738 2988 
L 184 2988 
L 184 3322 
L 1313 3322 
L 1313 2803 
Q 1481 3116 1742 3264 
Q 2003 3413 2388 3413 
Q 3000 3413 3387 2928 
Q 3775 2444 3775 1663 
Q 3775 881 3387 395 
Q 3000 -91 2388 -91 
Q 2003 -91 1742 57 
Q 1481 206 1313 519 
L 1313 -997 
L 1856 -997 
L 1856 -1331 
L 184 -1331 
L 184 -997 
L 738 -997 
L 738 2988 
z
" transform="scale(0.015625)"/>
       <path id="DejaVuSerif-76" d="M 1581 0 
L 359 2988 
L -19 2988 
L -19 3322 
L 1509 3322 
L 1509 2988 
L 978 2988 
L 1913 703 
L 2847 2988 
L 2350 2988 
L 2350 3322 
L 3597 3322 
L 3597 2988 
L 3225 2988 
L 2003 0 
L 1581 0 
z
" transform="scale(0.015625)"/>
       <path id="DejaVuSerif-6d" d="M 3316 2675 
Q 3481 3041 3739 3227 
Q 3997 3413 4341 3413 
Q 4863 3413 5119 3089 
Q 5375 2766 5375 2113 
L 5375 331 
L 5894 331 
L 5894 0 
L 4300 0 
L 4300 331 
L 4800 331 
L 4800 2047 
Q 4800 2556 4650 2772 
Q 4500 2988 4153 2988 
Q 3769 2988 3567 2697 
Q 3366 2406 3366 1850 
L 3366 331 
L 3866 331 
L 3866 0 
L 2291 0 
L 2291 331 
L 2791 331 
L 2791 2069 
Q 2791 2566 2641 2777 
Q 2491 2988 2144 2988 
Q 1759 2988 1557 2697 
Q 1356 2406 1356 1850 
L 1356 331 
L 1856 331 
L 1856 0 
L 263 0 
L 263 331 
L 781 331 
L 781 2994 
L 231 2994 
L 231 3322 
L 1356 3322 
L 1356 2731 
Q 1516 3063 1762 3238 
Q 2009 3413 2322 3413 
Q 2709 3413 2968 3220 
Q 3228 3028 3316 2675 
z
" transform="scale(0.015625)"/>
       <path id="DejaVuSerif-6c" d="M 1313 331 
L 1856 331 
L 1856 0 
L 184 0 
L 184 331 
L 738 331 
L 738 4531 
L 184 4531 
L 184 4863 
L 1313 4863 
L 1313 331 
z
" transform="scale(0.015625)"/>
      </defs>
      <use xlink:href="#DejaVuSerif-52"/>
      <use xlink:href="#DejaVuSerif-61" x="77.542969"/>
      <use xlink:href="#DejaVuSerif-74" x="137.162109"/>
      <use xlink:href="#DejaVuSerif-69" x="177.347656"/>
      <use xlink:href="#DejaVuSerif-6f" x="209.330078"/>
      <use xlink:href="#DejaVuSerif-20" x="269.535156"/>
      <use xlink:href="#DejaVuSerif-6f" x="301.322266"/>
      <use xlink:href="#DejaVuSerif-66" x="361.527344"/>
      <use xlink:href="#DejaVuSerif-20" x="398.539062"/>
      <use xlink:href="#DejaVuSerif-70" x="430.326172"/>
      <use xlink:href="#DejaVuSerif-6f" x="494.339844"/>
      <use xlink:href="#DejaVuSerif-73" x="554.544922"/>
      <use xlink:href="#DejaVuSerif-69" x="605.863281"/>
      <use xlink:href="#DejaVuSerif-74" x="637.845703"/>
      <use xlink:href="#DejaVuSerif-69" x="678.03125"/>
      <use xlink:href="#DejaVuSerif-76" x="710.013672"/>
      <use xlink:href="#DejaVuSerif-65" x="766.507812"/>
      <use xlink:href="#DejaVuSerif-20" x="825.6875"/>
      <use xlink:href="#DejaVuSerif-73" x="857.474609"/>
      <use xlink:href="#DejaVuSerif-61" x="908.792969"/>
      <use xlink:href="#DejaVuSerif-6d" x="968.412109"/>
      <use xlink:href="#DejaVuSerif-70" x="1063.236328"/>
      <use xlink:href="#DejaVuSerif-6c" x="1127.25"/>
      <use xlink:href="#DejaVuSerif-65" x="1159.232422"/>
      <use xlink:href="#DejaVuSerif-73" x="1218.412109"/>
     </g>
    </g>
   </g>
   <g id="line2d_8">
    <path d="M 50.122159 39.131199 
L 51.416222 27.610238 
L 52.710285 28.890345 
L 54.004348 32.410638 
L 55.298411 36.827006 
L 56.592474 38.491145 
L 57.886538 42.422902 
L 59.180601 45.371719 
L 60.474664 45.958435 
L 61.768727 48.731999 
L 63.06279 50.65216 
L 64.356853 51.61224 
L 65.650916 53.015434 
L 66.944979 53.395245 
L 68.239042 52.70033 
L 69.533105 53.05236 
L 70.827168 53.137073 
L 72.121231 54.919182 
L 73.415295 55.300968 
L 74.709358 56.028608 
L 76.003421 56.686949 
L 77.297484 57.63456 
L 78.591547 58.3328 
L 79.88561 58.972853 
L 81.179673 59.561703 
L 82.473736 59.514437 
L 83.767799 60.039609 
L 85.061862 60.390115 
L 86.355925 61.378571 
L 87.649988 62.17312 
L 88.944051 63.04029 
L 90.238115 63.733251 
L 91.532178 64.267841 
L 92.826241 64.432132 
L 94.120304 65.135653 
L 95.414367 66.226792 
L 96.70843 66.42861 
L 98.002493 67.024051 
L 99.296556 67.687426 
L 100.590619 68.221625 
L 101.884682 68.917098 
L 103.178745 69.39658 
L 104.472808 70.478929 
L 105.766872 71.075681 
L 107.060935 71.47523 
L 108.354998 72.191347 
L 109.649061 73.04041 
L 110.943124 73.294048 
L 112.237187 73.850829 
L 113.53125 74.538952 
L 114.825313 75.27539 
L 116.119376 75.835798 
L 117.413439 76.085224 
L 118.707502 76.680997 
L 120.001565 76.97581 
L 121.295628 77.397247 
L 122.589692 77.66915 
L 123.883755 78.196526 
L 125.177818 78.771115 
L 126.471881 79.19854 
L 127.765944 79.48604 
L 129.060007 79.888146 
L 130.35407 80.46036 
L 131.648133 80.954687 
L 132.942196 81.020231 
L 134.236259 81.549282 
L 135.530322 81.947904 
L 136.824385 82.278327 
L 138.118449 82.821799 
L 139.412512 83.075435 
L 140.706575 83.538283 
L 142.000638 83.934935 
L 143.294701 84.373328 
L 144.588764 84.851769 
L 145.882827 85.471064 
L 147.17689 85.720347 
L 148.470953 86.162654 
L 149.765016 86.396679 
L 151.059079 86.722003 
L 152.353142 87.039194 
L 153.647205 87.301142 
L 154.941269 87.650367 
L 156.235332 87.944908 
L 157.529395 88.186719 
L 158.823458 88.60356 
L 160.117521 88.787433 
L 161.411584 89.143646 
L 162.705647 89.360842 
L 163.99971 89.745757 
L 165.293773 89.994107 
L 166.587836 90.194798 
L 167.881899 90.432869 
L 169.175962 90.665819 
L 170.470026 90.812105 
L 171.764089 91.076584 
L 173.058152 91.415559 
L 174.352215 91.668364 
L 175.646278 91.994383 
L 176.940341 92.275025 
" clip-path="url(#p2b14031568)" style="fill: none; stroke: #ff6f61; stroke-width: 1.5; stroke-linecap: square"/>
   </g>
   <g id="line2d_9">
    <path d="M 50.122159 96.736003 
L 51.416222 98.656163 
L 52.710285 90.335469 
L 54.004348 87.135202 
L 55.298411 86.75117 
L 56.592474 80.734668 
L 57.886538 81.374722 
L 59.180601 81.374722 
L 60.474664 80.094615 
L 61.768727 80.606658 
L 63.06279 80.327362 
L 64.356853 79.134535 
L 65.650916 80.193085 
L 66.944979 80.003179 
L 68.239042 80.350636 
L 69.533105 80.174622 
L 70.827168 79.793414 
L 72.121231 79.667913 
L 73.415295 78.949256 
L 74.709358 79.07053 
L 76.003421 78.448764 
L 77.297484 78.581762 
L 78.591547 78.703195 
L 79.88561 78.334468 
L 81.179673 78.609691 
L 82.473736 78.12522 
L 83.767799 77.249933 
L 85.061862 77.260093 
L 86.355925 77.269552 
L 87.649988 77.406391 
L 88.944051 77.534402 
L 90.238115 77.414392 
L 91.532178 78.116268 
L 92.826241 78.325056 
L 94.120304 78.412189 
L 95.414367 78.921184 
L 96.70843 79.195081 
L 98.002493 79.555623 
L 99.296556 79.799206 
L 100.590619 80.126618 
L 101.884682 80.344392 
L 103.178745 80.277488 
L 104.472808 80.928173 
L 105.766872 81.025602 
L 107.060935 81.204041 
L 108.354998 81.625178 
L 109.649061 81.53814 
L 110.943124 82.014775 
L 112.237187 82.236835 
L 113.53125 82.296399 
L 114.825313 82.428927 
L 116.119376 82.999473 
L 117.413439 83.331111 
L 118.707502 83.792701 
L 120.001565 83.95821 
L 121.295628 84.117808 
L 122.589692 84.541302 
L 123.883755 84.685343 
L 125.177818 84.824501 
L 126.471881 85.215042 
L 127.765944 85.529823 
L 129.060007 85.896389 
L 130.35407 86.251319 
L 131.648133 86.595157 
L 132.942196 86.75117 
L 134.236259 87.251576 
L 135.530322 87.565089 
L 136.824385 87.925856 
L 138.118449 88.276167 
L 139.412512 88.561607 
L 140.706575 88.893095 
L 142.000638 89.162038 
L 143.294701 89.476219 
L 144.588764 89.626221 
L 145.882827 89.874631 
L 147.17689 90.116504 
L 148.470953 90.501717 
L 149.765016 90.827818 
L 151.059079 91.04844 
L 152.353142 91.359555 
L 153.647205 91.75781 
L 154.941269 92.052686 
L 156.235332 92.294187 
L 157.529395 92.667092 
L 158.823458 92.895683 
L 160.117521 93.252922 
L 161.411584 93.601949 
L 162.705647 93.724843 
L 163.99971 94.060724 
L 165.293773 94.26113 
L 166.587836 94.288326 
L 167.881899 94.356674 
L 169.175962 94.547433 
L 170.470026 94.693279 
L 171.764089 94.755206 
L 173.058152 94.975856 
L 174.352215 95.35032 
L 175.646278 95.482021 
L 176.940341 95.727434 
" clip-path="url(#p2b14031568)" style="fill: none; stroke: #417505; stroke-width: 1.5; stroke-linecap: square"/>
   </g>
   <g id="line2d_10">
    <path d="M 70.568356 145.8 
L 70.568356 102.9 
" clip-path="url(#p2b14031568)" style="fill: none; stroke-dasharray: 5.55,2.4; stroke-dashoffset: 0; stroke: #000000; stroke-width: 1.5"/>
   </g>
   <g id="line2d_11">
    <path d="M 164.776148 145.8 
L 164.776148 131.94 
" clip-path="url(#p2b14031568)" style="fill: none; stroke-dasharray: 5.55,2.4; stroke-dashoffset: 0; stroke: #000000; stroke-width: 1.5"/>
   </g>
   <g id="patch_3">
    <path d="M 43.78125 145.8 
L 43.78125 7.2 
" style="fill: none; stroke: #000000; stroke-width: 0.8; stroke-linejoin: miter; stroke-linecap: square"/>
   </g>
   <g id="patch_4">
    <path d="M 43.78125 145.8 
L 183.28125 145.8 
" style="fill: none; stroke: #000000; stroke-width: 0.8; stroke-linejoin: miter; stroke-linecap: square"/>
   </g>
   <g id="text_10">
    <!-- $k=168$ -->
    <g transform="translate(70.568356 52.663756) scale(0.1 -0.1)">
     <defs>
      <path id="DejaVuSans-3d" d="M 678 2906 
L 4684 2906 
L 4684 2381 
L 678 2381 
L 678 2906 
z
M 678 1631 
L 4684 1631 
L 4684 1100 
L 678 1100 
L 678 1631 
z
" transform="scale(0.015625)"/>
      <path id="DejaVuSans-31" d="M 794 531 
L 1825 531 
L 1825 4091 
L 703 3866 
L 703 4441 
L 1819 4666 
L 2450 4666 
L 2450 531 
L 3481 531 
L 3481 0 
L 794 0 
L 794 531 
z
" transform="scale(0.015625)"/>
      <path id="DejaVuSans-36" d="M 2113 2584 
Q 1688 2584 1439 2293 
Q 1191 2003 1191 1497 
Q 1191 994 1439 701 
Q 1688 409 2113 409 
Q 2538 409 2786 701 
Q 3034 994 3034 1497 
Q 3034 2003 2786 2293 
Q 2538 2584 2113 2584 
z
M 3366 4563 
L 3366 3988 
Q 3128 4100 2886 4159 
Q 2644 4219 2406 4219 
Q 1781 4219 1451 3797 
Q 1122 3375 1075 2522 
Q 1259 2794 1537 2939 
Q 1816 3084 2150 3084 
Q 2853 3084 3261 2657 
Q 3669 2231 3669 1497 
Q 3669 778 3244 343 
Q 2819 -91 2113 -91 
Q 1303 -91 875 529 
Q 447 1150 447 2328 
Q 447 3434 972 4092 
Q 1497 4750 2381 4750 
Q 2619 4750 2861 4703 
Q 3103 4656 3366 4563 
z
" transform="scale(0.015625)"/>
      <path id="DejaVuSans-38" d="M 2034 2216 
Q 1584 2216 1326 1975 
Q 1069 1734 1069 1313 
Q 1069 891 1326 650 
Q 1584 409 2034 409 
Q 2484 409 2743 651 
Q 3003 894 3003 1313 
Q 3003 1734 2745 1975 
Q 2488 2216 2034 2216 
z
M 1403 2484 
Q 997 2584 770 2862 
Q 544 3141 544 3541 
Q 544 4100 942 4425 
Q 1341 4750 2034 4750 
Q 2731 4750 3128 4425 
Q 3525 4100 3525 3541 
Q 3525 3141 3298 2862 
Q 3072 2584 2669 2484 
Q 3125 2378 3379 2068 
Q 3634 1759 3634 1313 
Q 3634 634 3220 271 
Q 2806 -91 2034 -91 
Q 1263 -91 848 271 
Q 434 634 434 1313 
Q 434 1759 690 2068 
Q 947 2378 1403 2484 
z
M 1172 3481 
Q 1172 3119 1398 2916 
Q 1625 2713 2034 2713 
Q 2441 2713 2670 2916 
Q 2900 3119 2900 3481 
Q 2900 3844 2670 4047 
Q 2441 4250 2034 4250 
Q 1625 4250 1398 4047 
Q 1172 3844 1172 3481 
z
" transform="scale(0.015625)"/>
     </defs>
     <use xlink:href="#DejaVuSans-Oblique-6b" transform="translate(0 0.015625)"/>
     <use xlink:href="#DejaVuSans-3d" transform="translate(77.392578 0.015625)"/>
     <use xlink:href="#DejaVuSans-31" transform="translate(180.664062 0.015625)"/>
     <use xlink:href="#DejaVuSans-36" transform="translate(244.287109 0.015625)"/>
     <use xlink:href="#DejaVuSans-38" transform="translate(307.910156 0.015625)"/>
    </g>
   </g>
   <g id="text_11">
    <!-- $k=896$ -->
    <g transform="translate(152.353142 96.581704) scale(0.1 -0.1)">
     <defs>
      <path id="DejaVuSans-39" d="M 703 97 
L 703 672 
Q 941 559 1184 500 
Q 1428 441 1663 441 
Q 2288 441 2617 861 
Q 2947 1281 2994 2138 
Q 2813 1869 2534 1725 
Q 2256 1581 1919 1581 
Q 1219 1581 811 2004 
Q 403 2428 403 3163 
Q 403 3881 828 4315 
Q 1253 4750 1959 4750 
Q 2769 4750 3195 4129 
Q 3622 3509 3622 2328 
Q 3622 1225 3098 567 
Q 2575 -91 1691 -91 
Q 1453 -91 1209 -44 
Q 966 3 703 97 
z
M 1959 2075 
Q 2384 2075 2632 2365 
Q 2881 2656 2881 3163 
Q 2881 3666 2632 3958 
Q 2384 4250 1959 4250 
Q 1534 4250 1286 3958 
Q 1038 3666 1038 3163 
Q 1038 2656 1286 2365 
Q 1534 2075 1959 2075 
z
" transform="scale(0.015625)"/>
     </defs>
     <use xlink:href="#DejaVuSans-Oblique-6b" transform="translate(0 0.015625)"/>
     <use xlink:href="#DejaVuSans-3d" transform="translate(77.392578 0.015625)"/>
     <use xlink:href="#DejaVuSans-38" transform="translate(180.664062 0.015625)"/>
     <use xlink:href="#DejaVuSans-39" transform="translate(244.287109 0.015625)"/>
     <use xlink:href="#DejaVuSans-36" transform="translate(307.910156 0.015625)"/>
    </g>
   </g>
   <g id="legend_1">
    <g id="patch_5">
     <path d="M 84.245313 44.55625 
L 176.28125 44.55625 
Q 178.28125 44.55625 178.28125 42.55625 
L 178.28125 14.2 
Q 178.28125 12.2 176.28125 12.2 
L 84.245313 12.2 
Q 82.245313 12.2 82.245313 14.2 
L 82.245313 42.55625 
Q 82.245313 44.55625 84.245313 44.55625 
z
" style="fill: #ffffff; opacity: 0.8; stroke: #cccccc; stroke-linejoin: miter"/>
    </g>
    <g id="line2d_12">
     <path d="M 86.245313 20.298438 
L 96.245313 20.298438 
L 106.245313 20.298438 
" style="fill: none; stroke: #ff6f61; stroke-width: 1.5; stroke-linecap: square"/>
    </g>
    <g id="text_12">
     <!-- exploitation -->
     <g transform="translate(114.245313 23.798438) scale(0.1 -0.1)">
      <defs>
       <path id="DejaVuSerif-78" d="M 1863 2028 
L 2559 2988 
L 2113 2988 
L 2113 3322 
L 3391 3322 
L 3391 2988 
L 2950 2988 
L 2059 1759 
L 3097 331 
L 3531 331 
L 3531 0 
L 1997 0 
L 1997 331 
L 2419 331 
L 1697 1325 
L 972 331 
L 1403 331 
L 1403 0 
L 141 0 
L 141 331 
L 581 331 
L 1497 1594 
L 488 2988 
L 78 2988 
L 78 3322 
L 1563 3322 
L 1563 2988 
L 1166 2988 
L 1863 2028 
z
" transform="scale(0.015625)"/>
       <path id="DejaVuSerif-6e" d="M 263 0 
L 263 331 
L 781 331 
L 781 2988 
L 231 2988 
L 231 3322 
L 1356 3322 
L 1356 2731 
Q 1516 3069 1770 3241 
Q 2025 3413 2363 3413 
Q 2913 3413 3172 3097 
Q 3431 2781 3431 2113 
L 3431 331 
L 3944 331 
L 3944 0 
L 2356 0 
L 2356 331 
L 2853 331 
L 2853 1931 
Q 2853 2541 2703 2767 
Q 2553 2994 2175 2994 
Q 1775 2994 1565 2701 
Q 1356 2409 1356 1850 
L 1356 331 
L 1856 331 
L 1856 0 
L 263 0 
z
" transform="scale(0.015625)"/>
      </defs>
      <use xlink:href="#DejaVuSerif-65"/>
      <use xlink:href="#DejaVuSerif-78" x="59.179688"/>
      <use xlink:href="#DejaVuSerif-70" x="115.576172"/>
      <use xlink:href="#DejaVuSerif-6c" x="179.589844"/>
      <use xlink:href="#DejaVuSerif-6f" x="211.572266"/>
      <use xlink:href="#DejaVuSerif-69" x="271.777344"/>
      <use xlink:href="#DejaVuSerif-74" x="303.759766"/>
      <use xlink:href="#DejaVuSerif-61" x="343.945312"/>
      <use xlink:href="#DejaVuSerif-74" x="403.564453"/>
      <use xlink:href="#DejaVuSerif-69" x="443.75"/>
      <use xlink:href="#DejaVuSerif-6f" x="475.732422"/>
      <use xlink:href="#DejaVuSerif-6e" x="535.9375"/>
     </g>
    </g>
    <g id="line2d_13">
     <path d="M 86.245313 34.976562 
L 96.245313 34.976562 
L 106.245313 34.976562 
" style="fill: none; stroke: #417505; stroke-width: 1.5; stroke-linecap: square"/>
    </g>
    <g id="text_13">
     <!-- exploration -->
     <g transform="translate(114.245313 38.476562) scale(0.1 -0.1)">
      <defs>
       <path id="DejaVuSerif-72" d="M 3059 3328 
L 3059 2497 
L 2728 2497 
Q 2713 2744 2591 2866 
Q 2469 2988 2234 2988 
Q 1809 2988 1582 2694 
Q 1356 2400 1356 1850 
L 1356 331 
L 2022 331 
L 2022 0 
L 263 0 
L 263 331 
L 781 331 
L 781 2994 
L 231 2994 
L 231 3322 
L 1356 3322 
L 1356 2731 
Q 1525 3078 1790 3245 
Q 2056 3413 2438 3413 
Q 2578 3413 2733 3391 
Q 2888 3369 3059 3328 
z
" transform="scale(0.015625)"/>
      </defs>
      <use xlink:href="#DejaVuSerif-65"/>
      <use xlink:href="#DejaVuSerif-78" x="59.179688"/>
      <use xlink:href="#DejaVuSerif-70" x="115.576172"/>
      <use xlink:href="#DejaVuSerif-6c" x="179.589844"/>
      <use xlink:href="#DejaVuSerif-6f" x="211.572266"/>
      <use xlink:href="#DejaVuSerif-72" x="271.777344"/>
      <use xlink:href="#DejaVuSerif-61" x="319.580078"/>
      <use xlink:href="#DejaVuSerif-74" x="379.199219"/>
      <use xlink:href="#DejaVuSerif-69" x="419.384766"/>
      <use xlink:href="#DejaVuSerif-6f" x="451.367188"/>
      <use xlink:href="#DejaVuSerif-6e" x="511.572266"/>
     </g>
    </g>
   </g>
  </g>
 </g>
 <defs>
  <clipPath id="p2b14031568">
   <rect x="43.78125" y="7.2" width="139.5" height="138.6"/>
  </clipPath>
 </defs>
</svg>
