<?xml version="1.0" encoding="utf-8" standalone="no"?>
<!DOCTYPE svg PUBLIC "-//W3C//DTD SVG 1.1//EN"
  "http://www.w3.org/Graphics/SVG/1.1/DTD/svg11.dtd">
<svg xmlns:xlink="http://www.w3.org/1999/xlink" width="360pt" height="432pt" viewBox="0 0 360 432" xmlns="http://www.w3.org/2000/svg" version="1.1">
 <metadata>
  <rdf:RDF xmlns:dc="http://purl.org/dc/elements/1.1/" xmlns:cc="http://creativecommons.org/ns#" xmlns:rdf="http://www.w3.org/1999/02/22-rdf-syntax-ns#">
   <cc:Work>
    <dc:type rdf:resource="http://purl.org/dc/dcmitype/StillImage"/>
    <dc:date>2024-09-05T14:49:29.288962</dc:date>
    <dc:format>image/svg+xml</dc:format>
    <dc:creator>
     <cc:Agent>
      <dc:title>Matplotlib v3.8.1, https://matplotlib.org/</dc:title>
     </cc:Agent>
    </dc:creator>
   </cc:Work>
  </rdf:RDF>
 </metadata>
 <defs>
  <style type="text/css">*{stroke-linejoin: round; stroke-linecap: butt}</style>
 </defs>
 <g id="figure_1">
  <g id="patch_1">
   <path d="M 0 432 
L 360 432 
L 360 0 
L 0 0 
L 0 432 
z
" style="fill: none"/>
  </g>
  <g id="axes_1">
   <g id="patch_2">
    <path d="M 47.63 189.52 
L 174.6 189.52 
L 174.6 14.76 
L 47.63 14.76 
L 47.63 189.52 
z
" style="fill: none"/>
   </g>
   <g id="patch_3">
    <path d="M 49.746167 189.52 
L 66.6755 189.52 
L 66.6755 154.684902 
L 49.746167 154.684902 
z
" clip-path="url(#p8811c146e0)" style="fill: #767ee7"/>
   </g>
   <g id="patch_4">
    <path d="M 70.907833 189.52 
L 87.837167 189.52 
L 87.837167 124.354347 
L 70.907833 124.354347 
z
" clip-path="url(#p8811c146e0)" style="fill: #d96552"/>
   </g>
   <g id="patch_5">
    <path d="M 92.0695 189.52 
L 108.998833 189.52 
L 108.998833 126.549313 
L 92.0695 126.549313 
z
" clip-path="url(#p8811c146e0)" style="fill: #19b38a"/>
   </g>
   <g id="patch_6">
    <path d="M 113.231167 189.52 
L 130.1605 189.52 
L 130.1605 107.53066 
L 113.231167 107.53066 
z
" clip-path="url(#p8811c146e0)" style="fill: #ac76e7"/>
   </g>
   <g id="patch_7">
    <path d="M 134.392833 189.52 
L 151.322167 189.52 
L 151.322167 111.108181 
L 134.392833 111.108181 
z
" clip-path="url(#p8811c146e0)" style="fill: #eaa46f"/>
   </g>
   <g id="patch_8">
    <path d="M 155.5545 189.52 
L 172.483833 189.52 
L 172.483833 104.41002 
L 155.5545 104.41002 
z
" clip-path="url(#p8811c146e0)" style="fill: #34c0d8"/>
   </g>
   <g id="matplotlib.axis_1">
    <g id="xtick_1">
     <g id="line2d_1">
      <defs>
       <path id="mdb02d920c4" d="M 0 0 
L 0 3.5 
" style="stroke: #000000; stroke-width: 0.8"/>
      </defs>
      <g>
       <use xlink:href="#mdb02d920c4" x="58.210833" y="189.52" style="stroke: #000000; stroke-width: 0.8"/>
      </g>
     </g>
    </g>
    <g id="xtick_2">
     <g id="line2d_2">
      <g>
       <use xlink:href="#mdb02d920c4" x="79.3725" y="189.52" style="stroke: #000000; stroke-width: 0.8"/>
      </g>
     </g>
    </g>
    <g id="xtick_3">
     <g id="line2d_3">
      <g>
       <use xlink:href="#mdb02d920c4" x="100.534167" y="189.52" style="stroke: #000000; stroke-width: 0.8"/>
      </g>
     </g>
    </g>
    <g id="xtick_4">
     <g id="line2d_4">
      <g>
       <use xlink:href="#mdb02d920c4" x="121.695833" y="189.52" style="stroke: #000000; stroke-width: 0.8"/>
      </g>
     </g>
    </g>
    <g id="xtick_5">
     <g id="line2d_5">
      <g>
       <use xlink:href="#mdb02d920c4" x="142.8575" y="189.52" style="stroke: #000000; stroke-width: 0.8"/>
      </g>
     </g>
    </g>
    <g id="xtick_6">
     <g id="line2d_6">
      <g>
       <use xlink:href="#mdb02d920c4" x="164.019167" y="189.52" style="stroke: #000000; stroke-width: 0.8"/>
      </g>
     </g>
    </g>
    <g id="text_1">
     <!-- leave-combination-out -->
     <g transform="translate(54.779063 208.118438) scale(0.1 -0.1)">
      <defs>
       <path id="DejaVuSerif-6c" d="M 1313 331 
L 1856 331 
L 1856 0 
L 184 0 
L 184 331 
L 738 331 
L 738 4531 
L 184 4531 
L 184 4863 
L 1313 4863 
L 1313 331 
z
" transform="scale(0.015625)"/>
       <path id="DejaVuSerif-65" d="M 3469 1600 
L 991 1600 
L 991 1575 
Q 991 903 1244 561 
Q 1497 219 1991 219 
Q 2369 219 2611 417 
Q 2853 616 2950 1006 
L 3413 1006 
Q 3275 459 2904 184 
Q 2534 -91 1931 -91 
Q 1203 -91 761 389 
Q 319 869 319 1663 
Q 319 2450 753 2931 
Q 1188 3413 1894 3413 
Q 2647 3413 3050 2948 
Q 3453 2484 3469 1600 
z
M 2791 1931 
Q 2772 2513 2545 2808 
Q 2319 3103 1894 3103 
Q 1497 3103 1269 2806 
Q 1041 2509 991 1931 
L 2791 1931 
z
" transform="scale(0.015625)"/>
       <path id="DejaVuSerif-61" d="M 2547 1044 
L 2547 1747 
L 1806 1747 
Q 1378 1747 1168 1562 
Q 959 1378 959 997 
Q 959 650 1171 447 
Q 1384 244 1747 244 
Q 2106 244 2326 466 
Q 2547 688 2547 1044 
z
M 3122 2075 
L 3122 331 
L 3634 331 
L 3634 0 
L 2547 0 
L 2547 359 
Q 2356 128 2106 18 
Q 1856 -91 1522 -91 
Q 969 -91 644 203 
Q 319 497 319 997 
Q 319 1513 691 1797 
Q 1063 2081 1741 2081 
L 2547 2081 
L 2547 2309 
Q 2547 2688 2317 2895 
Q 2088 3103 1672 3103 
Q 1328 3103 1125 2947 
Q 922 2791 872 2484 
L 575 2484 
L 575 3156 
Q 875 3284 1158 3348 
Q 1441 3413 1709 3413 
Q 2400 3413 2761 3070 
Q 3122 2728 3122 2075 
z
" transform="scale(0.015625)"/>
       <path id="DejaVuSerif-76" d="M 1581 0 
L 359 2988 
L -19 2988 
L -19 3322 
L 1509 3322 
L 1509 2988 
L 978 2988 
L 1913 703 
L 2847 2988 
L 2350 2988 
L 2350 3322 
L 3597 3322 
L 3597 2988 
L 3225 2988 
L 2003 0 
L 1581 0 
z
" transform="scale(0.015625)"/>
       <path id="DejaVuSerif-2d" d="M 281 1959 
L 1881 1959 
L 1881 1472 
L 281 1472 
L 281 1959 
z
" transform="scale(0.015625)"/>
       <path id="DejaVuSerif-63" d="M 3291 997 
Q 3169 466 2822 187 
Q 2475 -91 1925 -91 
Q 1200 -91 759 389 
Q 319 869 319 1663 
Q 319 2459 759 2936 
Q 1200 3413 1925 3413 
Q 2241 3413 2553 3339 
Q 2866 3266 3181 3116 
L 3181 2266 
L 2847 2266 
Q 2781 2703 2561 2903 
Q 2341 3103 1931 3103 
Q 1466 3103 1228 2742 
Q 991 2381 991 1663 
Q 991 944 1227 581 
Q 1463 219 1931 219 
Q 2303 219 2525 412 
Q 2747 606 2828 997 
L 3291 997 
z
" transform="scale(0.015625)"/>
       <path id="DejaVuSerif-6f" d="M 1925 219 
Q 2388 219 2623 584 
Q 2859 950 2859 1663 
Q 2859 2375 2623 2739 
Q 2388 3103 1925 3103 
Q 1463 3103 1227 2739 
Q 991 2375 991 1663 
Q 991 950 1228 584 
Q 1466 219 1925 219 
z
M 1925 -91 
Q 1200 -91 759 389 
Q 319 869 319 1663 
Q 319 2456 758 2934 
Q 1197 3413 1925 3413 
Q 2653 3413 3092 2934 
Q 3531 2456 3531 1663 
Q 3531 869 3092 389 
Q 2653 -91 1925 -91 
z
" transform="scale(0.015625)"/>
       <path id="DejaVuSerif-6d" d="M 3316 2675 
Q 3481 3041 3739 3227 
Q 3997 3413 4341 3413 
Q 4863 3413 5119 3089 
Q 5375 2766 5375 2113 
L 5375 331 
L 5894 331 
L 5894 0 
L 4300 0 
L 4300 331 
L 4800 331 
L 4800 2047 
Q 4800 2556 4650 2772 
Q 4500 2988 4153 2988 
Q 3769 2988 3567 2697 
Q 3366 2406 3366 1850 
L 3366 331 
L 3866 331 
L 3866 0 
L 2291 0 
L 2291 331 
L 2791 331 
L 2791 2069 
Q 2791 2566 2641 2777 
Q 2491 2988 2144 2988 
Q 1759 2988 1557 2697 
Q 1356 2406 1356 1850 
L 1356 331 
L 1856 331 
L 1856 0 
L 263 0 
L 263 331 
L 781 331 
L 781 2994 
L 231 2994 
L 231 3322 
L 1356 3322 
L 1356 2731 
Q 1516 3063 1762 3238 
Q 2009 3413 2322 3413 
Q 2709 3413 2968 3220 
Q 3228 3028 3316 2675 
z
" transform="scale(0.015625)"/>
       <path id="DejaVuSerif-62" d="M 738 331 
L 738 4531 
L 184 4531 
L 184 4863 
L 1313 4863 
L 1313 2803 
Q 1481 3116 1742 3264 
Q 2003 3413 2388 3413 
Q 3000 3413 3387 2928 
Q 3775 2444 3775 1663 
Q 3775 881 3387 395 
Q 3000 -91 2388 -91 
Q 2003 -91 1742 57 
Q 1481 206 1313 519 
L 1313 0 
L 184 0 
L 184 331 
L 738 331 
z
M 1313 1497 
Q 1313 897 1542 583 
Q 1772 269 2209 269 
Q 2650 269 2876 622 
Q 3103 975 3103 1663 
Q 3103 2353 2876 2703 
Q 2650 3053 2209 3053 
Q 1772 3053 1542 2737 
Q 1313 2422 1313 1825 
L 1313 1497 
z
" transform="scale(0.015625)"/>
       <path id="DejaVuSerif-69" d="M 622 4353 
Q 622 4497 726 4603 
Q 831 4709 978 4709 
Q 1122 4709 1226 4603 
Q 1331 4497 1331 4353 
Q 1331 4206 1228 4103 
Q 1125 4000 978 4000 
Q 831 4000 726 4103 
Q 622 4206 622 4353 
z
M 1356 331 
L 1900 331 
L 1900 0 
L 231 0 
L 231 331 
L 781 331 
L 781 2988 
L 231 2988 
L 231 3322 
L 1356 3322 
L 1356 331 
z
" transform="scale(0.015625)"/>
       <path id="DejaVuSerif-6e" d="M 263 0 
L 263 331 
L 781 331 
L 781 2988 
L 231 2988 
L 231 3322 
L 1356 3322 
L 1356 2731 
Q 1516 3069 1770 3241 
Q 2025 3413 2363 3413 
Q 2913 3413 3172 3097 
Q 3431 2781 3431 2113 
L 3431 331 
L 3944 331 
L 3944 0 
L 2356 0 
L 2356 331 
L 2853 331 
L 2853 1931 
Q 2853 2541 2703 2767 
Q 2553 2994 2175 2994 
Q 1775 2994 1565 2701 
Q 1356 2409 1356 1850 
L 1356 331 
L 1856 331 
L 1856 0 
L 263 0 
z
" transform="scale(0.015625)"/>
       <path id="DejaVuSerif-74" d="M 691 2988 
L 184 2988 
L 184 3322 
L 691 3322 
L 691 4353 
L 1269 4353 
L 1269 3322 
L 2350 3322 
L 2350 2988 
L 1269 2988 
L 1269 878 
Q 1269 456 1350 337 
Q 1431 219 1650 219 
Q 1875 219 1978 351 
Q 2081 484 2088 781 
L 2522 781 
Q 2497 328 2275 118 
Q 2053 -91 1600 -91 
Q 1103 -91 897 129 
Q 691 350 691 878 
L 691 2988 
z
" transform="scale(0.015625)"/>
       <path id="DejaVuSerif-75" d="M 2266 3322 
L 3341 3322 
L 3341 331 
L 3884 331 
L 3884 0 
L 2766 0 
L 2766 588 
Q 2606 256 2353 82 
Q 2100 -91 1766 -91 
Q 1213 -91 952 223 
Q 691 538 691 1209 
L 691 2988 
L 172 2988 
L 172 3322 
L 1269 3322 
L 1269 1388 
Q 1269 781 1417 556 
Q 1566 331 1947 331 
Q 2347 331 2556 625 
Q 2766 919 2766 1478 
L 2766 2988 
L 2266 2988 
L 2266 3322 
z
" transform="scale(0.015625)"/>
      </defs>
      <use xlink:href="#DejaVuSerif-6c"/>
      <use xlink:href="#DejaVuSerif-65" x="31.982422"/>
      <use xlink:href="#DejaVuSerif-61" x="91.162109"/>
      <use xlink:href="#DejaVuSerif-76" x="150.78125"/>
      <use xlink:href="#DejaVuSerif-65" x="207.275391"/>
      <use xlink:href="#DejaVuSerif-2d" x="266.455078"/>
      <use xlink:href="#DejaVuSerif-63" x="300.244141"/>
      <use xlink:href="#DejaVuSerif-6f" x="356.25"/>
      <use xlink:href="#DejaVuSerif-6d" x="416.455078"/>
      <use xlink:href="#DejaVuSerif-62" x="511.279297"/>
      <use xlink:href="#DejaVuSerif-69" x="575.292969"/>
      <use xlink:href="#DejaVuSerif-6e" x="607.275391"/>
      <use xlink:href="#DejaVuSerif-61" x="671.679688"/>
      <use xlink:href="#DejaVuSerif-74" x="731.298828"/>
      <use xlink:href="#DejaVuSerif-69" x="771.484375"/>
      <use xlink:href="#DejaVuSerif-6f" x="803.466797"/>
      <use xlink:href="#DejaVuSerif-6e" x="863.671875"/>
      <use xlink:href="#DejaVuSerif-2d" x="928.076172"/>
      <use xlink:href="#DejaVuSerif-6f" x="961.865234"/>
      <use xlink:href="#DejaVuSerif-75" x="1022.070312"/>
      <use xlink:href="#DejaVuSerif-74" x="1086.474609"/>
     </g>
    </g>
   </g>
   <g id="matplotlib.axis_2">
    <g id="ytick_1">
     <g id="line2d_7">
      <defs>
       <path id="m31e0ecc8d6" d="M 0 0 
L -3.5 0 
" style="stroke: #000000; stroke-width: 0.8"/>
      </defs>
      <g>
       <use xlink:href="#m31e0ecc8d6" x="47.63" y="189.52" style="stroke: #000000; stroke-width: 0.8"/>
      </g>
     </g>
     <g id="text_2">
      <!-- 0.0 -->
      <g transform="translate(24.726875 193.319219) scale(0.1 -0.1)">
       <defs>
        <path id="DejaVuSerif-30" d="M 2034 219 
Q 2513 219 2750 744 
Q 2988 1269 2988 2328 
Q 2988 3391 2750 3916 
Q 2513 4441 2034 4441 
Q 1556 4441 1318 3916 
Q 1081 3391 1081 2328 
Q 1081 1269 1318 744 
Q 1556 219 2034 219 
z
M 2034 -91 
Q 1275 -91 848 546 
Q 422 1184 422 2328 
Q 422 3475 848 4112 
Q 1275 4750 2034 4750 
Q 2797 4750 3222 4112 
Q 3647 3475 3647 2328 
Q 3647 1184 3222 546 
Q 2797 -91 2034 -91 
z
" transform="scale(0.015625)"/>
        <path id="DejaVuSerif-2e" d="M 603 325 
Q 603 500 722 622 
Q 841 744 1019 744 
Q 1191 744 1312 622 
Q 1434 500 1434 325 
Q 1434 153 1312 31 
Q 1191 -91 1019 -91 
Q 841 -91 722 29 
Q 603 150 603 325 
z
" transform="scale(0.015625)"/>
       </defs>
       <use xlink:href="#DejaVuSerif-30"/>
       <use xlink:href="#DejaVuSerif-2e" x="63.623047"/>
       <use xlink:href="#DejaVuSerif-30" x="95.410156"/>
      </g>
     </g>
    </g>
    <g id="ytick_2">
     <g id="line2d_8">
      <g>
       <use xlink:href="#m31e0ecc8d6" x="47.63" y="154.568" style="stroke: #000000; stroke-width: 0.8"/>
      </g>
     </g>
     <g id="text_3">
      <!-- 0.2 -->
      <g transform="translate(24.726875 158.367219) scale(0.1 -0.1)">
       <defs>
        <path id="DejaVuSerif-32" d="M 819 3553 
L 469 3553 
L 469 4384 
Q 803 4563 1142 4656 
Q 1481 4750 1806 4750 
Q 2534 4750 2956 4397 
Q 3378 4044 3378 3438 
Q 3378 2753 2422 1800 
Q 2347 1728 2309 1691 
L 1131 513 
L 3078 513 
L 3078 1088 
L 3444 1088 
L 3444 0 
L 434 0 
L 434 341 
L 1850 1753 
Q 2319 2222 2519 2614 
Q 2719 3006 2719 3438 
Q 2719 3909 2473 4175 
Q 2228 4441 1797 4441 
Q 1350 4441 1106 4219 
Q 863 3997 819 3553 
z
" transform="scale(0.015625)"/>
       </defs>
       <use xlink:href="#DejaVuSerif-30"/>
       <use xlink:href="#DejaVuSerif-2e" x="63.623047"/>
       <use xlink:href="#DejaVuSerif-32" x="95.410156"/>
      </g>
     </g>
    </g>
    <g id="ytick_3">
     <g id="line2d_9">
      <g>
       <use xlink:href="#m31e0ecc8d6" x="47.63" y="119.616" style="stroke: #000000; stroke-width: 0.8"/>
      </g>
     </g>
     <g id="text_4">
      <!-- 0.4 -->
      <g transform="translate(24.726875 123.415219) scale(0.1 -0.1)">
       <defs>
        <path id="DejaVuSerif-34" d="M 2234 1581 
L 2234 4063 
L 641 1581 
L 2234 1581 
z
M 3609 0 
L 1484 0 
L 1484 331 
L 2234 331 
L 2234 1247 
L 197 1247 
L 197 1588 
L 2241 4750 
L 2859 4750 
L 2859 1581 
L 3750 1581 
L 3750 1247 
L 2859 1247 
L 2859 331 
L 3609 331 
L 3609 0 
z
" transform="scale(0.015625)"/>
       </defs>
       <use xlink:href="#DejaVuSerif-30"/>
       <use xlink:href="#DejaVuSerif-2e" x="63.623047"/>
       <use xlink:href="#DejaVuSerif-34" x="95.410156"/>
      </g>
     </g>
    </g>
    <g id="ytick_4">
     <g id="line2d_10">
      <g>
       <use xlink:href="#m31e0ecc8d6" x="47.63" y="84.664" style="stroke: #000000; stroke-width: 0.8"/>
      </g>
     </g>
     <g id="text_5">
      <!-- 0.6 -->
      <g transform="translate(24.726875 88.463219) scale(0.1 -0.1)">
       <defs>
        <path id="DejaVuSerif-36" d="M 2094 219 
Q 2534 219 2771 542 
Q 3009 866 3009 1472 
Q 3009 2078 2771 2401 
Q 2534 2725 2094 2725 
Q 1647 2725 1412 2412 
Q 1178 2100 1178 1509 
Q 1178 888 1415 553 
Q 1653 219 2094 219 
z
M 1075 2569 
Q 1288 2803 1556 2918 
Q 1825 3034 2163 3034 
Q 2859 3034 3264 2615 
Q 3669 2197 3669 1472 
Q 3669 763 3233 336 
Q 2797 -91 2069 -91 
Q 1278 -91 853 498 
Q 428 1088 428 2181 
Q 428 3406 931 4078 
Q 1434 4750 2350 4750 
Q 2597 4750 2869 4703 
Q 3141 4656 3425 4563 
L 3425 3794 
L 3072 3794 
Q 3034 4109 2831 4275 
Q 2628 4441 2284 4441 
Q 1678 4441 1381 3981 
Q 1084 3522 1075 2569 
z
" transform="scale(0.015625)"/>
       </defs>
       <use xlink:href="#DejaVuSerif-30"/>
       <use xlink:href="#DejaVuSerif-2e" x="63.623047"/>
       <use xlink:href="#DejaVuSerif-36" x="95.410156"/>
      </g>
     </g>
    </g>
    <g id="ytick_5">
     <g id="line2d_11">
      <g>
       <use xlink:href="#m31e0ecc8d6" x="47.63" y="49.712" style="stroke: #000000; stroke-width: 0.8"/>
      </g>
     </g>
     <g id="text_6">
      <!-- 0.8 -->
      <g transform="translate(24.726875 53.511219) scale(0.1 -0.1)">
       <defs>
        <path id="DejaVuSerif-38" d="M 2981 1275 
Q 2981 1775 2732 2051 
Q 2484 2328 2034 2328 
Q 1584 2328 1336 2051 
Q 1088 1775 1088 1275 
Q 1088 772 1336 495 
Q 1584 219 2034 219 
Q 2484 219 2732 495 
Q 2981 772 2981 1275 
z
M 2853 3541 
Q 2853 3966 2637 4203 
Q 2422 4441 2034 4441 
Q 1650 4441 1433 4203 
Q 1216 3966 1216 3541 
Q 1216 3113 1433 2875 
Q 1650 2638 2034 2638 
Q 2422 2638 2637 2875 
Q 2853 3113 2853 3541 
z
M 2516 2484 
Q 3047 2413 3344 2092 
Q 3641 1772 3641 1275 
Q 3641 619 3225 264 
Q 2809 -91 2034 -91 
Q 1263 -91 845 264 
Q 428 619 428 1275 
Q 428 1772 725 2092 
Q 1022 2413 1556 2484 
Q 1084 2569 832 2842 
Q 581 3116 581 3541 
Q 581 4103 968 4426 
Q 1356 4750 2034 4750 
Q 2713 4750 3100 4426 
Q 3488 4103 3488 3541 
Q 3488 3116 3236 2842 
Q 2984 2569 2516 2484 
z
" transform="scale(0.015625)"/>
       </defs>
       <use xlink:href="#DejaVuSerif-30"/>
       <use xlink:href="#DejaVuSerif-2e" x="63.623047"/>
       <use xlink:href="#DejaVuSerif-38" x="95.410156"/>
      </g>
     </g>
    </g>
    <g id="ytick_6">
     <g id="line2d_12">
      <g>
       <use xlink:href="#m31e0ecc8d6" x="47.63" y="14.76" style="stroke: #000000; stroke-width: 0.8"/>
      </g>
     </g>
     <g id="text_7">
      <!-- 1.0 -->
      <g transform="translate(24.726875 18.559219) scale(0.1 -0.1)">
       <defs>
        <path id="DejaVuSerif-31" d="M 909 0 
L 909 331 
L 1722 331 
L 1722 4213 
L 781 3603 
L 781 4013 
L 1919 4750 
L 2350 4750 
L 2350 331 
L 3163 331 
L 3163 0 
L 909 0 
z
" transform="scale(0.015625)"/>
       </defs>
       <use xlink:href="#DejaVuSerif-31"/>
       <use xlink:href="#DejaVuSerif-2e" x="63.623047"/>
       <use xlink:href="#DejaVuSerif-30" x="95.410156"/>
      </g>
     </g>
    </g>
    <g id="text_8">
     <!-- Recall -->
     <g transform="translate(18.647187 117.843906) rotate(-90) scale(0.1 -0.1)">
      <defs>
       <path id="DejaVuSerif-52" d="M 3066 2316 
Q 3284 2256 3442 2114 
Q 3600 1972 3725 1716 
L 4403 331 
L 4972 331 
L 4972 0 
L 3872 0 
L 3144 1484 
Q 2934 1916 2759 2042 
Q 2584 2169 2278 2169 
L 1581 2169 
L 1581 331 
L 2241 331 
L 2241 0 
L 353 0 
L 353 331 
L 947 331 
L 947 4331 
L 353 4331 
L 353 4666 
L 2719 4666 
Q 3400 4666 3770 4341 
Q 4141 4016 4141 3419 
Q 4141 2938 3870 2661 
Q 3600 2384 3066 2316 
z
M 1581 2503 
L 2503 2503 
Q 2975 2503 3200 2726 
Q 3425 2950 3425 3419 
Q 3425 3888 3200 4109 
Q 2975 4331 2503 4331 
L 1581 4331 
L 1581 2503 
z
" transform="scale(0.015625)"/>
      </defs>
      <use xlink:href="#DejaVuSerif-52"/>
      <use xlink:href="#DejaVuSerif-65" x="75.292969"/>
      <use xlink:href="#DejaVuSerif-63" x="134.472656"/>
      <use xlink:href="#DejaVuSerif-61" x="190.478516"/>
      <use xlink:href="#DejaVuSerif-6c" x="250.097656"/>
      <use xlink:href="#DejaVuSerif-6c" x="282.080078"/>
     </g>
    </g>
   </g>
   <g id="line2d_13">
    <path d="M 58.210833 161.28806 
L 58.210833 148.086806 
" clip-path="url(#p8811c146e0)" style="fill: none; stroke: #424242; stroke-width: 2.7; stroke-linecap: square"/>
   </g>
   <g id="line2d_14">
    <path d="M 79.3725 132.390534 
L 79.3725 115.108244 
" clip-path="url(#p8811c146e0)" style="fill: none; stroke: #424242; stroke-width: 2.7; stroke-linecap: square"/>
   </g>
   <g id="line2d_15">
    <path d="M 100.534167 135.090226 
L 100.534167 117.247894 
" clip-path="url(#p8811c146e0)" style="fill: none; stroke: #424242; stroke-width: 2.7; stroke-linecap: square"/>
   </g>
   <g id="line2d_16">
    <path d="M 121.695833 120.421004 
L 121.695833 95.043542 
" clip-path="url(#p8811c146e0)" style="fill: none; stroke: #424242; stroke-width: 2.7; stroke-linecap: square"/>
   </g>
   <g id="line2d_17">
    <path d="M 142.8575 125.112094 
L 142.8575 96.850801 
" clip-path="url(#p8811c146e0)" style="fill: none; stroke: #424242; stroke-width: 2.7; stroke-linecap: square"/>
   </g>
   <g id="line2d_18">
    <path d="M 164.019167 117.153562 
L 164.019167 92.089052 
" clip-path="url(#p8811c146e0)" style="fill: none; stroke: #424242; stroke-width: 2.7; stroke-linecap: square"/>
   </g>
   <g id="line2d_19">
    <path d="M 79.3725 86.19448 
L 79.3725 84.14843 
L 100.534167 84.14843 
L 100.534167 86.19448 
" style="fill: none; stroke: #333333; stroke-width: 1.5; stroke-linecap: square"/>
   </g>
   <g id="line2d_20">
    <path d="M 100.534167 78.186197 
L 100.534167 76.140147 
L 121.695833 76.140147 
L 121.695833 78.186197 
" style="fill: none; stroke: #333333; stroke-width: 1.5; stroke-linecap: square"/>
   </g>
   <g id="line2d_21">
    <path d="M 58.210833 70.177914 
L 58.210833 68.131864 
L 100.534167 68.131864 
L 100.534167 70.177914 
" style="fill: none; stroke: #333333; stroke-width: 1.5; stroke-linecap: square"/>
   </g>
   <g id="line2d_22">
    <path d="M 100.534167 62.169632 
L 100.534167 60.123582 
L 164.019167 60.123582 
L 164.019167 62.169632 
" style="fill: none; stroke: #333333; stroke-width: 1.5; stroke-linecap: square"/>
   </g>
   <g id="patch_9">
    <path d="M 47.63 189.52 
L 47.63 14.76 
" style="fill: none; stroke: #000000; stroke-width: 0.8; stroke-linejoin: miter; stroke-linecap: square"/>
   </g>
   <g id="patch_10">
    <path d="M 47.63 189.52 
L 174.6 189.52 
" style="fill: none; stroke: #000000; stroke-width: 0.8; stroke-linejoin: miter; stroke-linecap: square"/>
   </g>
   <g id="text_9">
    <!-- ns -->
    <g transform="translate(85.324583 82.38468) scale(0.08 -0.08)">
     <defs>
      <path id="DejaVuSerif-73" d="M 359 184 
L 359 959 
L 691 959 
Q 703 588 923 403 
Q 1144 219 1575 219 
Q 1963 219 2166 364 
Q 2369 509 2369 788 
Q 2369 1006 2220 1140 
Q 2072 1275 1594 1428 
L 1178 1569 
Q 750 1706 558 1912 
Q 366 2119 366 2438 
Q 366 2894 700 3153 
Q 1034 3413 1625 3413 
Q 1888 3413 2178 3344 
Q 2469 3275 2778 3144 
L 2778 2419 
L 2447 2419 
Q 2434 2741 2221 2922 
Q 2009 3103 1644 3103 
Q 1281 3103 1095 2975 
Q 909 2847 909 2591 
Q 909 2381 1050 2254 
Q 1191 2128 1613 1997 
L 2069 1856 
Q 2541 1709 2748 1489 
Q 2956 1269 2956 922 
Q 2956 450 2595 179 
Q 2234 -91 1600 -91 
Q 1278 -91 972 -22 
Q 666 47 359 184 
z
" transform="scale(0.015625)"/>
     </defs>
     <use xlink:href="#DejaVuSerif-6e"/>
     <use xlink:href="#DejaVuSerif-73" x="64.404297"/>
    </g>
   </g>
   <g id="text_10">
    <!-- * -->
    <g transform="translate(109.115 74.376397) scale(0.08 -0.08)">
     <defs>
      <path id="DejaVuSerif-2a" d="M 3097 3866 
L 1875 3297 
L 3097 2719 
L 2859 2350 
L 1772 3028 
L 1813 1838 
L 1388 1838 
L 1428 3028 
L 341 2350 
L 103 2719 
L 1325 3291 
L 103 3866 
L 341 4238 
L 1428 3559 
L 1388 4750 
L 1813 4750 
L 1772 3559 
L 2859 4238 
L 3097 3866 
z
" transform="scale(0.015625)"/>
     </defs>
     <use xlink:href="#DejaVuSerif-2a"/>
    </g>
   </g>
   <g id="text_11">
    <!-- ** -->
    <g transform="translate(75.3725 66.368114) scale(0.08 -0.08)">
     <use xlink:href="#DejaVuSerif-2a"/>
     <use xlink:href="#DejaVuSerif-2a" x="50"/>
    </g>
   </g>
   <g id="text_12">
    <!-- ** -->
    <g transform="translate(128.276667 58.359832) scale(0.08 -0.08)">
     <use xlink:href="#DejaVuSerif-2a"/>
     <use xlink:href="#DejaVuSerif-2a" x="50"/>
    </g>
   </g>
  </g>
  <g id="axes_2">
   <g id="patch_11">
    <path d="M 222.23 189.52 
L 349.2 189.52 
L 349.2 14.76 
L 222.23 14.76 
L 222.23 189.52 
z
" style="fill: none"/>
   </g>
   <g id="patch_12">
    <path d="M 224.346167 189.52 
L 241.2755 189.52 
L 241.2755 185.633672 
L 224.346167 185.633672 
z
" clip-path="url(#pbdd61bc247)" style="fill: #767ee7"/>
   </g>
   <g id="patch_13">
    <path d="M 245.507833 189.52 
L 262.437167 189.52 
L 262.437167 179.348873 
L 245.507833 179.348873 
z
" clip-path="url(#pbdd61bc247)" style="fill: #d96552"/>
   </g>
   <g id="patch_14">
    <path d="M 266.6695 189.52 
L 283.598833 189.52 
L 283.598833 160.525824 
L 266.6695 160.525824 
z
" clip-path="url(#pbdd61bc247)" style="fill: #19b38a"/>
   </g>
   <g id="patch_15">
    <path d="M 287.831167 189.52 
L 304.7605 189.52 
L 304.7605 176.376351 
L 287.831167 176.376351 
z
" clip-path="url(#pbdd61bc247)" style="fill: #ac76e7"/>
   </g>
   <g id="patch_16">
    <path d="M 308.992833 189.52 
L 325.922167 189.52 
L 325.922167 169.955123 
L 308.992833 169.955123 
z
" clip-path="url(#pbdd61bc247)" style="fill: #eaa46f"/>
   </g>
   <g id="patch_17">
    <path d="M 330.1545 189.52 
L 347.083833 189.52 
L 347.083833 150.560542 
L 330.1545 150.560542 
z
" clip-path="url(#pbdd61bc247)" style="fill: #34c0d8"/>
   </g>
   <g id="matplotlib.axis_3">
    <g id="xtick_7">
     <g id="line2d_23">
      <g>
       <use xlink:href="#mdb02d920c4" x="232.810833" y="189.52" style="stroke: #000000; stroke-width: 0.8"/>
      </g>
     </g>
    </g>
    <g id="xtick_8">
     <g id="line2d_24">
      <g>
       <use xlink:href="#mdb02d920c4" x="253.9725" y="189.52" style="stroke: #000000; stroke-width: 0.8"/>
      </g>
     </g>
    </g>
    <g id="xtick_9">
     <g id="line2d_25">
      <g>
       <use xlink:href="#mdb02d920c4" x="275.134167" y="189.52" style="stroke: #000000; stroke-width: 0.8"/>
      </g>
     </g>
    </g>
    <g id="xtick_10">
     <g id="line2d_26">
      <g>
       <use xlink:href="#mdb02d920c4" x="296.295833" y="189.52" style="stroke: #000000; stroke-width: 0.8"/>
      </g>
     </g>
    </g>
    <g id="xtick_11">
     <g id="line2d_27">
      <g>
       <use xlink:href="#mdb02d920c4" x="317.4575" y="189.52" style="stroke: #000000; stroke-width: 0.8"/>
      </g>
     </g>
    </g>
    <g id="xtick_12">
     <g id="line2d_28">
      <g>
       <use xlink:href="#mdb02d920c4" x="338.619167" y="189.52" style="stroke: #000000; stroke-width: 0.8"/>
      </g>
     </g>
    </g>
    <g id="text_13">
     <!-- leave-drug-out -->
     <g transform="translate(248.759531 208.118438) scale(0.1 -0.1)">
      <defs>
       <path id="DejaVuSerif-64" d="M 3359 331 
L 3909 331 
L 3909 0 
L 2784 0 
L 2784 519 
Q 2616 206 2355 57 
Q 2094 -91 1709 -91 
Q 1097 -91 708 395 
Q 319 881 319 1663 
Q 319 2444 706 2928 
Q 1094 3413 1709 3413 
Q 2094 3413 2355 3264 
Q 2616 3116 2784 2803 
L 2784 4531 
L 2241 4531 
L 2241 4863 
L 3359 4863 
L 3359 331 
z
M 2784 1497 
L 2784 1825 
Q 2784 2422 2554 2737 
Q 2325 3053 1888 3053 
Q 1444 3053 1217 2703 
Q 991 2353 991 1663 
Q 991 975 1217 622 
Q 1444 269 1888 269 
Q 2325 269 2554 583 
Q 2784 897 2784 1497 
z
" transform="scale(0.015625)"/>
       <path id="DejaVuSerif-72" d="M 3059 3328 
L 3059 2497 
L 2728 2497 
Q 2713 2744 2591 2866 
Q 2469 2988 2234 2988 
Q 1809 2988 1582 2694 
Q 1356 2400 1356 1850 
L 1356 331 
L 2022 331 
L 2022 0 
L 263 0 
L 263 331 
L 781 331 
L 781 2994 
L 231 2994 
L 231 3322 
L 1356 3322 
L 1356 2731 
Q 1525 3078 1790 3245 
Q 2056 3413 2438 3413 
Q 2578 3413 2733 3391 
Q 2888 3369 3059 3328 
z
" transform="scale(0.015625)"/>
       <path id="DejaVuSerif-67" d="M 3359 2988 
L 3359 72 
Q 3359 -644 2965 -1033 
Q 2572 -1422 1844 -1422 
Q 1516 -1422 1216 -1362 
Q 916 -1303 641 -1184 
L 641 -488 
L 941 -488 
Q 997 -813 1206 -963 
Q 1416 -1113 1806 -1113 
Q 2313 -1113 2548 -827 
Q 2784 -541 2784 72 
L 2784 519 
Q 2616 206 2355 57 
Q 2094 -91 1709 -91 
Q 1097 -91 708 395 
Q 319 881 319 1663 
Q 319 2444 706 2928 
Q 1094 3413 1709 3413 
Q 2094 3413 2355 3264 
Q 2616 3116 2784 2803 
L 2784 3322 
L 3909 3322 
L 3909 2988 
L 3359 2988 
z
M 2784 1825 
Q 2784 2422 2554 2737 
Q 2325 3053 1888 3053 
Q 1444 3053 1217 2703 
Q 991 2353 991 1663 
Q 991 975 1217 622 
Q 1444 269 1888 269 
Q 2325 269 2554 583 
Q 2784 897 2784 1497 
L 2784 1825 
z
" transform="scale(0.015625)"/>
      </defs>
      <use xlink:href="#DejaVuSerif-6c"/>
      <use xlink:href="#DejaVuSerif-65" x="31.982422"/>
      <use xlink:href="#DejaVuSerif-61" x="91.162109"/>
      <use xlink:href="#DejaVuSerif-76" x="150.78125"/>
      <use xlink:href="#DejaVuSerif-65" x="207.275391"/>
      <use xlink:href="#DejaVuSerif-2d" x="266.455078"/>
      <use xlink:href="#DejaVuSerif-64" x="300.244141"/>
      <use xlink:href="#DejaVuSerif-72" x="364.257812"/>
      <use xlink:href="#DejaVuSerif-75" x="412.060547"/>
      <use xlink:href="#DejaVuSerif-67" x="476.464844"/>
      <use xlink:href="#DejaVuSerif-2d" x="540.478516"/>
      <use xlink:href="#DejaVuSerif-6f" x="574.267578"/>
      <use xlink:href="#DejaVuSerif-75" x="634.472656"/>
      <use xlink:href="#DejaVuSerif-74" x="698.876953"/>
     </g>
    </g>
   </g>
   <g id="matplotlib.axis_4">
    <g id="ytick_7">
     <g id="line2d_29">
      <g>
       <use xlink:href="#m31e0ecc8d6" x="222.23" y="189.52" style="stroke: #000000; stroke-width: 0.8"/>
      </g>
     </g>
     <g id="text_14">
      <!-- 0.0 -->
      <g transform="translate(199.326875 193.319219) scale(0.1 -0.1)">
       <use xlink:href="#DejaVuSerif-30"/>
       <use xlink:href="#DejaVuSerif-2e" x="63.623047"/>
       <use xlink:href="#DejaVuSerif-30" x="95.410156"/>
      </g>
     </g>
    </g>
    <g id="ytick_8">
     <g id="line2d_30">
      <g>
       <use xlink:href="#m31e0ecc8d6" x="222.23" y="154.568" style="stroke: #000000; stroke-width: 0.8"/>
      </g>
     </g>
     <g id="text_15">
      <!-- 0.2 -->
      <g transform="translate(199.326875 158.367219) scale(0.1 -0.1)">
       <use xlink:href="#DejaVuSerif-30"/>
       <use xlink:href="#DejaVuSerif-2e" x="63.623047"/>
       <use xlink:href="#DejaVuSerif-32" x="95.410156"/>
      </g>
     </g>
    </g>
    <g id="ytick_9">
     <g id="line2d_31">
      <g>
       <use xlink:href="#m31e0ecc8d6" x="222.23" y="119.616" style="stroke: #000000; stroke-width: 0.8"/>
      </g>
     </g>
     <g id="text_16">
      <!-- 0.4 -->
      <g transform="translate(199.326875 123.415219) scale(0.1 -0.1)">
       <use xlink:href="#DejaVuSerif-30"/>
       <use xlink:href="#DejaVuSerif-2e" x="63.623047"/>
       <use xlink:href="#DejaVuSerif-34" x="95.410156"/>
      </g>
     </g>
    </g>
    <g id="ytick_10">
     <g id="line2d_32">
      <g>
       <use xlink:href="#m31e0ecc8d6" x="222.23" y="84.664" style="stroke: #000000; stroke-width: 0.8"/>
      </g>
     </g>
     <g id="text_17">
      <!-- 0.6 -->
      <g transform="translate(199.326875 88.463219) scale(0.1 -0.1)">
       <use xlink:href="#DejaVuSerif-30"/>
       <use xlink:href="#DejaVuSerif-2e" x="63.623047"/>
       <use xlink:href="#DejaVuSerif-36" x="95.410156"/>
      </g>
     </g>
    </g>
    <g id="ytick_11">
     <g id="line2d_33">
      <g>
       <use xlink:href="#m31e0ecc8d6" x="222.23" y="49.712" style="stroke: #000000; stroke-width: 0.8"/>
      </g>
     </g>
     <g id="text_18">
      <!-- 0.8 -->
      <g transform="translate(199.326875 53.511219) scale(0.1 -0.1)">
       <use xlink:href="#DejaVuSerif-30"/>
       <use xlink:href="#DejaVuSerif-2e" x="63.623047"/>
       <use xlink:href="#DejaVuSerif-38" x="95.410156"/>
      </g>
     </g>
    </g>
    <g id="ytick_12">
     <g id="line2d_34">
      <g>
       <use xlink:href="#m31e0ecc8d6" x="222.23" y="14.76" style="stroke: #000000; stroke-width: 0.8"/>
      </g>
     </g>
     <g id="text_19">
      <!-- 1.0 -->
      <g transform="translate(199.326875 18.559219) scale(0.1 -0.1)">
       <use xlink:href="#DejaVuSerif-31"/>
       <use xlink:href="#DejaVuSerif-2e" x="63.623047"/>
       <use xlink:href="#DejaVuSerif-30" x="95.410156"/>
      </g>
     </g>
    </g>
    <g id="text_20">
     <!-- Recall -->
     <g transform="translate(193.247187 117.843906) rotate(-90) scale(0.1 -0.1)">
      <use xlink:href="#DejaVuSerif-52"/>
      <use xlink:href="#DejaVuSerif-65" x="75.292969"/>
      <use xlink:href="#DejaVuSerif-63" x="134.472656"/>
      <use xlink:href="#DejaVuSerif-61" x="190.478516"/>
      <use xlink:href="#DejaVuSerif-6c" x="250.097656"/>
      <use xlink:href="#DejaVuSerif-6c" x="282.080078"/>
     </g>
    </g>
   </g>
   <g id="line2d_35">
    <path d="M 232.810833 188.010499 
L 232.810833 182.887596 
" clip-path="url(#pbdd61bc247)" style="fill: none; stroke: #424242; stroke-width: 2.7; stroke-linecap: square"/>
   </g>
   <g id="line2d_36">
    <path d="M 253.9725 183.537823 
L 253.9725 174.651456 
" clip-path="url(#pbdd61bc247)" style="fill: none; stroke: #424242; stroke-width: 2.7; stroke-linecap: square"/>
   </g>
   <g id="line2d_37">
    <path d="M 275.134167 171.794658 
L 275.134167 149.419868 
" clip-path="url(#pbdd61bc247)" style="fill: none; stroke: #424242; stroke-width: 2.7; stroke-linecap: square"/>
   </g>
   <g id="line2d_38">
    <path d="M 296.295833 183.48018 
L 296.295833 168.573559 
" clip-path="url(#pbdd61bc247)" style="fill: none; stroke: #424242; stroke-width: 2.7; stroke-linecap: square"/>
   </g>
   <g id="line2d_39">
    <path d="M 317.4575 180.368697 
L 317.4575 158.597587 
" clip-path="url(#pbdd61bc247)" style="fill: none; stroke: #424242; stroke-width: 2.7; stroke-linecap: square"/>
   </g>
   <g id="line2d_40">
    <path d="M 338.619167 165.249757 
L 338.619167 132.091731 
" clip-path="url(#pbdd61bc247)" style="fill: none; stroke: #424242; stroke-width: 2.7; stroke-linecap: square"/>
   </g>
   <g id="line2d_41">
    <path d="M 253.9725 128.61732 
L 253.9725 127.411327 
L 275.134167 127.411327 
L 275.134167 128.61732 
" style="fill: none; stroke: #333333; stroke-width: 1.5; stroke-linecap: square"/>
   </g>
   <g id="line2d_42">
    <path d="M 275.134167 123.897036 
L 275.134167 122.691042 
L 296.295833 122.691042 
L 296.295833 123.897036 
" style="fill: none; stroke: #333333; stroke-width: 1.5; stroke-linecap: square"/>
   </g>
   <g id="line2d_43">
    <path d="M 232.810833 119.176751 
L 232.810833 117.970757 
L 275.134167 117.970757 
L 275.134167 119.176751 
" style="fill: none; stroke: #333333; stroke-width: 1.5; stroke-linecap: square"/>
   </g>
   <g id="line2d_44">
    <path d="M 275.134167 114.456466 
L 275.134167 113.250473 
L 338.619167 113.250473 
L 338.619167 114.456466 
" style="fill: none; stroke: #333333; stroke-width: 1.5; stroke-linecap: square"/>
   </g>
   <g id="patch_18">
    <path d="M 222.23 189.52 
L 222.23 14.76 
" style="fill: none; stroke: #000000; stroke-width: 0.8; stroke-linejoin: miter; stroke-linecap: square"/>
   </g>
   <g id="patch_19">
    <path d="M 222.23 189.52 
L 349.2 189.52 
" style="fill: none; stroke: #000000; stroke-width: 0.8; stroke-linejoin: miter; stroke-linecap: square"/>
   </g>
   <g id="text_21">
    <!-- ** -->
    <g transform="translate(260.553333 125.647577) scale(0.08 -0.08)">
     <use xlink:href="#DejaVuSerif-2a"/>
     <use xlink:href="#DejaVuSerif-2a" x="50"/>
    </g>
   </g>
   <g id="text_22">
    <!-- ns -->
    <g transform="translate(281.08625 120.927292) scale(0.08 -0.08)">
     <use xlink:href="#DejaVuSerif-6e"/>
     <use xlink:href="#DejaVuSerif-73" x="64.404297"/>
    </g>
   </g>
   <g id="text_23">
    <!-- ** -->
    <g transform="translate(249.9725 116.207007) scale(0.08 -0.08)">
     <use xlink:href="#DejaVuSerif-2a"/>
     <use xlink:href="#DejaVuSerif-2a" x="50"/>
    </g>
   </g>
   <g id="text_24">
    <!-- ns -->
    <g transform="translate(302.247917 111.486723) scale(0.08 -0.08)">
     <use xlink:href="#DejaVuSerif-6e"/>
     <use xlink:href="#DejaVuSerif-73" x="64.404297"/>
    </g>
   </g>
  </g>
  <g id="axes_3">
   <g id="patch_20">
    <path d="M 47.63 400.12 
L 174.6 400.12 
L 174.6 225.36 
L 47.63 225.36 
L 47.63 400.12 
z
" style="fill: none"/>
   </g>
   <g id="patch_21">
    <path d="M 49.746167 400.12 
L 66.6755 400.12 
L 66.6755 354.172075 
L 49.746167 354.172075 
z
" clip-path="url(#pab90a926aa)" style="fill: #767ee7"/>
   </g>
   <g id="patch_22">
    <path d="M 70.907833 400.12 
L 87.837167 400.12 
L 87.837167 346.756595 
L 70.907833 346.756595 
z
" clip-path="url(#pab90a926aa)" style="fill: #d96552"/>
   </g>
   <g id="patch_23">
    <path d="M 92.0695 400.12 
L 108.998833 400.12 
L 108.998833 343.318806 
L 92.0695 343.318806 
z
" clip-path="url(#pab90a926aa)" style="fill: #19b38a"/>
   </g>
   <g id="patch_24">
    <path d="M 113.231167 400.12 
L 130.1605 400.12 
L 130.1605 333.049502 
L 113.231167 333.049502 
z
" clip-path="url(#pab90a926aa)" style="fill: #ac76e7"/>
   </g>
   <g id="patch_25">
    <path d="M 134.392833 400.12 
L 151.322167 400.12 
L 151.322167 331.791236 
L 134.392833 331.791236 
z
" clip-path="url(#pab90a926aa)" style="fill: #eaa46f"/>
   </g>
   <g id="patch_26">
    <path d="M 155.5545 400.12 
L 172.483833 400.12 
L 172.483833 333.017227 
L 155.5545 333.017227 
z
" clip-path="url(#pab90a926aa)" style="fill: #34c0d8"/>
   </g>
   <g id="matplotlib.axis_5">
    <g id="xtick_13">
     <g id="line2d_45">
      <g>
       <use xlink:href="#mdb02d920c4" x="58.210833" y="400.12" style="stroke: #000000; stroke-width: 0.8"/>
      </g>
     </g>
    </g>
    <g id="xtick_14">
     <g id="line2d_46">
      <g>
       <use xlink:href="#mdb02d920c4" x="79.3725" y="400.12" style="stroke: #000000; stroke-width: 0.8"/>
      </g>
     </g>
    </g>
    <g id="xtick_15">
     <g id="line2d_47">
      <g>
       <use xlink:href="#mdb02d920c4" x="100.534167" y="400.12" style="stroke: #000000; stroke-width: 0.8"/>
      </g>
     </g>
    </g>
    <g id="xtick_16">
     <g id="line2d_48">
      <g>
       <use xlink:href="#mdb02d920c4" x="121.695833" y="400.12" style="stroke: #000000; stroke-width: 0.8"/>
      </g>
     </g>
    </g>
    <g id="xtick_17">
     <g id="line2d_49">
      <g>
       <use xlink:href="#mdb02d920c4" x="142.8575" y="400.12" style="stroke: #000000; stroke-width: 0.8"/>
      </g>
     </g>
    </g>
    <g id="xtick_18">
     <g id="line2d_50">
      <g>
       <use xlink:href="#mdb02d920c4" x="164.019167" y="400.12" style="stroke: #000000; stroke-width: 0.8"/>
      </g>
     </g>
    </g>
    <g id="text_25">
     <!-- leave-cell-out -->
     <g transform="translate(77.213437 418.718437) scale(0.1 -0.1)">
      <use xlink:href="#DejaVuSerif-6c"/>
      <use xlink:href="#DejaVuSerif-65" x="31.982422"/>
      <use xlink:href="#DejaVuSerif-61" x="91.162109"/>
      <use xlink:href="#DejaVuSerif-76" x="150.78125"/>
      <use xlink:href="#DejaVuSerif-65" x="207.275391"/>
      <use xlink:href="#DejaVuSerif-2d" x="266.455078"/>
      <use xlink:href="#DejaVuSerif-63" x="300.244141"/>
      <use xlink:href="#DejaVuSerif-65" x="356.25"/>
      <use xlink:href="#DejaVuSerif-6c" x="415.429688"/>
      <use xlink:href="#DejaVuSerif-6c" x="447.412109"/>
      <use xlink:href="#DejaVuSerif-2d" x="479.394531"/>
      <use xlink:href="#DejaVuSerif-6f" x="513.183594"/>
      <use xlink:href="#DejaVuSerif-75" x="573.388672"/>
      <use xlink:href="#DejaVuSerif-74" x="637.792969"/>
     </g>
    </g>
   </g>
   <g id="matplotlib.axis_6">
    <g id="ytick_13">
     <g id="line2d_51">
      <g>
       <use xlink:href="#m31e0ecc8d6" x="47.63" y="400.12" style="stroke: #000000; stroke-width: 0.8"/>
      </g>
     </g>
     <g id="text_26">
      <!-- 0.0 -->
      <g transform="translate(24.726875 403.919219) scale(0.1 -0.1)">
       <use xlink:href="#DejaVuSerif-30"/>
       <use xlink:href="#DejaVuSerif-2e" x="63.623047"/>
       <use xlink:href="#DejaVuSerif-30" x="95.410156"/>
      </g>
     </g>
    </g>
    <g id="ytick_14">
     <g id="line2d_52">
      <g>
       <use xlink:href="#m31e0ecc8d6" x="47.63" y="365.168" style="stroke: #000000; stroke-width: 0.8"/>
      </g>
     </g>
     <g id="text_27">
      <!-- 0.2 -->
      <g transform="translate(24.726875 368.967219) scale(0.1 -0.1)">
       <use xlink:href="#DejaVuSerif-30"/>
       <use xlink:href="#DejaVuSerif-2e" x="63.623047"/>
       <use xlink:href="#DejaVuSerif-32" x="95.410156"/>
      </g>
     </g>
    </g>
    <g id="ytick_15">
     <g id="line2d_53">
      <g>
       <use xlink:href="#m31e0ecc8d6" x="47.63" y="330.216" style="stroke: #000000; stroke-width: 0.8"/>
      </g>
     </g>
     <g id="text_28">
      <!-- 0.4 -->
      <g transform="translate(24.726875 334.015219) scale(0.1 -0.1)">
       <use xlink:href="#DejaVuSerif-30"/>
       <use xlink:href="#DejaVuSerif-2e" x="63.623047"/>
       <use xlink:href="#DejaVuSerif-34" x="95.410156"/>
      </g>
     </g>
    </g>
    <g id="ytick_16">
     <g id="line2d_54">
      <g>
       <use xlink:href="#m31e0ecc8d6" x="47.63" y="295.264" style="stroke: #000000; stroke-width: 0.8"/>
      </g>
     </g>
     <g id="text_29">
      <!-- 0.6 -->
      <g transform="translate(24.726875 299.063219) scale(0.1 -0.1)">
       <use xlink:href="#DejaVuSerif-30"/>
       <use xlink:href="#DejaVuSerif-2e" x="63.623047"/>
       <use xlink:href="#DejaVuSerif-36" x="95.410156"/>
      </g>
     </g>
    </g>
    <g id="ytick_17">
     <g id="line2d_55">
      <g>
       <use xlink:href="#m31e0ecc8d6" x="47.63" y="260.312" style="stroke: #000000; stroke-width: 0.8"/>
      </g>
     </g>
     <g id="text_30">
      <!-- 0.8 -->
      <g transform="translate(24.726875 264.111219) scale(0.1 -0.1)">
       <use xlink:href="#DejaVuSerif-30"/>
       <use xlink:href="#DejaVuSerif-2e" x="63.623047"/>
       <use xlink:href="#DejaVuSerif-38" x="95.410156"/>
      </g>
     </g>
    </g>
    <g id="ytick_18">
     <g id="line2d_56">
      <g>
       <use xlink:href="#m31e0ecc8d6" x="47.63" y="225.36" style="stroke: #000000; stroke-width: 0.8"/>
      </g>
     </g>
     <g id="text_31">
      <!-- 1.0 -->
      <g transform="translate(24.726875 229.159219) scale(0.1 -0.1)">
       <use xlink:href="#DejaVuSerif-31"/>
       <use xlink:href="#DejaVuSerif-2e" x="63.623047"/>
       <use xlink:href="#DejaVuSerif-30" x="95.410156"/>
      </g>
     </g>
    </g>
    <g id="text_32">
     <!-- Recall -->
     <g transform="translate(18.647187 328.443906) rotate(-90) scale(0.1 -0.1)">
      <use xlink:href="#DejaVuSerif-52"/>
      <use xlink:href="#DejaVuSerif-65" x="75.292969"/>
      <use xlink:href="#DejaVuSerif-63" x="134.472656"/>
      <use xlink:href="#DejaVuSerif-61" x="190.478516"/>
      <use xlink:href="#DejaVuSerif-6c" x="250.097656"/>
      <use xlink:href="#DejaVuSerif-6c" x="282.080078"/>
     </g>
    </g>
   </g>
   <g id="line2d_57">
    <path d="M 58.210833 361.434748 
L 58.210833 346.985115 
" clip-path="url(#pab90a926aa)" style="fill: none; stroke: #424242; stroke-width: 2.7; stroke-linecap: square"/>
   </g>
   <g id="line2d_58">
    <path d="M 79.3725 354.28777 
L 79.3725 339.600819 
" clip-path="url(#pab90a926aa)" style="fill: none; stroke: #424242; stroke-width: 2.7; stroke-linecap: square"/>
   </g>
   <g id="line2d_59">
    <path d="M 100.534167 353.251988 
L 100.534167 333.597811 
" clip-path="url(#pab90a926aa)" style="fill: none; stroke: #424242; stroke-width: 2.7; stroke-linecap: square"/>
   </g>
   <g id="line2d_60">
    <path d="M 121.695833 344.255418 
L 121.695833 321.262725 
" clip-path="url(#pab90a926aa)" style="fill: none; stroke: #424242; stroke-width: 2.7; stroke-linecap: square"/>
   </g>
   <g id="line2d_61">
    <path d="M 142.8575 342.059761 
L 142.8575 320.537863 
" clip-path="url(#pab90a926aa)" style="fill: none; stroke: #424242; stroke-width: 2.7; stroke-linecap: square"/>
   </g>
   <g id="line2d_62">
    <path d="M 164.019167 342.729409 
L 164.019167 322.163882 
" clip-path="url(#pab90a926aa)" style="fill: none; stroke: #424242; stroke-width: 2.7; stroke-linecap: square"/>
   </g>
   <g id="line2d_63">
    <path d="M 79.3725 315.723143 
L 79.3725 314.051918 
L 100.534167 314.051918 
L 100.534167 315.723143 
" style="fill: none; stroke: #333333; stroke-width: 1.5; stroke-linecap: square"/>
   </g>
   <g id="line2d_64">
    <path d="M 100.534167 309.181934 
L 100.534167 307.510709 
L 121.695833 307.510709 
L 121.695833 309.181934 
" style="fill: none; stroke: #333333; stroke-width: 1.5; stroke-linecap: square"/>
   </g>
   <g id="line2d_65">
    <path d="M 58.210833 302.640724 
L 58.210833 300.969499 
L 100.534167 300.969499 
L 100.534167 302.640724 
" style="fill: none; stroke: #333333; stroke-width: 1.5; stroke-linecap: square"/>
   </g>
   <g id="line2d_66">
    <path d="M 100.534167 296.099515 
L 100.534167 294.42829 
L 164.019167 294.42829 
L 164.019167 296.099515 
" style="fill: none; stroke: #333333; stroke-width: 1.5; stroke-linecap: square"/>
   </g>
   <g id="patch_27">
    <path d="M 47.63 400.12 
L 47.63 225.36 
" style="fill: none; stroke: #000000; stroke-width: 0.8; stroke-linejoin: miter; stroke-linecap: square"/>
   </g>
   <g id="patch_28">
    <path d="M 47.63 400.12 
L 174.6 400.12 
" style="fill: none; stroke: #000000; stroke-width: 0.8; stroke-linejoin: miter; stroke-linecap: square"/>
   </g>
   <g id="text_33">
    <!-- ns -->
    <g transform="translate(85.324583 312.288168) scale(0.08 -0.08)">
     <use xlink:href="#DejaVuSerif-6e"/>
     <use xlink:href="#DejaVuSerif-73" x="64.404297"/>
    </g>
   </g>
   <g id="text_34">
    <!-- ns -->
    <g transform="translate(106.48625 305.746959) scale(0.08 -0.08)">
     <use xlink:href="#DejaVuSerif-6e"/>
     <use xlink:href="#DejaVuSerif-73" x="64.404297"/>
    </g>
   </g>
   <g id="text_35">
    <!-- ns -->
    <g transform="translate(74.74375 299.205749) scale(0.08 -0.08)">
     <use xlink:href="#DejaVuSerif-6e"/>
     <use xlink:href="#DejaVuSerif-73" x="64.404297"/>
    </g>
   </g>
   <g id="text_36">
    <!-- ns -->
    <g transform="translate(127.647917 292.66454) scale(0.08 -0.08)">
     <use xlink:href="#DejaVuSerif-6e"/>
     <use xlink:href="#DejaVuSerif-73" x="64.404297"/>
    </g>
   </g>
  </g>
  <g id="axes_4">
   <g id="patch_29">
    <path d="M 222.23 400.12 
L 349.2 400.12 
L 349.2 225.36 
L 222.23 225.36 
L 222.23 400.12 
z
" style="fill: none"/>
   </g>
   <g id="patch_30">
    <path d="M 224.346167 400.12 
L 241.2755 400.12 
L 241.2755 376.952211 
L 224.346167 376.952211 
z
" clip-path="url(#p743e5e3e1f)" style="fill: #767ee7"/>
   </g>
   <g id="patch_31">
    <path d="M 245.507833 400.12 
L 262.437167 400.12 
L 262.437167 372.811168 
L 245.507833 372.811168 
z
" clip-path="url(#p743e5e3e1f)" style="fill: #d96552"/>
   </g>
   <g id="patch_32">
    <path d="M 266.6695 400.12 
L 283.598833 400.12 
L 283.598833 369.338886 
L 266.6695 369.338886 
z
" clip-path="url(#p743e5e3e1f)" style="fill: #19b38a"/>
   </g>
   <g id="patch_33">
    <path d="M 287.831167 400.12 
L 304.7605 400.12 
L 304.7605 358.312716 
L 287.831167 358.312716 
z
" clip-path="url(#p743e5e3e1f)" style="fill: #ac76e7"/>
   </g>
   <g id="patch_34">
    <path d="M 308.992833 400.12 
L 325.922167 400.12 
L 325.922167 364.513096 
L 308.992833 364.513096 
z
" clip-path="url(#p743e5e3e1f)" style="fill: #eaa46f"/>
   </g>
   <g id="patch_35">
    <path d="M 330.1545 400.12 
L 347.083833 400.12 
L 347.083833 376.30671 
L 330.1545 376.30671 
z
" clip-path="url(#p743e5e3e1f)" style="fill: #34c0d8"/>
   </g>
   <g id="matplotlib.axis_7">
    <g id="xtick_19">
     <g id="line2d_67">
      <g>
       <use xlink:href="#mdb02d920c4" x="232.810833" y="400.12" style="stroke: #000000; stroke-width: 0.8"/>
      </g>
     </g>
    </g>
    <g id="xtick_20">
     <g id="line2d_68">
      <g>
       <use xlink:href="#mdb02d920c4" x="253.9725" y="400.12" style="stroke: #000000; stroke-width: 0.8"/>
      </g>
     </g>
    </g>
    <g id="xtick_21">
     <g id="line2d_69">
      <g>
       <use xlink:href="#mdb02d920c4" x="275.134167" y="400.12" style="stroke: #000000; stroke-width: 0.8"/>
      </g>
     </g>
    </g>
    <g id="xtick_22">
     <g id="line2d_70">
      <g>
       <use xlink:href="#mdb02d920c4" x="296.295833" y="400.12" style="stroke: #000000; stroke-width: 0.8"/>
      </g>
     </g>
    </g>
    <g id="xtick_23">
     <g id="line2d_71">
      <g>
       <use xlink:href="#mdb02d920c4" x="317.4575" y="400.12" style="stroke: #000000; stroke-width: 0.8"/>
      </g>
     </g>
    </g>
    <g id="xtick_24">
     <g id="line2d_72">
      <g>
       <use xlink:href="#mdb02d920c4" x="338.619167" y="400.12" style="stroke: #000000; stroke-width: 0.8"/>
      </g>
     </g>
    </g>
    <g id="text_37">
     <!-- leave-tissue-out -->
     <g transform="translate(245.851719 418.718437) scale(0.1 -0.1)">
      <use xlink:href="#DejaVuSerif-6c"/>
      <use xlink:href="#DejaVuSerif-65" x="31.982422"/>
      <use xlink:href="#DejaVuSerif-61" x="91.162109"/>
      <use xlink:href="#DejaVuSerif-76" x="150.78125"/>
      <use xlink:href="#DejaVuSerif-65" x="207.275391"/>
      <use xlink:href="#DejaVuSerif-2d" x="266.455078"/>
      <use xlink:href="#DejaVuSerif-74" x="300.244141"/>
      <use xlink:href="#DejaVuSerif-69" x="340.429688"/>
      <use xlink:href="#DejaVuSerif-73" x="372.412109"/>
      <use xlink:href="#DejaVuSerif-73" x="423.730469"/>
      <use xlink:href="#DejaVuSerif-75" x="475.048828"/>
      <use xlink:href="#DejaVuSerif-65" x="539.453125"/>
      <use xlink:href="#DejaVuSerif-2d" x="598.632812"/>
      <use xlink:href="#DejaVuSerif-6f" x="632.421875"/>
      <use xlink:href="#DejaVuSerif-75" x="692.626953"/>
      <use xlink:href="#DejaVuSerif-74" x="757.03125"/>
     </g>
    </g>
   </g>
   <g id="matplotlib.axis_8">
    <g id="ytick_19">
     <g id="line2d_73">
      <g>
       <use xlink:href="#m31e0ecc8d6" x="222.23" y="400.12" style="stroke: #000000; stroke-width: 0.8"/>
      </g>
     </g>
     <g id="text_38">
      <!-- 0.0 -->
      <g transform="translate(199.326875 403.919219) scale(0.1 -0.1)">
       <use xlink:href="#DejaVuSerif-30"/>
       <use xlink:href="#DejaVuSerif-2e" x="63.623047"/>
       <use xlink:href="#DejaVuSerif-30" x="95.410156"/>
      </g>
     </g>
    </g>
    <g id="ytick_20">
     <g id="line2d_74">
      <g>
       <use xlink:href="#m31e0ecc8d6" x="222.23" y="365.168" style="stroke: #000000; stroke-width: 0.8"/>
      </g>
     </g>
     <g id="text_39">
      <!-- 0.2 -->
      <g transform="translate(199.326875 368.967219) scale(0.1 -0.1)">
       <use xlink:href="#DejaVuSerif-30"/>
       <use xlink:href="#DejaVuSerif-2e" x="63.623047"/>
       <use xlink:href="#DejaVuSerif-32" x="95.410156"/>
      </g>
     </g>
    </g>
    <g id="ytick_21">
     <g id="line2d_75">
      <g>
       <use xlink:href="#m31e0ecc8d6" x="222.23" y="330.216" style="stroke: #000000; stroke-width: 0.8"/>
      </g>
     </g>
     <g id="text_40">
      <!-- 0.4 -->
      <g transform="translate(199.326875 334.015219) scale(0.1 -0.1)">
       <use xlink:href="#DejaVuSerif-30"/>
       <use xlink:href="#DejaVuSerif-2e" x="63.623047"/>
       <use xlink:href="#DejaVuSerif-34" x="95.410156"/>
      </g>
     </g>
    </g>
    <g id="ytick_22">
     <g id="line2d_76">
      <g>
       <use xlink:href="#m31e0ecc8d6" x="222.23" y="295.264" style="stroke: #000000; stroke-width: 0.8"/>
      </g>
     </g>
     <g id="text_41">
      <!-- 0.6 -->
      <g transform="translate(199.326875 299.063219) scale(0.1 -0.1)">
       <use xlink:href="#DejaVuSerif-30"/>
       <use xlink:href="#DejaVuSerif-2e" x="63.623047"/>
       <use xlink:href="#DejaVuSerif-36" x="95.410156"/>
      </g>
     </g>
    </g>
    <g id="ytick_23">
     <g id="line2d_77">
      <g>
       <use xlink:href="#m31e0ecc8d6" x="222.23" y="260.312" style="stroke: #000000; stroke-width: 0.8"/>
      </g>
     </g>
     <g id="text_42">
      <!-- 0.8 -->
      <g transform="translate(199.326875 264.111219) scale(0.1 -0.1)">
       <use xlink:href="#DejaVuSerif-30"/>
       <use xlink:href="#DejaVuSerif-2e" x="63.623047"/>
       <use xlink:href="#DejaVuSerif-38" x="95.410156"/>
      </g>
     </g>
    </g>
    <g id="ytick_24">
     <g id="line2d_78">
      <g>
       <use xlink:href="#m31e0ecc8d6" x="222.23" y="225.36" style="stroke: #000000; stroke-width: 0.8"/>
      </g>
     </g>
     <g id="text_43">
      <!-- 1.0 -->
      <g transform="translate(199.326875 229.159219) scale(0.1 -0.1)">
       <use xlink:href="#DejaVuSerif-31"/>
       <use xlink:href="#DejaVuSerif-2e" x="63.623047"/>
       <use xlink:href="#DejaVuSerif-30" x="95.410156"/>
      </g>
     </g>
    </g>
    <g id="text_44">
     <!-- Recall -->
     <g transform="translate(193.247187 328.443906) rotate(-90) scale(0.1 -0.1)">
      <use xlink:href="#DejaVuSerif-52"/>
      <use xlink:href="#DejaVuSerif-65" x="75.292969"/>
      <use xlink:href="#DejaVuSerif-63" x="134.472656"/>
      <use xlink:href="#DejaVuSerif-61" x="190.478516"/>
      <use xlink:href="#DejaVuSerif-6c" x="250.097656"/>
      <use xlink:href="#DejaVuSerif-6c" x="282.080078"/>
     </g>
    </g>
   </g>
   <g id="line2d_79">
    <path d="M 232.810833 384.837218 
L 232.810833 368.20639 
" clip-path="url(#p743e5e3e1f)" style="fill: none; stroke: #424242; stroke-width: 2.7; stroke-linecap: square"/>
   </g>
   <g id="line2d_80">
    <path d="M 253.9725 382.674188 
L 253.9725 363.554272 
" clip-path="url(#p743e5e3e1f)" style="fill: none; stroke: #424242; stroke-width: 2.7; stroke-linecap: square"/>
   </g>
   <g id="line2d_81">
    <path d="M 275.134167 381.930242 
L 275.134167 357.199461 
" clip-path="url(#p743e5e3e1f)" style="fill: none; stroke: #424242; stroke-width: 2.7; stroke-linecap: square"/>
   </g>
   <g id="line2d_82">
    <path d="M 296.295833 370.411681 
L 296.295833 345.113781 
" clip-path="url(#p743e5e3e1f)" style="fill: none; stroke: #424242; stroke-width: 2.7; stroke-linecap: square"/>
   </g>
   <g id="line2d_83">
    <path d="M 317.4575 377.412358 
L 317.4575 351.854668 
" clip-path="url(#p743e5e3e1f)" style="fill: none; stroke: #424242; stroke-width: 2.7; stroke-linecap: square"/>
   </g>
   <g id="line2d_84">
    <path d="M 338.619167 393.582191 
L 338.619167 358.707552 
" clip-path="url(#p743e5e3e1f)" style="fill: none; stroke: #424242; stroke-width: 2.7; stroke-linecap: square"/>
   </g>
   <g id="line2d_85">
    <path d="M 253.9725 341.785905 
L 253.9725 340.630775 
L 275.134167 340.630775 
L 275.134167 341.785905 
" style="fill: none; stroke: #333333; stroke-width: 1.5; stroke-linecap: square"/>
   </g>
   <g id="line2d_86">
    <path d="M 275.134167 337.2647 
L 275.134167 336.109569 
L 296.295833 336.109569 
L 296.295833 337.2647 
" style="fill: none; stroke: #333333; stroke-width: 1.5; stroke-linecap: square"/>
   </g>
   <g id="line2d_87">
    <path d="M 232.810833 332.743494 
L 232.810833 331.588363 
L 275.134167 331.588363 
L 275.134167 332.743494 
" style="fill: none; stroke: #333333; stroke-width: 1.5; stroke-linecap: square"/>
   </g>
   <g id="line2d_88">
    <path d="M 275.134167 328.222289 
L 275.134167 327.067158 
L 338.619167 327.067158 
L 338.619167 328.222289 
" style="fill: none; stroke: #333333; stroke-width: 1.5; stroke-linecap: square"/>
   </g>
   <g id="patch_36">
    <path d="M 222.23 400.12 
L 222.23 225.36 
" style="fill: none; stroke: #000000; stroke-width: 0.8; stroke-linejoin: miter; stroke-linecap: square"/>
   </g>
   <g id="patch_37">
    <path d="M 222.23 400.12 
L 349.2 400.12 
" style="fill: none; stroke: #000000; stroke-width: 0.8; stroke-linejoin: miter; stroke-linecap: square"/>
   </g>
   <g id="text_45">
    <!-- ns -->
    <g transform="translate(259.924583 338.867025) scale(0.08 -0.08)">
     <use xlink:href="#DejaVuSerif-6e"/>
     <use xlink:href="#DejaVuSerif-73" x="64.404297"/>
    </g>
   </g>
   <g id="text_46">
    <!-- ns -->
    <g transform="translate(281.08625 334.345819) scale(0.08 -0.08)">
     <use xlink:href="#DejaVuSerif-6e"/>
     <use xlink:href="#DejaVuSerif-73" x="64.404297"/>
    </g>
   </g>
   <g id="text_47">
    <!-- ns -->
    <g transform="translate(249.34375 329.824613) scale(0.08 -0.08)">
     <use xlink:href="#DejaVuSerif-6e"/>
     <use xlink:href="#DejaVuSerif-73" x="64.404297"/>
    </g>
   </g>
   <g id="text_48">
    <!-- ns -->
    <g transform="translate(302.247917 325.303408) scale(0.08 -0.08)">
     <use xlink:href="#DejaVuSerif-6e"/>
     <use xlink:href="#DejaVuSerif-73" x="64.404297"/>
    </g>
   </g>
  </g>
  <g id="legend_1">
   <g id="patch_38">
    <path d="M -88.70625 470.2 
L 448.70625 470.2 
Q 450.70625 470.2 450.70625 468.2 
L 450.70625 439.701563 
Q 450.70625 437.701563 448.70625 437.701563 
L -88.70625 437.701563 
Q -90.70625 437.701563 -90.70625 439.701563 
L -90.70625 468.2 
Q -90.70625 470.2 -88.70625 470.2 
z
" style="fill: #ffffff; opacity: 0.8; stroke: #cccccc; stroke-linejoin: miter"/>
   </g>
   <g id="text_49">
    <!-- Models -->
    <g transform="translate(161.545312 449.3) scale(0.1 -0.1)">
     <defs>
      <path id="DejaVuSerif-4d" d="M 353 0 
L 353 331 
L 947 331 
L 947 4331 
L 319 4331 
L 319 4666 
L 1678 4666 
L 3316 1344 
L 4953 4666 
L 6228 4666 
L 6228 4331 
L 5606 4331 
L 5606 331 
L 6203 331 
L 6203 0 
L 4378 0 
L 4378 331 
L 4972 331 
L 4972 3938 
L 3372 684 
L 2931 684 
L 1331 3938 
L 1331 331 
L 1925 331 
L 1925 0 
L 353 0 
z
" transform="scale(0.015625)"/>
     </defs>
     <use xlink:href="#DejaVuSerif-4d"/>
     <use xlink:href="#DejaVuSerif-6f" x="102.392578"/>
     <use xlink:href="#DejaVuSerif-64" x="162.597656"/>
     <use xlink:href="#DejaVuSerif-65" x="226.611328"/>
     <use xlink:href="#DejaVuSerif-6c" x="285.791016"/>
     <use xlink:href="#DejaVuSerif-73" x="317.773438"/>
    </g>
   </g>
   <g id="patch_39">
    <path d="M -86.70625 463.978125 
L -66.70625 463.978125 
L -66.70625 456.978125 
L -86.70625 456.978125 
z
" style="fill: #636efa; stroke: #636efa; stroke-linejoin: miter"/>
   </g>
   <g id="text_50">
    <!-- LR -->
    <g transform="translate(-58.70625 463.978125) scale(0.1 -0.1)">
     <defs>
      <path id="DejaVuSerif-4c" d="M 353 0 
L 353 331 
L 947 331 
L 947 4331 
L 353 4331 
L 353 4666 
L 2175 4666 
L 2175 4331 
L 1581 4331 
L 1581 384 
L 3713 384 
L 3713 1166 
L 4097 1166 
L 4097 0 
L 353 0 
z
" transform="scale(0.015625)"/>
     </defs>
     <use xlink:href="#DejaVuSerif-4c"/>
     <use xlink:href="#DejaVuSerif-52" x="66.40625"/>
    </g>
   </g>
   <g id="patch_40">
    <path d="M -24.535938 463.978125 
L -4.535938 463.978125 
L -4.535938 456.978125 
L -24.535938 456.978125 
z
" style="fill: #ef553b; stroke: #ef553b; stroke-linejoin: miter"/>
   </g>
   <g id="text_51">
    <!-- XGBoost -->
    <g transform="translate(3.464062 463.978125) scale(0.1 -0.1)">
     <defs>
      <path id="DejaVuSerif-58" d="M 2119 1997 
L 978 331 
L 1581 331 
L 1581 0 
L 38 0 
L 38 331 
L 575 331 
L 1919 2291 
L 556 4331 
L 56 4331 
L 56 4666 
L 1906 4666 
L 1906 4331 
L 1356 4331 
L 2356 2828 
L 3384 4331 
L 2784 4331 
L 2784 4666 
L 4313 4666 
L 4313 4331 
L 3788 4331 
L 2553 2534 
L 4025 331 
L 4525 331 
L 4525 0 
L 2675 0 
L 2675 331 
L 3231 331 
L 2119 1997 
z
" transform="scale(0.015625)"/>
      <path id="DejaVuSerif-47" d="M 4097 3272 
Q 3988 3856 3641 4136 
Q 3294 4416 2675 4416 
Q 1869 4416 1472 3897 
Q 1075 3378 1075 2328 
Q 1075 1300 1484 772 
Q 1894 244 2688 244 
Q 3041 244 3362 331 
Q 3684 419 3975 594 
L 3975 1797 
L 3097 1797 
L 3097 2131 
L 4609 2131 
L 4609 391 
Q 4194 150 3714 29 
Q 3234 -91 2688 -91 
Q 1631 -91 995 570 
Q 359 1231 359 2328 
Q 359 3434 996 4092 
Q 1634 4750 2713 4750 
Q 3113 4750 3539 4658 
Q 3966 4566 4447 4378 
L 4447 3272 
L 4097 3272 
z
" transform="scale(0.015625)"/>
      <path id="DejaVuSerif-42" d="M 1581 331 
L 2516 331 
Q 3078 331 3337 575 
Q 3597 819 3597 1350 
Q 3597 1878 3339 2120 
Q 3081 2363 2516 2363 
L 1581 2363 
L 1581 331 
z
M 1581 2694 
L 2375 2694 
Q 2888 2694 3123 2891 
Q 3359 3088 3359 3513 
Q 3359 3941 3123 4136 
Q 2888 4331 2375 4331 
L 1581 4331 
L 1581 2694 
z
M 353 0 
L 353 331 
L 947 331 
L 947 4331 
L 353 4331 
L 353 4666 
L 2656 4666 
Q 3363 4666 3720 4377 
Q 4078 4088 4078 3513 
Q 4078 3097 3829 2850 
Q 3581 2603 3103 2547 
Q 3697 2472 4005 2167 
Q 4313 1863 4313 1350 
Q 4313 656 3875 328 
Q 3438 0 2509 0 
L 353 0 
z
" transform="scale(0.015625)"/>
     </defs>
     <use xlink:href="#DejaVuSerif-58"/>
     <use xlink:href="#DejaVuSerif-47" x="71.191406"/>
     <use xlink:href="#DejaVuSerif-42" x="151.074219"/>
     <use xlink:href="#DejaVuSerif-6f" x="224.560547"/>
     <use xlink:href="#DejaVuSerif-6f" x="284.765625"/>
     <use xlink:href="#DejaVuSerif-73" x="344.970703"/>
     <use xlink:href="#DejaVuSerif-74" x="396.289062"/>
    </g>
   </g>
   <g id="patch_41">
    <path d="M 67.110937 463.978125 
L 87.110937 463.978125 
L 87.110937 456.978125 
L 67.110937 456.978125 
z
" style="fill: #00cc96; stroke: #00cc96; stroke-linejoin: miter"/>
   </g>
   <g id="text_52">
    <!-- MLP -->
    <g transform="translate(95.110937 463.978125) scale(0.1 -0.1)">
     <defs>
      <path id="DejaVuSerif-50" d="M 1581 2375 
L 2406 2375 
Q 2872 2375 3115 2626 
Q 3359 2878 3359 3353 
Q 3359 3831 3115 4081 
Q 2872 4331 2406 4331 
L 1581 4331 
L 1581 2375 
z
M 353 0 
L 353 331 
L 947 331 
L 947 4331 
L 353 4331 
L 353 4666 
L 2559 4666 
Q 3259 4666 3668 4311 
Q 4078 3956 4078 3353 
Q 4078 2753 3668 2397 
Q 3259 2041 2559 2041 
L 1581 2041 
L 1581 331 
L 2303 331 
L 2303 0 
L 353 0 
z
" transform="scale(0.015625)"/>
     </defs>
     <use xlink:href="#DejaVuSerif-4d"/>
     <use xlink:href="#DejaVuSerif-4c" x="102.392578"/>
     <use xlink:href="#DejaVuSerif-50" x="168.798828"/>
    </g>
   </g>
   <g id="patch_42">
    <path d="M 138.71875 463.978125 
L 158.71875 463.978125 
L 158.71875 456.978125 
L 138.71875 456.978125 
z
" style="fill: #ab63fa; stroke: #ab63fa; stroke-linejoin: miter"/>
   </g>
   <g id="text_53">
    <!-- DeepDDS GAT -->
    <g transform="translate(166.71875 463.978125) scale(0.1 -0.1)">
     <defs>
      <path id="DejaVuSerif-44" d="M 1581 331 
L 2163 331 
Q 3072 331 3558 850 
Q 4044 1369 4044 2338 
Q 4044 3306 3559 3818 
Q 3075 4331 2163 4331 
L 1581 4331 
L 1581 331 
z
M 353 0 
L 353 331 
L 947 331 
L 947 4331 
L 353 4331 
L 353 4666 
L 2209 4666 
Q 3416 4666 4089 4050 
Q 4763 3434 4763 2338 
Q 4763 1238 4088 619 
Q 3413 0 2209 0 
L 353 0 
z
" transform="scale(0.015625)"/>
      <path id="DejaVuSerif-70" d="M 1313 1825 
L 1313 1497 
Q 1313 897 1542 583 
Q 1772 269 2209 269 
Q 2650 269 2876 622 
Q 3103 975 3103 1663 
Q 3103 2353 2876 2703 
Q 2650 3053 2209 3053 
Q 1772 3053 1542 2737 
Q 1313 2422 1313 1825 
z
M 738 2988 
L 184 2988 
L 184 3322 
L 1313 3322 
L 1313 2803 
Q 1481 3116 1742 3264 
Q 2003 3413 2388 3413 
Q 3000 3413 3387 2928 
Q 3775 2444 3775 1663 
Q 3775 881 3387 395 
Q 3000 -91 2388 -91 
Q 2003 -91 1742 57 
Q 1481 206 1313 519 
L 1313 -997 
L 1856 -997 
L 1856 -1331 
L 184 -1331 
L 184 -997 
L 738 -997 
L 738 2988 
z
" transform="scale(0.015625)"/>
      <path id="DejaVuSerif-53" d="M 594 225 
L 594 1288 
L 953 1284 
Q 969 753 1261 498 
Q 1553 244 2150 244 
Q 2706 244 2998 464 
Q 3291 684 3291 1106 
Q 3291 1444 3114 1625 
Q 2938 1806 2369 1978 
L 1753 2163 
Q 1084 2366 811 2669 
Q 538 2972 538 3500 
Q 538 4094 959 4422 
Q 1381 4750 2144 4750 
Q 2469 4750 2856 4679 
Q 3244 4609 3681 4475 
L 3681 3481 
L 3328 3481 
Q 3275 3975 2998 4195 
Q 2722 4416 2156 4416 
Q 1663 4416 1405 4214 
Q 1147 4013 1147 3628 
Q 1147 3294 1340 3103 
Q 1534 2913 2163 2725 
L 2741 2553 
Q 3375 2363 3645 2067 
Q 3916 1772 3916 1275 
Q 3916 597 3481 253 
Q 3047 -91 2188 -91 
Q 1803 -91 1404 -12 
Q 1006 66 594 225 
z
" transform="scale(0.015625)"/>
      <path id="DejaVuSerif-20" transform="scale(0.015625)"/>
      <path id="DejaVuSerif-41" d="M 1281 1691 
L 2994 1691 
L 2138 3909 
L 1281 1691 
z
M -38 0 
L -38 331 
L 372 331 
L 2034 4666 
L 2559 4666 
L 4225 331 
L 4684 331 
L 4684 0 
L 2988 0 
L 2988 331 
L 3506 331 
L 3116 1356 
L 1153 1356 
L 763 331 
L 1275 331 
L 1275 0 
L -38 0 
z
" transform="scale(0.015625)"/>
      <path id="DejaVuSerif-54" d="M 1222 0 
L 1222 331 
L 1819 331 
L 1819 4294 
L 447 4294 
L 447 3566 
L 63 3566 
L 63 4666 
L 4206 4666 
L 4206 3566 
L 3822 3566 
L 3822 4294 
L 2450 4294 
L 2450 331 
L 3047 331 
L 3047 0 
L 1222 0 
z
" transform="scale(0.015625)"/>
     </defs>
     <use xlink:href="#DejaVuSerif-44"/>
     <use xlink:href="#DejaVuSerif-65" x="80.175781"/>
     <use xlink:href="#DejaVuSerif-65" x="139.355469"/>
     <use xlink:href="#DejaVuSerif-70" x="198.535156"/>
     <use xlink:href="#DejaVuSerif-44" x="262.548828"/>
     <use xlink:href="#DejaVuSerif-44" x="342.724609"/>
     <use xlink:href="#DejaVuSerif-53" x="422.900391"/>
     <use xlink:href="#DejaVuSerif-20" x="491.40625"/>
     <use xlink:href="#DejaVuSerif-47" x="523.193359"/>
     <use xlink:href="#DejaVuSerif-41" x="603.076172"/>
     <use xlink:href="#DejaVuSerif-54" x="669.792969"/>
    </g>
   </g>
   <g id="patch_43">
    <path d="M 260.36875 463.978125 
L 280.36875 463.978125 
L 280.36875 456.978125 
L 260.36875 456.978125 
z
" style="fill: #ffa15a; stroke: #ffa15a; stroke-linejoin: miter"/>
   </g>
   <g id="text_54">
    <!-- DeepDDS GCN -->
    <g transform="translate(288.36875 463.978125) scale(0.1 -0.1)">
     <defs>
      <path id="DejaVuSerif-43" d="M 4513 1234 
Q 4306 581 3820 245 
Q 3334 -91 2591 -91 
Q 2134 -91 1743 65 
Q 1353 222 1050 525 
Q 700 875 529 1320 
Q 359 1766 359 2328 
Q 359 3416 987 4083 
Q 1616 4750 2644 4750 
Q 3025 4750 3456 4650 
Q 3888 4550 4384 4347 
L 4384 3272 
L 4031 3272 
Q 3916 3859 3567 4137 
Q 3219 4416 2591 4416 
Q 1844 4416 1459 3886 
Q 1075 3356 1075 2328 
Q 1075 1303 1459 773 
Q 1844 244 2591 244 
Q 3113 244 3450 492 
Q 3788 741 3938 1234 
L 4513 1234 
z
" transform="scale(0.015625)"/>
      <path id="DejaVuSerif-4e" d="M 313 0 
L 313 331 
L 941 331 
L 941 4331 
L 313 4331 
L 313 4666 
L 1509 4666 
L 4306 984 
L 4306 4331 
L 3681 4331 
L 3681 4666 
L 5319 4666 
L 5319 4331 
L 4691 4331 
L 4691 -91 
L 4313 -91 
L 1325 3841 
L 1325 331 
L 1953 331 
L 1953 0 
L 313 0 
z
" transform="scale(0.015625)"/>
     </defs>
     <use xlink:href="#DejaVuSerif-44"/>
     <use xlink:href="#DejaVuSerif-65" x="80.175781"/>
     <use xlink:href="#DejaVuSerif-65" x="139.355469"/>
     <use xlink:href="#DejaVuSerif-70" x="198.535156"/>
     <use xlink:href="#DejaVuSerif-44" x="262.548828"/>
     <use xlink:href="#DejaVuSerif-44" x="342.724609"/>
     <use xlink:href="#DejaVuSerif-53" x="422.900391"/>
     <use xlink:href="#DejaVuSerif-20" x="491.40625"/>
     <use xlink:href="#DejaVuSerif-47" x="523.193359"/>
     <use xlink:href="#DejaVuSerif-43" x="603.076172"/>
     <use xlink:href="#DejaVuSerif-4e" x="679.589844"/>
    </g>
   </g>
   <g id="patch_44">
    <path d="M 385.078125 463.978125 
L 405.078125 463.978125 
L 405.078125 456.978125 
L 385.078125 456.978125 
z
" style="fill: #19d3f3; stroke: #19d3f3; stroke-linejoin: miter"/>
   </g>
   <g id="text_55">
    <!-- DTSyn -->
    <g transform="translate(413.078125 463.978125) scale(0.1 -0.1)">
     <defs>
      <path id="DejaVuSerif-79" d="M 1381 -609 
L 1600 -56 
L 359 2988 
L -19 2988 
L -19 3322 
L 1509 3322 
L 1509 2988 
L 978 2988 
L 1913 703 
L 2847 2988 
L 2350 2988 
L 2350 3322 
L 3597 3322 
L 3597 2988 
L 3225 2988 
L 1703 -750 
Q 1547 -1138 1356 -1280 
Q 1166 -1422 819 -1422 
Q 672 -1422 517 -1397 
Q 363 -1372 206 -1325 
L 206 -691 
L 500 -691 
Q 519 -903 608 -995 
Q 697 -1088 884 -1088 
Q 1056 -1088 1161 -992 
Q 1266 -897 1381 -609 
z
" transform="scale(0.015625)"/>
     </defs>
     <use xlink:href="#DejaVuSerif-44"/>
     <use xlink:href="#DejaVuSerif-54" x="80.175781"/>
     <use xlink:href="#DejaVuSerif-53" x="146.875"/>
     <use xlink:href="#DejaVuSerif-79" x="215.380859"/>
     <use xlink:href="#DejaVuSerif-6e" x="271.875"/>
    </g>
   </g>
  </g>
 </g>
 <defs>
  <clipPath id="p8811c146e0">
   <rect x="47.63" y="14.76" width="126.97" height="174.76"/>
  </clipPath>
  <clipPath id="pbdd61bc247">
   <rect x="222.23" y="14.76" width="126.97" height="174.76"/>
  </clipPath>
  <clipPath id="pab90a926aa">
   <rect x="47.63" y="225.36" width="126.97" height="174.76"/>
  </clipPath>
  <clipPath id="p743e5e3e1f">
   <rect x="222.23" y="225.36" width="126.97" height="174.76"/>
  </clipPath>
 </defs>
</svg>
